<svg width="448" height="448" viewBox="0 0 448 448" fill="none" xmlns="http://www.w3.org/2000/svg">
<path fill-rule="evenodd"  clip-rule="evenodd" d="M49 0C21.938 0 0 21.938 0 49V399C0 426.062 21.938 448 49 448H399C426.062 448 448 426.062 448 399V49C448 21.938 426.062 0 399 0H49ZM108.034 108.034C77.2785 138.79 60 180.505 60 224C60 267.496 77.2785 309.21 108.034 339.966C138.79 370.721 180.505 388 224 388C267.496 388 309.21 370.721 339.966 339.966C370.721 309.21 388 267.496 388 224C388 180.505 370.721 138.79 339.966 108.034C309.21 77.2785 267.496 60 224 60C180.505 60 138.79 77.2785 108.034 108.034ZM175.066 120.106C186.382 98.8885 200.015 86.2605 213.75 82.0785V143.866C197.145 143.251 181.421 141.201 166.969 137.982C169.408 131.586 172.135 125.6 175.066 120.106ZM156.965 110.451C153.337 117.298 150.016 124.677 147.105 132.549V132.57C138.187 129.68 129.967 126.297 122.546 122.525C135.896 109.159 151.751 98.5564 169.204 91.324C164.603 97.3508 160.51 103.748 156.965 110.451ZM140.872 152.086C135.788 170.967 132.673 191.815 131.934 213.75H131.914H80.869C82.7718 186.482 92.4627 160.334 108.79 138.413C119.035 143.96 129.776 148.537 140.872 152.086ZM152.434 213.75C153.051 194.771 155.802 175.923 160.634 157.559C177.199 161.393 195.095 163.751 213.75 164.366V213.75H152.434ZM234.25 213.75V164.366C252.905 163.73 270.801 161.393 287.365 157.559C292.192 175.923 294.936 194.772 295.545 213.75H234.25ZM160.634 290.44C156.063 273.487 153.173 254.484 152.455 234.25H213.75V283.655C195.868 284.209 178.081 286.481 160.634 290.44ZM234.25 283.635V234.25H295.565C294.828 254.484 291.937 273.487 287.365 290.44C270.801 286.607 252.905 284.25 234.25 283.635ZM166.976 310.037C169.434 316.426 172.138 322.405 175.066 327.894C186.382 349.112 200.035 361.719 213.75 365.922V304.155C197.148 304.77 181.427 306.819 166.976 310.037ZM156.965 337.549C160.516 344.253 164.616 350.65 169.224 356.676H169.204C151.751 349.444 135.896 338.841 122.546 325.475C130.461 321.499 138.671 318.14 147.105 315.43C149.895 323.014 153.189 330.404 156.965 337.549ZM131.914 234.25C132.545 255.079 135.55 275.767 140.872 295.914C129.188 299.707 118.425 304.298 108.79 309.587C92.4616 287.666 82.7707 261.518 80.869 234.25H131.914ZM325.434 325.496C312.088 338.852 296.24 349.448 278.797 356.676C283.398 350.65 287.491 344.252 291.035 337.549C294.81 330.411 298.104 323.028 300.896 315.451C309.322 318.161 317.526 321.52 325.434 325.496ZM234.25 365.922V304.155C249.99 304.683 265.648 306.645 281.031 310.018C278.591 316.414 275.865 322.4 272.934 327.894C261.617 349.112 247.985 361.74 234.25 365.922ZM339.21 309.587C329.575 304.298 318.812 299.707 307.128 295.914C312.45 275.767 315.455 255.079 316.086 234.25H367.131C365.229 261.518 355.538 287.666 339.21 309.587ZM339.21 138.413C355.538 160.334 365.229 186.482 367.131 213.75H316.086C315.327 191.815 312.212 170.946 307.128 152.086C318.812 148.294 329.575 143.702 339.21 138.413ZM300.916 132.549C297.984 124.677 294.664 117.298 291.035 110.451C287.366 103.583 283.266 97.146 278.797 91.3445C296.238 98.5671 312.086 109.155 325.434 122.505C317.533 126.48 309.335 129.838 300.916 132.549ZM281.024 137.963C278.696 131.85 275.995 125.887 272.934 120.106C261.617 98.8885 247.985 86.281 234.25 82.0785V143.845C250.852 143.23 266.573 141.181 281.024 137.963Z" fill="#d1d5db"/>
</svg>
