<svg width="875" height="360" viewBox="0 0 875 360" fill="none" xmlns="http://www.w3.org/2000/svg">
<g opacity="0.2">
<path d="M215.6 24.6L179 165H137.6L115.2 72.6L92 165H50.6L15 24.6H51.6L71.8 126.8L96.8 24.6H134.4L158.4 126.8L178.8 24.6H215.6ZM354.352 24.6V165H320.152V107.2H266.952V165H232.752V24.6H266.952V79.6H320.152V24.6H354.352ZM445.441 166.4C432.241 166.4 420.107 163.333 409.041 157.2C398.107 151.067 389.374 142.533 382.841 131.6C376.441 120.533 373.241 108.133 373.241 94.4C373.241 80.6667 376.441 68.3333 382.841 57.4C389.374 46.4667 398.107 37.9333 409.041 31.8C420.107 25.6667 432.241 22.6 445.441 22.6C458.641 22.6 470.707 25.6667 481.641 31.8C492.707 37.9333 501.374 46.4667 507.641 57.4C514.041 68.3333 517.241 80.6667 517.241 94.4C517.241 108.133 514.041 120.533 507.641 131.6C501.241 142.533 492.574 151.067 481.641 157.2C470.707 163.333 458.641 166.4 445.441 166.4ZM445.441 135.2C456.641 135.2 465.574 131.467 472.241 124C479.041 116.533 482.441 106.667 482.441 94.4C482.441 82 479.041 72.1333 472.241 64.8C465.574 57.3333 456.641 53.6 445.441 53.6C434.107 53.6 425.041 57.2667 418.241 64.6C411.574 71.9333 408.241 81.8667 408.241 94.4C408.241 106.8 411.574 116.733 418.241 124.2C425.041 131.533 434.107 135.2 445.441 135.2ZM215.6 194.6L179 335H137.6L115.2 242.6L92 335H50.6L15 194.6H51.6L71.8 296.8L96.8 194.6H134.4L158.4 296.8L178.8 194.6H215.6ZM266.952 222V250.4H312.752V276.8H266.952V307.6H318.752V335H232.752V194.6H318.752V222H266.952ZM470.738 310.2H418.338L409.938 335H374.138L424.938 194.6H464.538L515.338 335H479.138L470.738 310.2ZM461.938 283.8L444.538 232.4L427.338 283.8H461.938ZM602.398 335L573.198 282H564.998V335H530.798V194.6H588.198C599.265 194.6 608.665 196.533 616.398 200.4C624.265 204.267 630.132 209.6 633.998 216.4C637.865 223.067 639.798 230.533 639.798 238.8C639.798 248.133 637.132 256.467 631.798 263.8C626.598 271.133 618.865 276.333 608.598 279.4L640.998 335H602.398ZM564.998 257.8H586.198C592.465 257.8 597.132 256.267 600.198 253.2C603.398 250.133 604.998 245.8 604.998 240.2C604.998 234.867 603.398 230.667 600.198 227.6C597.132 224.533 592.465 223 586.198 223H564.998V257.8ZM695.467 222V250.4H741.267V276.8H695.467V307.6H747.267V335H661.267V194.6H747.267V222H695.467ZM810.47 186.8C824.737 186.8 836.137 190.533 844.67 198C853.337 205.467 857.67 216 857.67 229.6C857.67 242.133 853.537 251.933 845.27 259C837.137 265.933 826.337 269.467 812.87 269.6L811.87 284.6H781.87L780.87 247.4H792.87C803.137 247.4 810.937 246.133 816.27 243.6C821.737 241.067 824.47 236.467 824.47 229.8C824.47 225.133 823.204 221.467 820.67 218.8C818.137 216.133 814.604 214.8 810.07 214.8C805.27 214.8 801.537 216.2 798.87 219C796.204 221.667 794.87 225.333 794.87 230H762.67C762.404 221.867 764.07 214.533 767.67 208C771.404 201.467 776.87 196.333 784.07 192.6C791.404 188.733 800.204 186.8 810.47 186.8ZM797.27 336.6C791.27 336.6 786.337 334.867 782.47 331.4C778.737 327.8 776.87 323.4 776.87 318.2C776.87 312.867 778.737 308.4 782.47 304.8C786.337 301.2 791.27 299.4 797.27 299.4C803.137 299.4 807.937 301.2 811.67 304.8C815.537 308.4 817.47 312.867 817.47 318.2C817.47 323.4 815.537 327.8 811.67 331.4C807.937 334.867 803.137 336.6 797.27 336.6Z" fill="white"/>
<path d="M215.6 24.6L218.503 25.3568L219.482 21.6H215.6V24.6ZM179 165V168H181.318L181.903 165.757L179 165ZM137.6 165L134.684 165.707L135.24 168H137.6V165ZM115.2 72.6L118.116 71.8932L112.29 71.8694L115.2 72.6ZM92 165V168H94.3399L94.9097 165.731L92 165ZM50.6 165L47.692 165.737L48.2657 168H50.6V165ZM15 24.6V21.6H11.1444L12.092 25.3373L15 24.6ZM51.6 24.6L54.5431 24.0183L54.0651 21.6H51.6V24.6ZM71.8 126.8L68.8569 127.382L74.7141 127.513L71.8 126.8ZM96.8 24.6V21.6H94.4454L93.8859 23.8872L96.8 24.6ZM134.4 24.6L137.321 23.9142L136.777 21.6H134.4V24.6ZM158.4 126.8L155.479 127.486L161.342 127.387L158.4 126.8ZM178.8 24.6V21.6H176.34L175.858 24.0128L178.8 24.6ZM212.697 23.8432L176.097 164.243L181.903 165.757L218.503 25.3568L212.697 23.8432ZM179 162H137.6V168H179V162ZM140.516 164.293L118.116 71.8932L112.284 73.3068L134.684 165.707L140.516 164.293ZM112.29 71.8694L89.0903 164.269L94.9097 165.731L118.11 73.3306L112.29 71.8694ZM92 162H50.6V168H92V162ZM53.508 164.263L17.908 23.8626L12.092 25.3373L47.692 165.737L53.508 164.263ZM15 27.6H51.6V21.6H15V27.6ZM48.6569 25.1817L68.8569 127.382L74.7431 126.218L54.5431 24.0183L48.6569 25.1817ZM74.7141 127.513L99.7141 25.3128L93.8859 23.8872L68.8859 126.087L74.7141 127.513ZM96.8 27.6H134.4V21.6H96.8V27.6ZM131.479 25.2858L155.479 127.486L161.321 126.114L137.321 23.9142L131.479 25.2858ZM161.342 127.387L181.742 25.1872L175.858 24.0128L155.458 126.213L161.342 127.387ZM178.8 27.6H215.6V21.6H178.8V27.6ZM354.352 24.6H357.352V21.6H354.352V24.6ZM354.352 165V168H357.352V165H354.352ZM320.152 165H317.152V168H320.152V165ZM320.152 107.2H323.152V104.2H320.152V107.2ZM266.952 107.2V104.2H263.952V107.2H266.952ZM266.952 165V168H269.952V165H266.952ZM232.752 165H229.752V168H232.752V165ZM232.752 24.6V21.6H229.752V24.6H232.752ZM266.952 24.6H269.952V21.6H266.952V24.6ZM266.952 79.6H263.952V82.6H266.952V79.6ZM320.152 79.6V82.6H323.152V79.6H320.152ZM320.152 24.6V21.6H317.152V24.6H320.152ZM351.352 24.6V165H357.352V24.6H351.352ZM354.352 162H320.152V168H354.352V162ZM323.152 165V107.2H317.152V165H323.152ZM320.152 104.2H266.952V110.2H320.152V104.2ZM263.952 107.2V165H269.952V107.2H263.952ZM266.952 162H232.752V168H266.952V162ZM235.752 165V24.6H229.752V165H235.752ZM232.752 27.6H266.952V21.6H232.752V27.6ZM263.952 24.6V79.6H269.952V24.6H263.952ZM266.952 82.6H320.152V76.6H266.952V82.6ZM323.152 79.6V24.6H317.152V79.6H323.152ZM320.152 27.6H354.352V21.6H320.152V27.6ZM409.041 157.2L407.573 159.816L407.58 159.82L407.586 159.824L409.041 157.2ZM382.841 131.6L380.244 133.102L380.254 133.12L380.265 133.139L382.841 131.6ZM382.841 57.4L380.265 55.8611L380.258 55.8728L380.252 55.8845L382.841 57.4ZM409.041 31.8L407.586 29.176L407.58 29.1798L407.573 29.1836L409.041 31.8ZM481.641 31.8L480.173 34.4164L480.18 34.4202L480.186 34.424L481.641 31.8ZM507.641 57.4L505.038 58.8918L505.045 58.9037L505.052 58.9155L507.641 57.4ZM507.641 131.6L510.23 133.116L510.234 133.109L510.238 133.102L507.641 131.6ZM481.641 157.2L483.108 159.816L483.108 159.816L481.641 157.2ZM472.241 124L470.023 121.98L470.013 121.991L470.003 122.002L472.241 124ZM472.241 64.8L470.003 66.798L470.022 66.8191L470.041 66.8398L472.241 64.8ZM418.241 64.6L416.041 62.5602L416.031 62.571L416.021 62.582L418.241 64.6ZM418.241 124.2L416.003 126.198L416.022 126.219L416.041 126.24L418.241 124.2ZM445.441 163.4C432.727 163.4 421.097 160.452 410.495 154.576L407.586 159.824C419.118 166.215 431.755 169.4 445.441 169.4V163.4ZM410.508 154.584C400.04 148.711 391.685 140.552 385.416 130.061L380.265 133.139C387.063 144.514 396.175 153.423 407.573 159.816L410.508 154.584ZM385.438 130.098C379.321 119.522 376.241 107.646 376.241 94.4H370.241C370.241 108.62 373.56 121.545 380.244 133.102L385.438 130.098ZM376.241 94.4C376.241 81.1531 379.321 69.3508 385.43 58.9155L380.252 55.8845C373.56 67.3158 370.241 80.1802 370.241 94.4H376.241ZM385.416 58.9389C391.685 48.4477 400.04 40.2892 410.508 34.4164L407.573 29.1836C396.175 35.5775 387.063 44.4856 380.265 55.8611L385.416 58.9389ZM410.495 34.424C421.097 28.5481 432.727 25.6 445.441 25.6V19.6C431.755 19.6 419.118 22.7852 407.586 29.176L410.495 34.424ZM445.441 25.6C458.155 25.6 469.712 28.548 480.173 34.4164L483.108 29.1836C471.703 22.7853 459.126 19.6 445.441 19.6V25.6ZM480.186 34.424C490.776 40.293 499.045 48.4356 505.038 58.8918L510.243 55.9082C503.703 44.4977 494.639 35.5737 483.095 29.176L480.186 34.424ZM505.052 58.9155C511.16 69.3508 514.241 81.1531 514.241 94.4H520.241C520.241 80.1802 516.921 67.3158 510.23 55.8845L505.052 58.9155ZM514.241 94.4C514.241 107.646 511.16 119.522 505.044 130.098L510.238 133.102C516.921 121.545 520.241 108.62 520.241 94.4H514.241ZM505.052 130.084C498.918 140.563 490.636 148.714 480.173 154.584L483.108 159.816C494.512 153.419 503.563 144.504 510.23 133.116L505.052 130.084ZM480.173 154.584C469.712 160.452 458.155 163.4 445.441 163.4V169.4C459.126 169.4 471.703 166.215 483.108 159.816L480.173 154.584ZM445.441 138.2C457.382 138.2 467.171 134.182 474.478 125.998L470.003 122.002C463.977 128.751 455.899 132.2 445.441 132.2V138.2ZM474.459 126.02C481.865 117.888 485.441 107.245 485.441 94.4H479.441C479.441 106.088 476.216 115.179 470.023 121.98L474.459 126.02ZM485.441 94.4C485.441 81.4335 481.871 70.7734 474.44 62.7602L470.041 66.8398C476.21 73.4932 479.441 82.5665 479.441 94.4H485.441ZM474.478 62.8019C467.171 54.618 457.382 50.6 445.441 50.6V56.6C455.899 56.6 463.977 60.0487 470.003 66.798L474.478 62.8019ZM445.441 50.6C433.395 50.6 423.487 54.5301 416.041 62.5602L420.44 66.6398C426.594 60.0032 434.82 56.6 445.441 56.6V50.6ZM416.021 62.582C408.73 70.6024 405.241 81.3252 405.241 94.4H411.241C411.241 82.4081 414.418 73.2643 420.46 66.618L416.021 62.582ZM405.241 94.4C405.241 107.354 408.736 118.059 416.003 126.198L420.478 122.202C414.412 115.408 411.241 106.246 411.241 94.4H405.241ZM416.041 126.24C423.487 134.27 433.395 138.2 445.441 138.2V132.2C434.82 132.2 426.594 128.797 420.44 122.16L416.041 126.24ZM215.6 194.6L218.503 195.357L219.482 191.6H215.6V194.6ZM179 335V338H181.318L181.903 335.757L179 335ZM137.6 335L134.684 335.707L135.24 338H137.6V335ZM115.2 242.6L118.116 241.893L112.29 241.869L115.2 242.6ZM92 335V338H94.3399L94.9097 335.731L92 335ZM50.6 335L47.692 335.737L48.2657 338H50.6V335ZM15 194.6V191.6H11.1444L12.092 195.337L15 194.6ZM51.6 194.6L54.5431 194.018L54.0651 191.6H51.6V194.6ZM71.8 296.8L68.8569 297.382L74.7141 297.513L71.8 296.8ZM96.8 194.6V191.6H94.4454L93.8859 193.887L96.8 194.6ZM134.4 194.6L137.321 193.914L136.777 191.6H134.4V194.6ZM158.4 296.8L155.479 297.486L161.342 297.387L158.4 296.8ZM178.8 194.6V191.6H176.34L175.858 194.013L178.8 194.6ZM212.697 193.843L176.097 334.243L181.903 335.757L218.503 195.357L212.697 193.843ZM179 332H137.6V338H179V332ZM140.516 334.293L118.116 241.893L112.284 243.307L134.684 335.707L140.516 334.293ZM112.29 241.869L89.0903 334.269L94.9097 335.731L118.11 243.331L112.29 241.869ZM92 332H50.6V338H92V332ZM53.508 334.263L17.908 193.863L12.092 195.337L47.692 335.737L53.508 334.263ZM15 197.6H51.6V191.6H15V197.6ZM48.6569 195.182L68.8569 297.382L74.7431 296.218L54.5431 194.018L48.6569 195.182ZM74.7141 297.513L99.7141 195.313L93.8859 193.887L68.8859 296.087L74.7141 297.513ZM96.8 197.6H134.4V191.6H96.8V197.6ZM131.479 195.286L155.479 297.486L161.321 296.114L137.321 193.914L131.479 195.286ZM161.342 297.387L181.742 195.187L175.858 194.013L155.458 296.213L161.342 297.387ZM178.8 197.6H215.6V191.6H178.8V197.6ZM266.952 222V219H263.952V222H266.952ZM266.952 250.4H263.952V253.4H266.952V250.4ZM312.752 250.4H315.752V247.4H312.752V250.4ZM312.752 276.8V279.8H315.752V276.8H312.752ZM266.952 276.8V273.8H263.952V276.8H266.952ZM266.952 307.6H263.952V310.6H266.952V307.6ZM318.752 307.6H321.752V304.6H318.752V307.6ZM318.752 335V338H321.752V335H318.752ZM232.752 335H229.752V338H232.752V335ZM232.752 194.6V191.6H229.752V194.6H232.752ZM318.752 194.6H321.752V191.6H318.752V194.6ZM318.752 222V225H321.752V222H318.752ZM263.952 222V250.4H269.952V222H263.952ZM266.952 253.4H312.752V247.4H266.952V253.4ZM309.752 250.4V276.8H315.752V250.4H309.752ZM312.752 273.8H266.952V279.8H312.752V273.8ZM263.952 276.8V307.6H269.952V276.8H263.952ZM266.952 310.6H318.752V304.6H266.952V310.6ZM315.752 307.6V335H321.752V307.6H315.752ZM318.752 332H232.752V338H318.752V332ZM235.752 335V194.6H229.752V335H235.752ZM232.752 197.6H318.752V191.6H232.752V197.6ZM315.752 194.6V222H321.752V194.6H315.752ZM318.752 219H266.952V225H318.752V219ZM470.738 310.2L473.579 309.238L472.889 307.2H470.738V310.2ZM418.338 310.2V307.2H416.186L415.496 309.238L418.338 310.2ZM409.938 335V338H412.089L412.779 335.962L409.938 335ZM374.138 335L371.316 333.979L369.862 338H374.138V335ZM424.938 194.6V191.6H422.833L422.116 193.579L424.938 194.6ZM464.538 194.6L467.359 193.579L466.642 191.6H464.538V194.6ZM515.338 335V338H519.613L518.159 333.979L515.338 335ZM479.138 335L476.296 335.962L476.986 338H479.138V335ZM461.938 283.8V286.8H466.12L464.779 282.838L461.938 283.8ZM444.538 232.4L447.379 231.438L444.521 222.995L441.693 231.448L444.538 232.4ZM427.338 283.8L424.493 282.848L423.17 286.8H427.338V283.8ZM470.738 307.2H418.338V313.2H470.738V307.2ZM415.496 309.238L407.096 334.038L412.779 335.962L421.179 311.162L415.496 309.238ZM409.938 332H374.138V338H409.938V332ZM376.959 336.021L427.759 195.621L422.116 193.579L371.316 333.979L376.959 336.021ZM424.938 197.6H464.538V191.6H424.938V197.6ZM461.716 195.621L512.516 336.021L518.159 333.979L467.359 193.579L461.716 195.621ZM515.338 332H479.138V338H515.338V332ZM481.979 334.038L473.579 309.238L467.896 311.162L476.296 335.962L481.979 334.038ZM464.779 282.838L447.379 231.438L441.696 233.362L459.096 284.762L464.779 282.838ZM441.693 231.448L424.493 282.848L430.182 284.752L447.382 233.352L441.693 231.448ZM427.338 286.8H461.938V280.8H427.338V286.8ZM602.398 335L599.771 336.448L600.626 338H602.398V335ZM573.198 282L575.826 280.552L574.971 279H573.198V282ZM564.998 282V279H561.998V282H564.998ZM564.998 335V338H567.998V335H564.998ZM530.798 335H527.798V338H530.798V335ZM530.798 194.6V191.6H527.798V194.6H530.798ZM616.398 200.4L615.057 203.083L615.066 203.088L615.075 203.092L616.398 200.4ZM633.998 216.4L631.391 217.883L631.397 217.894L631.403 217.905L633.998 216.4ZM631.798 263.8L629.372 262.035L629.362 262.05L629.351 262.065L631.798 263.8ZM608.598 279.4L607.74 276.525L604.087 277.617L606.006 280.91L608.598 279.4ZM640.998 335V338H646.219L643.59 333.49L640.998 335ZM564.998 257.8H561.998V260.8H564.998V257.8ZM600.198 253.2L598.123 251.034L598.1 251.056L598.077 251.079L600.198 253.2ZM600.198 227.6L598.077 229.721L598.1 229.744L598.123 229.766L600.198 227.6ZM564.998 223V220H561.998V223H564.998ZM605.026 333.552L575.826 280.552L570.571 283.448L599.771 336.448L605.026 333.552ZM573.198 279H564.998V285H573.198V279ZM561.998 282V335H567.998V282H561.998ZM564.998 332H530.798V338H564.998V332ZM533.798 335V194.6H527.798V335H533.798ZM530.798 197.6H588.198V191.6H530.798V197.6ZM588.198 197.6C598.926 197.6 607.84 199.475 615.057 203.083L617.74 197.717C609.49 193.592 599.604 191.6 588.198 191.6V197.6ZM615.075 203.092C622.47 206.727 627.856 211.667 631.391 217.883L636.606 214.917C632.407 207.532 626.061 201.806 617.722 197.708L615.075 203.092ZM631.403 217.905C634.986 224.081 636.798 231.022 636.798 238.8H642.798C642.798 230.044 640.745 222.052 636.594 214.895L631.403 217.905ZM636.798 238.8C636.798 247.519 634.321 255.231 629.372 262.035L634.225 265.565C639.942 257.703 642.798 248.747 642.798 238.8H636.798ZM629.351 262.065C624.609 268.752 617.492 273.612 607.74 276.525L609.457 282.274C620.238 279.054 628.588 273.515 634.246 265.535L629.351 262.065ZM606.006 280.91L638.406 336.51L643.59 333.49L611.19 277.89L606.006 280.91ZM640.998 332H602.398V338H640.998V332ZM564.998 260.8H586.198V254.8H564.998V260.8ZM586.198 260.8C592.906 260.8 598.481 259.16 602.32 255.321L598.077 251.079C595.782 253.374 592.024 254.8 586.198 254.8V260.8ZM602.274 255.366C606.211 251.593 607.998 246.389 607.998 240.2H601.998C601.998 245.211 600.586 248.674 598.123 251.034L602.274 255.366ZM607.998 240.2C607.998 234.228 606.182 229.179 602.274 225.434L598.123 229.766C600.614 232.154 601.998 235.505 601.998 240.2H607.998ZM602.32 225.479C598.481 221.64 592.906 220 586.198 220V226C592.024 226 595.782 227.426 598.077 229.721L602.32 225.479ZM586.198 220H564.998V226H586.198V220ZM561.998 223V257.8H567.998V223H561.998ZM695.467 222V219H692.467V222H695.467ZM695.467 250.4H692.467V253.4H695.467V250.4ZM741.267 250.4H744.267V247.4H741.267V250.4ZM741.267 276.8V279.8H744.267V276.8H741.267ZM695.467 276.8V273.8H692.467V276.8H695.467ZM695.467 307.6H692.467V310.6H695.467V307.6ZM747.267 307.6H750.267V304.6H747.267V307.6ZM747.267 335V338H750.267V335H747.267ZM661.267 335H658.267V338H661.267V335ZM661.267 194.6V191.6H658.267V194.6H661.267ZM747.267 194.6H750.267V191.6H747.267V194.6ZM747.267 222V225H750.267V222H747.267ZM692.467 222V250.4H698.467V222H692.467ZM695.467 253.4H741.267V247.4H695.467V253.4ZM738.267 250.4V276.8H744.267V250.4H738.267ZM741.267 273.8H695.467V279.8H741.267V273.8ZM692.467 276.8V307.6H698.467V276.8H692.467ZM695.467 310.6H747.267V304.6H695.467V310.6ZM744.267 307.6V335H750.267V307.6H744.267ZM747.267 332H661.267V338H747.267V332ZM664.267 335V194.6H658.267V335H664.267ZM661.267 197.6H747.267V191.6H661.267V197.6ZM744.267 194.6V222H750.267V194.6H744.267ZM747.267 219H695.467V225H747.267V219ZM844.67 198L842.695 200.258L842.703 200.265L842.712 200.273L844.67 198ZM845.27 259L847.217 261.283L847.22 261.28L845.27 259ZM812.87 269.6L812.841 266.6L810.062 266.628L809.877 269.4L812.87 269.6ZM811.87 284.6V287.6H814.677L814.864 284.8L811.87 284.6ZM781.87 284.6L778.871 284.681L778.95 287.6H781.87V284.6ZM780.87 247.4V244.4H777.789L777.871 247.481L780.87 247.4ZM816.27 243.6L815.009 240.878L814.996 240.884L814.983 240.89L816.27 243.6ZM820.67 218.8L822.845 216.734L822.845 216.734L820.67 218.8ZM798.87 219L800.992 221.121L801.018 221.095L801.043 221.069L798.87 219ZM794.87 230V233H797.87V230H794.87ZM762.67 230L759.672 230.098L759.767 233H762.67V230ZM767.67 208L765.066 206.512L765.054 206.532L765.043 206.552L767.67 208ZM784.07 192.6L785.451 195.263L785.46 195.259L785.47 195.254L784.07 192.6ZM782.47 331.4L780.388 333.56L780.427 333.597L780.468 333.634L782.47 331.4ZM782.47 304.8L780.426 302.604L780.407 302.622L780.388 302.64L782.47 304.8ZM811.67 304.8L809.588 306.96L809.607 306.978L809.626 306.996L811.67 304.8ZM811.67 331.4L813.712 333.598L813.715 333.596L811.67 331.4ZM810.47 189.8C824.204 189.8 834.838 193.383 842.695 200.258L846.646 195.742C837.435 187.683 825.27 183.8 810.47 183.8V189.8ZM842.712 200.273C850.591 207.061 854.67 216.692 854.67 229.6H860.67C860.67 215.308 856.083 203.872 846.628 195.727L842.712 200.273ZM854.67 229.6C854.67 241.405 850.816 250.313 843.321 256.72L847.22 261.28C856.258 253.554 860.67 242.862 860.67 229.6H854.67ZM843.324 256.717C835.853 263.086 825.792 266.472 812.841 266.6L812.9 272.6C826.882 272.461 838.421 268.781 847.217 261.283L843.324 256.717ZM809.877 269.4L808.877 284.4L814.864 284.8L815.864 269.8L809.877 269.4ZM811.87 281.6H781.87V287.6H811.87V281.6ZM784.869 284.519L783.869 247.319L777.871 247.481L778.871 284.681L784.869 284.519ZM780.87 250.4H792.87V244.4H780.87V250.4ZM792.87 250.4C803.3 250.4 811.627 249.127 817.557 246.31L814.983 240.89C810.247 243.14 802.974 244.4 792.87 244.4V250.4ZM817.532 246.322C820.742 244.834 823.285 242.667 824.999 239.782C826.702 236.917 827.47 233.541 827.47 229.8H821.47C821.47 232.725 820.872 234.983 819.841 236.718C818.822 238.433 817.265 239.833 815.009 240.878L817.532 246.322ZM827.47 229.8C827.47 224.58 826.04 220.097 822.845 216.734L818.495 220.866C820.367 222.837 821.47 225.687 821.47 229.8H827.47ZM822.845 216.734C819.619 213.337 815.221 211.8 810.07 211.8V217.8C813.986 217.8 816.655 218.929 818.495 220.866L822.845 216.734ZM810.07 211.8C804.661 211.8 800.062 213.399 796.698 216.931L801.043 221.069C803.012 219.001 805.88 217.8 810.07 217.8V211.8ZM796.749 216.879C793.392 220.235 791.87 224.738 791.87 230H797.87C797.87 225.929 799.015 223.098 800.992 221.121L796.749 216.879ZM794.87 227H762.67V233H794.87V227ZM765.669 229.902C765.418 222.257 766.982 215.466 770.298 209.448L765.043 206.552C761.159 213.601 759.389 221.476 759.672 230.098L765.669 229.902ZM770.275 209.488C773.7 203.495 778.722 198.752 785.451 195.263L782.689 189.937C775.019 193.914 769.108 199.438 765.066 206.512L770.275 209.488ZM785.47 195.254C792.281 191.662 800.577 189.8 810.47 189.8V183.8C799.83 183.8 790.527 185.804 782.671 189.946L785.47 195.254ZM797.27 333.6C791.887 333.6 787.705 332.064 784.473 329.166L780.468 333.634C784.969 337.67 790.654 339.6 797.27 339.6V333.6ZM784.553 329.24C781.407 326.208 779.87 322.588 779.87 318.2H773.87C773.87 324.212 776.066 329.392 780.388 333.56L784.553 329.24ZM779.87 318.2C779.87 313.655 781.424 309.976 784.553 306.96L780.388 302.64C776.05 306.824 773.87 312.078 773.87 318.2H779.87ZM784.515 306.996C787.75 303.983 791.918 302.4 797.27 302.4V296.4C790.623 296.4 784.924 298.417 780.426 302.604L784.515 306.996ZM797.27 302.4C802.471 302.4 806.488 303.971 809.588 306.96L813.753 302.64C809.385 298.429 803.803 296.4 797.27 296.4V302.4ZM809.626 306.996C812.877 310.022 814.47 313.69 814.47 318.2H820.47C820.47 312.043 818.197 306.778 813.715 302.604L809.626 306.996ZM814.47 318.2C814.47 322.552 812.894 326.162 809.626 329.204L813.715 333.596C818.18 329.438 820.47 324.248 820.47 318.2H814.47ZM809.629 329.202C806.535 332.075 802.503 333.6 797.27 333.6V339.6C803.771 339.6 809.339 337.658 813.712 333.598L809.629 329.202Z" fill="#4d4e52" fill-opacity="0.84"/>
</g>
</svg>
