<svg width="714" height="360" viewBox="0 0 714 360" fill="none" xmlns="http://www.w3.org/2000/svg">
<g opacity="0.2">
<path d="M195.04 31.64L162.1 158H124.84L104.68 74.84L83.8 158H46.54L14.5 31.64H47.44L65.62 123.62L88.12 31.64H121.96L143.56 123.62L161.92 31.64H195.04ZM319.916 31.64V158H289.136V105.98H241.256V158H210.476V31.64H241.256V81.14H289.136V31.64H319.916ZM420.797 135.68H373.637L366.077 158H333.857L379.577 31.64H415.217L460.937 158H428.357L420.797 135.68ZM412.877 111.92L397.217 65.66L381.737 111.92H412.877ZM565.751 31.64V56.3H532.271V158H501.491V56.3H468.011V31.64H565.751ZM195.04 201.64L162.1 328H124.84L104.68 244.84L83.8 328H46.54L14.5 201.64H47.44L65.62 293.62L88.12 201.64H121.96L143.56 293.62L161.92 201.64H195.04ZM241.256 226.3V251.86H282.476V275.62H241.256V303.34H287.876V328H210.476V201.64H287.876V226.3H241.256ZM393.344 201.64C406.664 201.64 418.304 204.28 428.264 209.56C438.224 214.84 445.904 222.28 451.304 231.88C456.824 241.36 459.584 252.34 459.584 264.82C459.584 277.18 456.824 288.16 451.304 297.76C445.904 307.36 438.164 314.8 428.084 320.08C418.124 325.36 406.544 328 393.344 328H346.004V201.64H393.344ZM391.364 301.36C403.004 301.36 412.064 298.18 418.544 291.82C425.024 285.46 428.264 276.46 428.264 264.82C428.264 253.18 425.024 244.12 418.544 237.64C412.064 231.16 403.004 227.92 391.364 227.92H376.784V301.36H391.364ZM536.545 329.26C524.665 329.26 513.745 326.5 503.785 320.98C493.945 315.46 486.085 307.78 480.205 297.94C474.445 287.98 471.565 276.82 471.565 264.46C471.565 252.1 474.445 241 480.205 231.16C486.085 221.32 493.945 213.64 503.785 208.12C513.745 202.6 524.665 199.84 536.545 199.84C548.425 199.84 559.285 202.6 569.125 208.12C579.085 213.64 586.885 221.32 592.525 231.16C598.285 241 601.165 252.1 601.165 264.46C601.165 276.82 598.285 287.98 592.525 297.94C586.765 307.78 578.965 315.46 569.125 320.98C559.285 326.5 548.425 329.26 536.545 329.26ZM536.545 301.18C546.625 301.18 554.665 297.82 560.665 291.1C566.785 284.38 569.845 275.5 569.845 264.46C569.845 253.3 566.785 244.42 560.665 237.82C554.665 231.1 546.625 227.74 536.545 227.74C526.345 227.74 518.185 231.04 512.065 237.64C506.065 244.24 503.065 253.18 503.065 264.46C503.065 275.62 506.065 284.56 512.065 291.28C518.185 297.88 526.345 301.18 536.545 301.18ZM655.189 194.62C668.029 194.62 678.289 197.98 685.969 204.7C693.769 211.42 697.669 220.9 697.669 233.14C697.669 244.42 693.949 253.24 686.509 259.6C679.189 265.84 669.469 269.02 657.349 269.14L656.449 282.64H629.449L628.549 249.16H639.349C648.589 249.16 655.609 248.02 660.409 245.74C665.329 243.46 667.789 239.32 667.789 233.32C667.789 229.12 666.649 225.82 664.369 223.42C662.089 221.02 658.909 219.82 654.829 219.82C650.509 219.82 647.149 221.08 644.749 223.6C642.349 226 641.149 229.3 641.149 233.5H612.169C611.929 226.18 613.429 219.58 616.669 213.7C620.029 207.82 624.949 203.2 631.429 199.84C638.029 196.36 645.949 194.62 655.189 194.62ZM643.309 329.44C637.909 329.44 633.469 327.88 629.989 324.76C626.629 321.52 624.949 317.56 624.949 312.88C624.949 308.08 626.629 304.06 629.989 300.82C633.469 297.58 637.909 295.96 643.309 295.96C648.589 295.96 652.909 297.58 656.269 300.82C659.749 304.06 661.489 308.08 661.489 312.88C661.489 317.56 659.749 321.52 656.269 324.76C652.909 327.88 648.589 329.44 643.309 329.44Z" fill="white"/>
<path d="M195.04 31.64L197.943 32.3968L198.922 28.64H195.04V31.64ZM162.1 158V161H164.418L165.003 158.757L162.1 158ZM124.84 158L121.924 158.707L122.48 161H124.84V158ZM104.68 74.84L107.596 74.1332L101.77 74.1094L104.68 74.84ZM83.8 158V161H86.1399L86.7097 158.731L83.8 158ZM46.54 158L43.632 158.737L44.2057 161H46.54V158ZM14.5 31.64V28.64H10.6444L11.592 32.3773L14.5 31.64ZM47.44 31.64L50.3831 31.0583L49.9051 28.64H47.44V31.64ZM65.62 123.62L62.6769 124.202L68.5341 124.333L65.62 123.62ZM88.12 31.64V28.64H85.7654L85.2059 30.9272L88.12 31.64ZM121.96 31.64L124.881 30.9542L124.337 28.64H121.96V31.64ZM143.56 123.62L140.639 124.306L146.502 124.207L143.56 123.62ZM161.92 31.64V28.64H159.46L158.978 31.0528L161.92 31.64ZM192.137 30.8832L159.197 157.243L165.003 158.757L197.943 32.3968L192.137 30.8832ZM162.1 155H124.84V161H162.1V155ZM127.756 157.293L107.596 74.1332L101.764 75.5468L121.924 158.707L127.756 157.293ZM101.77 74.1094L80.8903 157.269L86.7097 158.731L107.59 75.5706L101.77 74.1094ZM83.8 155H46.54V161H83.8V155ZM49.448 157.263L17.408 30.9026L11.592 32.3773L43.632 158.737L49.448 157.263ZM14.5 34.64H47.44V28.64H14.5V34.64ZM44.4969 32.2217L62.6769 124.202L68.5631 123.038L50.3831 31.0583L44.4969 32.2217ZM68.5341 124.333L91.0341 32.3528L85.2059 30.9272L62.7059 122.907L68.5341 124.333ZM88.12 34.64H121.96V28.64H88.12V34.64ZM119.039 32.3258L140.639 124.306L146.481 122.934L124.881 30.9542L119.039 32.3258ZM146.502 124.207L164.862 32.2272L158.978 31.0528L140.618 123.033L146.502 124.207ZM161.92 34.64H195.04V28.64H161.92V34.64ZM319.916 31.64H322.916V28.64H319.916V31.64ZM319.916 158V161H322.916V158H319.916ZM289.136 158H286.136V161H289.136V158ZM289.136 105.98H292.136V102.98H289.136V105.98ZM241.256 105.98V102.98H238.256V105.98H241.256ZM241.256 158V161H244.256V158H241.256ZM210.476 158H207.476V161H210.476V158ZM210.476 31.64V28.64H207.476V31.64H210.476ZM241.256 31.64H244.256V28.64H241.256V31.64ZM241.256 81.14H238.256V84.14H241.256V81.14ZM289.136 81.14V84.14H292.136V81.14H289.136ZM289.136 31.64V28.64H286.136V31.64H289.136ZM316.916 31.64V158H322.916V31.64H316.916ZM319.916 155H289.136V161H319.916V155ZM292.136 158V105.98H286.136V158H292.136ZM289.136 102.98H241.256V108.98H289.136V102.98ZM238.256 105.98V158H244.256V105.98H238.256ZM241.256 155H210.476V161H241.256V155ZM213.476 158V31.64H207.476V158H213.476ZM210.476 34.64H241.256V28.64H210.476V34.64ZM238.256 31.64V81.14H244.256V31.64H238.256ZM241.256 84.14H289.136V78.14H241.256V84.14ZM292.136 81.14V31.64H286.136V81.14H292.136ZM289.136 34.64H319.916V28.64H289.136V34.64ZM420.797 135.68L423.638 134.718L422.948 132.68H420.797V135.68ZM373.637 135.68V132.68H371.485L370.795 134.718L373.637 135.68ZM366.077 158V161H368.228L368.918 158.962L366.077 158ZM333.857 158L331.036 156.979L329.581 161H333.857V158ZM379.577 31.64V28.64H377.472L376.756 30.6193L379.577 31.64ZM415.217 31.64L418.038 30.6193L417.321 28.64H415.217V31.64ZM460.937 158V161H465.212L463.758 156.979L460.937 158ZM428.357 158L425.515 158.962L426.205 161H428.357V158ZM412.877 111.92V114.92H417.059L415.718 110.958L412.877 111.92ZM397.217 65.66L400.058 64.6981L397.2 56.2554L394.372 64.708L397.217 65.66ZM381.737 111.92L378.892 110.968L377.569 114.92H381.737V111.92ZM420.797 132.68H373.637V138.68H420.797V132.68ZM370.795 134.718L363.235 157.038L368.918 158.962L376.478 136.642L370.795 134.718ZM366.077 155H333.857V161H366.077V155ZM336.678 159.021L382.398 32.6607L376.756 30.6193L331.036 156.979L336.678 159.021ZM379.577 34.64H415.217V28.64H379.577V34.64ZM412.396 32.6607L458.116 159.021L463.758 156.979L418.038 30.6193L412.396 32.6607ZM460.937 155H428.357V161H460.937V155ZM431.198 157.038L423.638 134.718L417.955 136.642L425.515 158.962L431.198 157.038ZM415.718 110.958L400.058 64.6981L394.375 66.6219L410.035 112.882L415.718 110.958ZM394.372 64.708L378.892 110.968L384.582 112.872L400.062 66.612L394.372 64.708ZM381.737 114.92H412.877V108.92H381.737V114.92ZM565.751 31.64H568.751V28.64H565.751V31.64ZM565.751 56.3V59.3H568.751V56.3H565.751ZM532.271 56.3V53.3H529.271V56.3H532.271ZM532.271 158V161H535.271V158H532.271ZM501.491 158H498.491V161H501.491V158ZM501.491 56.3H504.491V53.3H501.491V56.3ZM468.011 56.3H465.011V59.3H468.011V56.3ZM468.011 31.64V28.64H465.011V31.64H468.011ZM562.751 31.64V56.3H568.751V31.64H562.751ZM565.751 53.3H532.271V59.3H565.751V53.3ZM529.271 56.3V158H535.271V56.3H529.271ZM532.271 155H501.491V161H532.271V155ZM504.491 158V56.3H498.491V158H504.491ZM501.491 53.3H468.011V59.3H501.491V53.3ZM471.011 56.3V31.64H465.011V56.3H471.011ZM468.011 34.64H565.751V28.64H468.011V34.64ZM195.04 201.64L197.943 202.397L198.922 198.64H195.04V201.64ZM162.1 328V331H164.418L165.003 328.757L162.1 328ZM124.84 328L121.924 328.707L122.48 331H124.84V328ZM104.68 244.84L107.596 244.133L101.77 244.109L104.68 244.84ZM83.8 328V331H86.1399L86.7097 328.731L83.8 328ZM46.54 328L43.632 328.737L44.2057 331H46.54V328ZM14.5 201.64V198.64H10.6444L11.592 202.377L14.5 201.64ZM47.44 201.64L50.3831 201.058L49.9051 198.64H47.44V201.64ZM65.62 293.62L62.6769 294.202L68.5341 294.333L65.62 293.62ZM88.12 201.64V198.64H85.7654L85.2059 200.927L88.12 201.64ZM121.96 201.64L124.881 200.954L124.337 198.64H121.96V201.64ZM143.56 293.62L140.639 294.306L146.502 294.207L143.56 293.62ZM161.92 201.64V198.64H159.46L158.978 201.053L161.92 201.64ZM192.137 200.883L159.197 327.243L165.003 328.757L197.943 202.397L192.137 200.883ZM162.1 325H124.84V331H162.1V325ZM127.756 327.293L107.596 244.133L101.764 245.547L121.924 328.707L127.756 327.293ZM101.77 244.109L80.8903 327.269L86.7097 328.731L107.59 245.571L101.77 244.109ZM83.8 325H46.54V331H83.8V325ZM49.448 327.263L17.408 200.903L11.592 202.377L43.632 328.737L49.448 327.263ZM14.5 204.64H47.44V198.64H14.5V204.64ZM44.4969 202.222L62.6769 294.202L68.5631 293.038L50.3831 201.058L44.4969 202.222ZM68.5341 294.333L91.0341 202.353L85.2059 200.927L62.7059 292.907L68.5341 294.333ZM88.12 204.64H121.96V198.64H88.12V204.64ZM119.039 202.326L140.639 294.306L146.481 292.934L124.881 200.954L119.039 202.326ZM146.502 294.207L164.862 202.227L158.978 201.053L140.618 293.033L146.502 294.207ZM161.92 204.64H195.04V198.64H161.92V204.64ZM241.256 226.3V223.3H238.256V226.3H241.256ZM241.256 251.86H238.256V254.86H241.256V251.86ZM282.476 251.86H285.476V248.86H282.476V251.86ZM282.476 275.62V278.62H285.476V275.62H282.476ZM241.256 275.62V272.62H238.256V275.62H241.256ZM241.256 303.34H238.256V306.34H241.256V303.34ZM287.876 303.34H290.876V300.34H287.876V303.34ZM287.876 328V331H290.876V328H287.876ZM210.476 328H207.476V331H210.476V328ZM210.476 201.64V198.64H207.476V201.64H210.476ZM287.876 201.64H290.876V198.64H287.876V201.64ZM287.876 226.3V229.3H290.876V226.3H287.876ZM238.256 226.3V251.86H244.256V226.3H238.256ZM241.256 254.86H282.476V248.86H241.256V254.86ZM279.476 251.86V275.62H285.476V251.86H279.476ZM282.476 272.62H241.256V278.62H282.476V272.62ZM238.256 275.62V303.34H244.256V275.62H238.256ZM241.256 306.34H287.876V300.34H241.256V306.34ZM284.876 303.34V328H290.876V303.34H284.876ZM287.876 325H210.476V331H287.876V325ZM213.476 328V201.64H207.476V328H213.476ZM210.476 204.64H287.876V198.64H210.476V204.64ZM284.876 201.64V226.3H290.876V201.64H284.876ZM287.876 223.3H241.256V229.3H287.876V223.3ZM428.264 209.56L429.669 206.909L429.669 206.909L428.264 209.56ZM451.304 231.88L448.689 233.351L448.7 233.37L448.711 233.39L451.304 231.88ZM451.304 297.76L448.703 296.265L448.696 296.277L448.689 296.289L451.304 297.76ZM428.084 320.08L426.692 317.423L426.685 317.426L426.679 317.429L428.084 320.08ZM346.004 328H343.004V331H346.004V328ZM346.004 201.64V198.64H343.004V201.64H346.004ZM376.784 227.92V224.92H373.784V227.92H376.784ZM376.784 301.36H373.784V304.36H376.784V301.36ZM393.344 204.64C406.263 204.64 417.404 207.198 426.859 212.211L429.669 206.909C419.204 201.362 407.065 198.64 393.344 198.64V204.64ZM426.859 212.211C436.323 217.228 443.578 224.264 448.689 233.351L453.918 230.409C448.23 220.296 440.124 212.452 429.669 206.909L426.859 212.211ZM448.711 233.39C453.929 242.351 456.584 252.796 456.584 264.82H462.584C462.584 251.884 459.718 240.369 453.896 230.37L448.711 233.39ZM456.584 264.82C456.584 276.718 453.932 287.171 448.703 296.265L453.904 299.255C459.715 289.149 462.584 277.642 462.584 264.82H456.584ZM448.689 296.289C443.583 305.366 436.276 312.402 426.692 317.423L429.476 322.737C440.052 317.198 448.224 309.354 453.918 299.231L448.689 296.289ZM426.679 317.429C417.22 322.444 406.138 325 393.344 325V331C406.95 331 419.028 328.276 429.489 322.731L426.679 317.429ZM393.344 325H346.004V331H393.344V325ZM349.004 328V201.64H343.004V328H349.004ZM346.004 204.64H393.344V198.64H346.004V204.64ZM391.364 304.36C403.558 304.36 413.458 301.015 420.645 293.961L416.442 289.679C410.669 295.345 402.449 298.36 391.364 298.36V304.36ZM420.645 293.961C427.85 286.889 431.264 277.027 431.264 264.82H425.264C425.264 275.893 422.197 284.031 416.442 289.679L420.645 293.961ZM431.264 264.82C431.264 252.61 427.849 242.703 420.665 235.519L416.422 239.761C422.198 245.537 425.264 253.75 425.264 264.82H431.264ZM420.665 235.519C413.481 228.334 403.574 224.92 391.364 224.92V230.92C402.434 230.92 410.647 233.986 416.422 239.761L420.665 235.519ZM391.364 224.92H376.784V230.92H391.364V224.92ZM373.784 227.92V301.36H379.784V227.92H373.784ZM376.784 304.36H391.364V298.36H376.784V304.36ZM503.785 320.98L502.317 323.596L502.324 323.6L502.331 323.604L503.785 320.98ZM480.205 297.94L477.608 299.442L477.619 299.46L477.63 299.479L480.205 297.94ZM480.205 231.16L477.63 229.621L477.623 229.633L477.616 229.644L480.205 231.16ZM503.785 208.12L502.331 205.496L502.324 205.5L502.317 205.504L503.785 208.12ZM569.125 208.12L567.657 210.736L567.664 210.74L567.671 210.744L569.125 208.12ZM592.525 231.16L589.922 232.652L589.929 232.664L589.936 232.676L592.525 231.16ZM592.525 297.94L595.114 299.456L595.118 299.449L595.122 299.442L592.525 297.94ZM569.125 320.98L570.593 323.596L570.593 323.596L569.125 320.98ZM560.665 291.1L558.447 289.08L558.437 289.091L558.427 289.102L560.665 291.1ZM560.665 237.82L558.427 239.818L558.446 239.839L558.465 239.86L560.665 237.82ZM512.065 237.64L509.865 235.6L509.855 235.611L509.845 235.622L512.065 237.64ZM512.065 291.28L509.827 293.278L509.846 293.299L509.865 293.32L512.065 291.28ZM536.545 326.26C525.151 326.26 514.735 323.619 505.239 318.356L502.331 323.604C512.755 329.381 524.179 332.26 536.545 332.26V326.26ZM505.253 318.364C495.877 313.104 488.396 305.799 482.78 296.401L477.63 299.479C483.774 309.761 492.013 317.816 502.317 323.596L505.253 318.364ZM482.802 296.438C477.326 286.968 474.565 276.333 474.565 264.46H468.565C468.565 277.307 471.564 288.992 477.608 299.442L482.802 296.438ZM474.565 264.46C474.565 252.586 477.326 242.017 482.794 232.676L477.616 229.644C471.564 239.983 468.565 251.614 468.565 264.46H474.565ZM482.78 232.699C488.396 223.301 495.877 215.996 505.253 210.736L502.317 205.504C492.013 211.284 483.774 219.339 477.63 229.621L482.78 232.699ZM505.239 210.744C514.735 205.481 525.151 202.84 536.545 202.84V196.84C524.179 196.84 512.755 199.719 502.331 205.496L505.239 210.744ZM536.545 202.84C547.939 202.84 558.29 205.481 567.657 210.736L570.593 205.504C560.28 199.719 548.911 196.84 536.545 196.84V202.84ZM567.671 210.744C577.154 216 584.556 223.289 589.922 232.652L595.128 229.668C589.214 219.351 581.016 211.28 570.579 205.496L567.671 210.744ZM589.936 232.676C595.404 242.017 598.165 252.586 598.165 264.46H604.165C604.165 251.614 601.166 239.983 595.114 229.644L589.936 232.676ZM598.165 264.46C598.165 276.333 595.404 286.968 589.928 296.438L595.122 299.442C601.166 288.992 604.165 277.307 604.165 264.46H598.165ZM589.936 296.424C584.442 305.81 577.027 313.107 567.657 318.364L570.593 323.596C580.903 317.813 589.088 309.75 595.114 299.456L589.936 296.424ZM567.657 318.364C558.29 323.619 547.939 326.26 536.545 326.26V332.26C548.911 332.26 560.28 329.381 570.593 323.596L567.657 318.364ZM536.545 304.18C547.366 304.18 556.262 300.535 562.903 293.098L558.427 289.102C553.068 295.105 545.884 298.18 536.545 298.18V304.18ZM562.883 293.12C569.609 285.734 572.845 276.079 572.845 264.46H566.845C566.845 274.921 563.961 283.026 558.447 289.08L562.883 293.12ZM572.845 264.46C572.845 252.734 569.615 243.06 562.865 235.78L558.465 239.86C563.955 245.78 566.845 253.866 566.845 264.46H572.845ZM562.903 235.822C556.262 228.385 547.366 224.74 536.545 224.74V230.74C545.884 230.74 553.068 233.815 558.427 239.818L562.903 235.822ZM536.545 224.74C525.633 224.74 516.631 228.303 509.865 235.6L514.265 239.68C519.739 233.777 527.057 230.74 536.545 230.74V224.74ZM509.845 235.622C503.221 242.909 500.065 252.639 500.065 264.46H506.065C506.065 253.721 508.909 245.571 514.285 239.658L509.845 235.622ZM500.065 264.46C500.065 276.174 503.227 285.885 509.827 293.278L514.303 289.282C508.903 283.235 506.065 275.066 506.065 264.46H500.065ZM509.865 293.32C516.631 300.617 525.633 304.18 536.545 304.18V298.18C527.057 298.18 519.739 295.143 514.265 289.24L509.865 293.32ZM685.969 204.7L683.993 206.958L684.002 206.965L684.011 206.973L685.969 204.7ZM686.509 259.6L688.455 261.883L688.458 261.88L686.509 259.6ZM657.349 269.14L657.319 266.14L654.54 266.168L654.356 268.94L657.349 269.14ZM656.449 282.64V285.64H659.256L659.442 282.84L656.449 282.64ZM629.449 282.64L626.45 282.721L626.528 285.64H629.449V282.64ZM628.549 249.16V246.16H625.467L625.55 249.241L628.549 249.16ZM660.409 245.74L659.148 243.018L659.135 243.024L659.122 243.03L660.409 245.74ZM644.749 223.6L646.87 225.721L646.896 225.695L646.921 225.669L644.749 223.6ZM641.149 233.5V236.5H644.149V233.5H641.149ZM612.169 233.5L609.171 233.598L609.266 236.5H612.169V233.5ZM616.669 213.7L614.064 212.212L614.053 212.232L614.041 212.252L616.669 213.7ZM631.429 199.84L632.81 202.503L632.819 202.499L632.828 202.494L631.429 199.84ZM629.989 324.76L627.907 326.92L627.946 326.957L627.986 326.994L629.989 324.76ZM629.989 300.82L627.945 298.624L627.925 298.642L627.907 298.66L629.989 300.82ZM656.269 300.82L654.186 302.98L654.205 302.998L654.225 303.016L656.269 300.82ZM656.269 324.76L658.31 326.958L658.313 326.956L656.269 324.76ZM655.189 197.62C667.496 197.62 676.99 200.83 683.993 206.958L687.944 202.442C679.587 195.13 668.562 191.62 655.189 191.62V197.62ZM684.011 206.973C691.023 213.014 694.669 221.592 694.669 233.14H700.669C700.669 220.208 696.515 209.826 687.927 202.427L684.011 206.973ZM694.669 233.14C694.669 243.692 691.227 251.62 684.56 257.32L688.458 261.88C696.67 254.86 700.669 245.148 700.669 233.14H694.669ZM684.563 257.317C677.905 262.992 668.924 266.025 657.319 266.14L657.379 272.14C670.014 272.015 680.473 268.688 688.455 261.883L684.563 257.317ZM654.356 268.94L653.456 282.44L659.442 282.84L660.342 269.34L654.356 268.94ZM656.449 279.64H629.449V285.64H656.449V279.64ZM632.448 282.559L631.548 249.079L625.55 249.241L626.45 282.721L632.448 282.559ZM628.549 252.16H639.349V246.16H628.549V252.16ZM639.349 252.16C648.752 252.16 656.299 251.013 661.696 248.45L659.122 243.03C654.918 245.027 648.426 246.16 639.349 246.16V252.16ZM661.67 248.462C664.608 247.101 666.946 245.112 668.523 242.457C670.089 239.822 670.789 236.728 670.789 233.32H664.789C664.789 235.912 664.259 237.888 663.365 239.393C662.482 240.878 661.13 242.099 659.148 243.018L661.67 248.462ZM670.789 233.32C670.789 228.566 669.485 224.45 666.544 221.354L662.194 225.486C663.812 227.19 664.789 229.673 664.789 233.32H670.789ZM666.544 221.354C663.571 218.224 659.527 216.82 654.829 216.82V222.82C658.291 222.82 660.607 223.816 662.194 225.486L666.544 221.354ZM654.829 216.82C649.899 216.82 645.674 218.279 642.576 221.531L646.921 225.669C648.624 223.881 651.118 222.82 654.829 222.82V216.82ZM642.628 221.479C639.538 224.569 638.149 228.705 638.149 233.5H644.149C644.149 229.895 645.16 227.431 646.87 225.721L642.628 221.479ZM641.149 230.5H612.169V236.5H641.149V230.5ZM615.167 233.402C614.943 226.57 616.34 220.513 619.296 215.148L614.041 212.252C610.518 218.647 608.914 225.79 609.171 233.598L615.167 233.402ZM619.274 215.188C622.325 209.849 626.801 205.619 632.81 202.503L630.048 197.177C623.097 200.781 617.733 205.791 614.064 212.212L619.274 215.188ZM632.828 202.494C638.906 199.289 646.322 197.62 655.189 197.62V191.62C645.576 191.62 637.152 193.431 630.03 197.186L632.828 202.494ZM643.309 326.44C638.526 326.44 634.836 325.077 631.992 322.526L627.986 326.994C632.101 330.683 637.292 332.44 643.309 332.44V326.44ZM632.071 322.6C629.299 319.928 627.949 316.748 627.949 312.88H621.949C621.949 318.372 623.958 323.112 627.907 326.92L632.071 322.6ZM627.949 312.88C627.949 308.869 629.316 305.636 632.071 302.98L627.907 298.66C623.942 302.484 621.949 307.291 621.949 312.88H627.949ZM632.033 303.016C634.882 300.363 638.557 298.96 643.309 298.96V292.96C637.261 292.96 632.056 294.797 627.945 298.624L632.033 303.016ZM643.309 298.96C647.923 298.96 651.46 300.351 654.186 302.98L658.351 298.66C654.357 294.809 649.255 292.96 643.309 292.96V298.96ZM654.225 303.016C657.089 305.682 658.489 308.904 658.489 312.88H664.489C664.489 307.256 662.409 302.438 658.313 298.624L654.225 303.016ZM658.489 312.88C658.489 316.712 657.106 319.882 654.225 322.564L658.313 326.956C662.392 323.158 664.489 318.408 664.489 312.88H658.489ZM654.228 322.562C651.506 325.088 647.955 326.44 643.309 326.44V332.44C649.223 332.44 654.311 330.672 658.31 326.958L654.228 322.562Z" fill="#4d4e52" fill-opacity="0.84"/>
</g>
</svg>
