<svg width="782" height="360" viewBox="0 0 782 360" fill="none" xmlns="http://www.w3.org/2000/svg">
<g opacity="0.2">
<path d="M88.8 166.4C75.6 166.4 63.4667 163.333 52.4 157.2C41.4667 151.067 32.7333 142.533 26.2 131.6C19.8 120.533 16.6 108.133 16.6 94.4C16.6 80.6667 19.8 68.3333 26.2 57.4C32.7333 46.4667 41.4667 37.9333 52.4 31.8C63.4667 25.6667 75.6 22.6 88.8 22.6C102 22.6 114.067 25.6667 125 31.8C136.067 37.9333 144.733 46.4667 151 57.4C157.4 68.3333 160.6 80.6667 160.6 94.4C160.6 108.133 157.4 120.533 151 131.6C144.6 142.533 135.933 151.067 125 157.2C114.067 163.333 102 166.4 88.8 166.4ZM88.8 135.2C100 135.2 108.933 131.467 115.6 124C122.4 116.533 125.8 106.667 125.8 94.4C125.8 82 122.4 72.1333 115.6 64.8C108.933 57.3333 100 53.6 88.8 53.6C77.4667 53.6 68.4 57.2667 61.6 64.6C54.9333 71.9333 51.6 81.8667 51.6 94.4C51.6 106.8 54.9333 116.733 61.6 124.2C68.4 131.533 77.4667 135.2 88.8 135.2ZM213.227 24.6V108.6C213.227 117 215.293 123.467 219.427 128C223.56 132.533 229.627 134.8 237.627 134.8C245.627 134.8 251.76 132.533 256.027 128C260.293 123.467 262.427 117 262.427 108.6V24.6H296.627V108.4C296.627 120.933 293.96 131.533 288.627 140.2C283.293 148.867 276.093 155.4 267.027 159.8C258.093 164.2 248.093 166.4 237.027 166.4C225.96 166.4 216.027 164.267 207.227 160C198.56 155.6 191.693 149.067 186.627 140.4C181.56 131.6 179.027 120.933 179.027 108.4V24.6H213.227ZM392.242 165L363.042 112H354.842V165H320.642V24.6H378.042C389.109 24.6 398.509 26.5333 406.242 30.4C414.109 34.2667 419.976 39.6 423.842 46.4C427.709 53.0667 429.642 60.5333 429.642 68.8C429.642 78.1333 426.976 86.4667 421.642 93.8C416.442 101.133 408.709 106.333 398.442 109.4L430.842 165H392.242ZM354.842 87.8H376.042C382.309 87.8 386.976 86.2667 390.042 83.2C393.242 80.1333 394.842 75.8 394.842 70.2C394.842 64.8667 393.242 60.6667 390.042 57.6C386.976 54.5333 382.309 53 376.042 53H354.842V87.8ZM154.2 194.6L104.4 335H61.6L11.8 194.6H48.2L83 300.6L118 194.6H154.2ZM255.894 310.2H203.494L195.094 335H159.294L210.094 194.6H249.694L300.494 335H264.294L255.894 310.2ZM247.094 283.8L229.694 232.4L212.494 283.8H247.094ZM350.155 308.6H394.955V335H315.955V194.6H350.155V308.6ZM444.867 194.6V278.6C444.867 287 446.934 293.467 451.067 298C455.201 302.533 461.267 304.8 469.267 304.8C477.267 304.8 483.401 302.533 487.667 298C491.934 293.467 494.067 287 494.067 278.6V194.6H528.267V278.4C528.267 290.933 525.601 301.533 520.267 310.2C514.934 318.867 507.734 325.4 498.667 329.8C489.734 334.2 479.734 336.4 468.667 336.4C457.601 336.4 447.667 334.267 438.867 330C430.201 325.6 423.334 319.067 418.267 310.4C413.201 301.6 410.667 290.933 410.667 278.4V194.6H444.867ZM586.483 222V250.4H632.283V276.8H586.483V307.6H638.283V335H552.283V194.6H638.283V222H586.483ZM711.286 336.4C701.019 336.4 691.819 334.733 683.686 331.4C675.553 328.067 669.019 323.133 664.086 316.6C659.286 310.067 656.753 302.2 656.486 293H692.886C693.419 298.2 695.219 302.2 698.286 305C701.353 307.667 705.353 309 710.286 309C715.353 309 719.353 307.867 722.286 305.6C725.219 303.2 726.686 299.933 726.686 295.8C726.686 292.333 725.486 289.467 723.086 287.2C720.819 284.933 717.953 283.067 714.486 281.6C711.153 280.133 706.353 278.467 700.086 276.6C691.019 273.8 683.619 271 677.886 268.2C672.153 265.4 667.219 261.267 663.086 255.8C658.953 250.333 656.886 243.2 656.886 234.4C656.886 221.333 661.619 211.133 671.086 203.8C680.553 196.333 692.886 192.6 708.086 192.6C723.553 192.6 736.019 196.333 745.486 203.8C754.953 211.133 760.019 221.4 760.686 234.6H723.686C723.419 230.067 721.753 226.533 718.686 224C715.619 221.333 711.686 220 706.886 220C702.753 220 699.419 221.133 696.886 223.4C694.353 225.533 693.086 228.667 693.086 232.8C693.086 237.333 695.219 240.867 699.486 243.4C703.753 245.933 710.419 248.667 719.486 251.6C728.553 254.667 735.886 257.6 741.486 260.4C747.219 263.2 752.153 267.267 756.286 272.6C760.419 277.933 762.486 284.8 762.486 293.2C762.486 301.2 760.419 308.467 756.286 315C752.286 321.533 746.419 326.733 738.686 330.6C730.953 334.467 721.819 336.4 711.286 336.4Z" fill="white"/>
<path d="M52.4 157.2L50.9322 159.816L50.939 159.82L50.9458 159.824L52.4 157.2ZM26.2 131.6L23.603 133.102L23.6137 133.12L23.6248 133.139L26.2 131.6ZM26.2 57.4L23.6248 55.8611L23.6178 55.8728L23.611 55.8845L26.2 57.4ZM52.4 31.8L50.9458 29.176L50.939 29.1798L50.9322 29.1836L52.4 31.8ZM125 31.8L123.532 34.4164L123.539 34.4202L123.546 34.424L125 31.8ZM151 57.4L148.397 58.8918L148.404 58.9037L148.411 58.9155L151 57.4ZM151 131.6L153.589 133.116L153.593 133.109L153.597 133.102L151 131.6ZM125 157.2L126.468 159.816L126.468 159.816L125 157.2ZM115.6 124L113.382 121.98L113.372 121.991L113.362 122.002L115.6 124ZM115.6 64.8L113.362 66.798L113.381 66.8191L113.4 66.8398L115.6 64.8ZM61.6 64.6L59.4002 62.5602L59.3901 62.571L59.3802 62.582L61.6 64.6ZM61.6 124.2L59.3622 126.198L59.381 126.219L59.4002 126.24L61.6 124.2ZM88.8 163.4C76.0859 163.4 64.4563 160.452 53.8542 154.576L50.9458 159.824C62.477 166.215 75.1141 169.4 88.8 169.4V163.4ZM53.8678 154.584C43.3989 148.711 35.0443 140.552 28.7752 130.061L23.6248 133.139C30.4223 144.514 39.5344 153.423 50.9322 159.816L53.8678 154.584ZM28.797 130.098C22.6806 119.522 19.6 107.646 19.6 94.4H13.6C13.6 108.62 16.9194 121.545 23.603 133.102L28.797 130.098ZM19.6 94.4C19.6 81.1531 22.6806 69.3508 28.789 58.9155L23.611 55.8845C16.9194 67.3158 13.6 80.1802 13.6 94.4H19.6ZM28.7752 58.9389C35.0443 48.4477 43.3989 40.2892 53.8678 34.4164L50.9322 29.1836C39.5344 35.5775 30.4223 44.4856 23.6248 55.8611L28.7752 58.9389ZM53.8542 34.424C64.4563 28.5481 76.0859 25.6 88.8 25.6V19.6C75.1141 19.6 62.477 22.7852 50.9458 29.176L53.8542 34.424ZM88.8 25.6C101.514 25.6 113.071 28.548 123.532 34.4164L126.468 29.1836C115.062 22.7853 102.486 19.6 88.8 19.6V25.6ZM123.546 34.424C134.135 40.293 142.404 48.4356 148.397 58.8918L153.603 55.9082C147.063 44.4977 137.998 35.5737 126.454 29.176L123.546 34.424ZM148.411 58.9155C154.519 69.3508 157.6 81.1531 157.6 94.4H163.6C163.6 80.1802 160.281 67.3158 153.589 55.8845L148.411 58.9155ZM157.6 94.4C157.6 107.646 154.519 119.522 148.403 130.098L153.597 133.102C160.281 121.545 163.6 108.62 163.6 94.4H157.6ZM148.411 130.084C142.277 140.563 133.995 148.714 123.532 154.584L126.468 159.816C137.871 153.419 146.923 144.504 153.589 133.116L148.411 130.084ZM123.532 154.584C113.071 160.452 101.514 163.4 88.8 163.4V169.4C102.486 169.4 115.062 166.215 126.468 159.816L123.532 154.584ZM88.8 138.2C100.741 138.2 110.531 134.182 117.838 125.998L113.362 122.002C107.336 128.751 99.2586 132.2 88.8 132.2V138.2ZM117.818 126.02C125.224 117.888 128.8 107.245 128.8 94.4H122.8C122.8 106.088 119.576 115.179 113.382 121.98L117.818 126.02ZM128.8 94.4C128.8 81.4335 125.23 70.7734 117.8 62.7602L113.4 66.8398C119.57 73.4932 122.8 82.5665 122.8 94.4H128.8ZM117.838 62.8019C110.531 54.618 100.741 50.6 88.8 50.6V56.6C99.2586 56.6 107.336 60.0487 113.362 66.798L117.838 62.8019ZM88.8 50.6C76.7544 50.6 66.8462 54.5301 59.4002 62.5602L63.7998 66.6398C69.9538 60.0032 78.179 56.6 88.8 56.6V50.6ZM59.3802 62.582C52.0889 70.6024 48.6 81.3252 48.6 94.4H54.6C54.6 82.4081 57.7778 73.2643 63.8198 66.618L59.3802 62.582ZM48.6 94.4C48.6 107.354 52.0949 118.059 59.3622 126.198L63.8378 122.202C57.7718 115.408 54.6 106.246 54.6 94.4H48.6ZM59.4002 126.24C66.8462 134.27 76.7544 138.2 88.8 138.2V132.2C78.179 132.2 69.9538 128.797 63.7998 122.16L59.4002 126.24ZM213.227 24.6H216.227V21.6H213.227V24.6ZM219.427 128L217.21 130.021L217.21 130.021L219.427 128ZM256.027 128L258.211 130.056L258.211 130.056L256.027 128ZM262.427 24.6V21.6H259.427V24.6H262.427ZM296.627 24.6H299.627V21.6H296.627V24.6ZM288.627 140.2L291.182 141.772L291.182 141.772L288.627 140.2ZM267.027 159.8L265.717 157.101L265.709 157.105L265.701 157.109L267.027 159.8ZM207.227 160L205.868 162.675L205.893 162.687L205.918 162.699L207.227 160ZM186.627 140.4L184.027 141.897L184.032 141.906L184.037 141.914L186.627 140.4ZM179.027 24.6V21.6H176.027V24.6H179.027ZM210.227 24.6V108.6H216.227V24.6H210.227ZM210.227 108.6C210.227 117.469 212.412 124.759 217.21 130.021L221.643 125.979C218.175 122.174 216.227 116.531 216.227 108.6H210.227ZM217.21 130.021C222.072 135.354 229.054 137.8 237.627 137.8V131.8C230.199 131.8 225.048 129.713 221.643 125.979L217.21 130.021ZM237.627 137.8C246.205 137.8 253.227 135.352 258.211 130.056L253.842 125.944C250.293 129.715 245.049 131.8 237.627 131.8V137.8ZM258.211 130.056C263.162 124.796 265.427 117.492 265.427 108.6H259.427C259.427 116.508 257.424 122.138 253.842 125.944L258.211 130.056ZM265.427 108.6V24.6H259.427V108.6H265.427ZM262.427 27.6H296.627V21.6H262.427V27.6ZM293.627 24.6V108.4H299.627V24.6H293.627ZM293.627 108.4C293.627 120.507 291.053 130.532 286.072 138.628L291.182 141.772C296.867 132.534 299.627 121.36 299.627 108.4H293.627ZM286.072 138.628C281.035 146.813 274.264 152.953 265.717 157.101L268.336 162.499C277.922 157.847 285.552 150.92 291.182 141.772L286.072 138.628ZM265.701 157.109C257.224 161.284 247.685 163.4 237.027 163.4V169.4C248.501 169.4 258.962 167.116 268.352 162.491L265.701 157.109ZM237.027 163.4C226.353 163.4 216.877 161.345 208.535 157.301L205.918 162.699C215.176 167.189 225.566 169.4 237.027 169.4V163.4ZM208.585 157.325C200.449 153.195 194.003 147.073 189.216 138.886L184.037 141.914C189.384 151.061 196.671 158.005 205.868 162.675L208.585 157.325ZM189.226 138.903C184.477 130.654 182.027 120.53 182.027 108.4H176.027C176.027 121.337 178.643 132.546 184.027 141.897L189.226 138.903ZM182.027 108.4V24.6H176.027V108.4H182.027ZM179.027 27.6H213.227V21.6H179.027V27.6ZM392.242 165L389.615 166.448L390.47 168H392.242V165ZM363.042 112L365.67 110.552L364.815 109H363.042V112ZM354.842 112V109H351.842V112H354.842ZM354.842 165V168H357.842V165H354.842ZM320.642 165H317.642V168H320.642V165ZM320.642 24.6V21.6H317.642V24.6H320.642ZM406.242 30.4L404.901 33.0833L404.91 33.0878L404.919 33.0923L406.242 30.4ZM423.842 46.4L421.234 47.8829L421.241 47.894L421.247 47.9051L423.842 46.4ZM421.642 93.8L419.216 92.0355L419.205 92.05L419.195 92.0647L421.642 93.8ZM398.442 109.4L397.584 106.525L393.931 107.617L395.85 110.91L398.442 109.4ZM430.842 165V168H436.063L433.434 163.49L430.842 165ZM354.842 87.8H351.842V90.8H354.842V87.8ZM390.042 83.2L387.966 81.034L387.943 81.0561L387.921 81.0787L390.042 83.2ZM390.042 57.6L387.921 59.7213L387.943 59.7439L387.966 59.766L390.042 57.6ZM354.842 53V50H351.842V53H354.842ZM394.87 163.552L365.67 110.552L360.415 113.448L389.615 166.448L394.87 163.552ZM363.042 109H354.842V115H363.042V109ZM351.842 112V165H357.842V112H351.842ZM354.842 162H320.642V168H354.842V162ZM323.642 165V24.6H317.642V165H323.642ZM320.642 27.6H378.042V21.6H320.642V27.6ZM378.042 27.6C388.77 27.6 397.684 29.4749 404.901 33.0833L407.584 27.7167C399.334 23.5918 389.448 21.6 378.042 21.6V27.6ZM404.919 33.0923C412.313 36.7269 417.7 41.6675 421.234 47.8829L426.45 44.9171C422.251 37.5325 415.904 31.8064 407.566 27.7076L404.919 33.0923ZM421.247 47.9051C424.829 54.0813 426.642 61.0222 426.642 68.8H432.642C432.642 60.0444 430.588 52.052 426.437 44.8948L421.247 47.9051ZM426.642 68.8C426.642 77.5192 424.165 85.2308 419.216 92.0355L424.068 95.5645C429.786 87.7026 432.642 78.7475 432.642 68.8H426.642ZM419.195 92.0647C414.453 98.7521 407.336 103.612 397.584 106.525L399.301 112.274C410.082 109.054 418.431 103.515 424.089 95.5353L419.195 92.0647ZM395.85 110.91L428.25 166.51L433.434 163.49L401.034 107.89L395.85 110.91ZM430.842 162H392.242V168H430.842V162ZM354.842 90.8H376.042V84.8H354.842V90.8ZM376.042 90.8C382.749 90.8 388.325 89.1598 392.164 85.3213L387.921 81.0787C385.626 83.3735 381.868 84.8 376.042 84.8V90.8ZM392.118 85.366C396.055 81.5929 397.842 76.3895 397.842 70.2H391.842C391.842 75.2105 390.429 78.6738 387.966 81.034L392.118 85.366ZM397.842 70.2C397.842 64.2279 396.026 59.1795 392.118 55.434L387.966 59.766C390.458 62.1539 391.842 65.5054 391.842 70.2H397.842ZM392.164 55.4787C388.325 51.6402 382.749 50 376.042 50V56C381.868 56 385.626 57.4265 387.921 59.7213L392.164 55.4787ZM376.042 50H354.842V56H376.042V50ZM351.842 53V87.8H357.842V53H351.842ZM154.2 194.6L157.027 195.603L158.447 191.6H154.2V194.6ZM104.4 335V338H106.519L107.227 336.003L104.4 335ZM61.6 335L58.7726 336.003L59.481 338H61.6V335ZM11.8 194.6V191.6H7.55277L8.97259 195.603L11.8 194.6ZM48.2 194.6L51.0503 193.664L50.3726 191.6H48.2V194.6ZM83 300.6L80.1497 301.536L82.9918 310.193L85.8487 301.541L83 300.6ZM118 194.6V191.6H115.831L115.151 193.659L118 194.6ZM151.373 193.597L101.573 333.997L107.227 336.003L157.027 195.603L151.373 193.597ZM104.4 332H61.6V338H104.4V332ZM64.4274 333.997L14.6274 193.597L8.97259 195.603L58.7726 336.003L64.4274 333.997ZM11.8 197.6H48.2V191.6H11.8V197.6ZM45.3497 195.536L80.1497 301.536L85.8503 299.664L51.0503 193.664L45.3497 195.536ZM85.8487 301.541L120.849 195.541L115.151 193.659L80.1513 299.659L85.8487 301.541ZM118 197.6H154.2V191.6H118V197.6ZM255.894 310.2L258.735 309.238L258.045 307.2H255.894V310.2ZM203.494 310.2V307.2H201.342L200.652 309.238L203.494 310.2ZM195.094 335V338H197.245L197.935 335.962L195.094 335ZM159.294 335L156.473 333.979L155.018 338H159.294V335ZM210.094 194.6V191.6H207.989L207.273 193.579L210.094 194.6ZM249.694 194.6L252.515 193.579L251.799 191.6H249.694V194.6ZM300.494 335V338H304.77L303.315 333.979L300.494 335ZM264.294 335L261.452 335.962L262.142 338H264.294V335ZM247.094 283.8V286.8H251.277L249.935 282.838L247.094 283.8ZM229.694 232.4L232.535 231.438L229.677 222.995L226.849 231.448L229.694 232.4ZM212.494 283.8L209.649 282.848L208.326 286.8H212.494V283.8ZM255.894 307.2H203.494V313.2H255.894V307.2ZM200.652 309.238L192.252 334.038L197.935 335.962L206.335 311.162L200.652 309.238ZM195.094 332H159.294V338H195.094V332ZM162.115 336.021L212.915 195.621L207.273 193.579L156.473 333.979L162.115 336.021ZM210.094 197.6H249.694V191.6H210.094V197.6ZM246.873 195.621L297.673 336.021L303.315 333.979L252.515 193.579L246.873 195.621ZM300.494 332H264.294V338H300.494V332ZM267.135 334.038L258.735 309.238L253.052 311.162L261.452 335.962L267.135 334.038ZM249.935 282.838L232.535 231.438L226.852 233.362L244.252 284.762L249.935 282.838ZM226.849 231.448L209.649 282.848L215.339 284.752L232.539 233.352L226.849 231.448ZM212.494 286.8H247.094V280.8H212.494V286.8ZM350.155 308.6H347.155V311.6H350.155V308.6ZM394.955 308.6H397.955V305.6H394.955V308.6ZM394.955 335V338H397.955V335H394.955ZM315.955 335H312.955V338H315.955V335ZM315.955 194.6V191.6H312.955V194.6H315.955ZM350.155 194.6H353.155V191.6H350.155V194.6ZM350.155 311.6H394.955V305.6H350.155V311.6ZM391.955 308.6V335H397.955V308.6H391.955ZM394.955 332H315.955V338H394.955V332ZM318.955 335V194.6H312.955V335H318.955ZM315.955 197.6H350.155V191.6H315.955V197.6ZM347.155 194.6V308.6H353.155V194.6H347.155ZM444.867 194.6H447.867V191.6H444.867V194.6ZM451.067 298L448.85 300.021L448.85 300.021L451.067 298ZM487.667 298L489.852 300.056L489.852 300.056L487.667 298ZM494.067 194.6V191.6H491.067V194.6H494.067ZM528.267 194.6H531.267V191.6H528.267V194.6ZM520.267 310.2L522.822 311.772L522.822 311.772L520.267 310.2ZM498.667 329.8L497.357 327.101L497.35 327.105L497.342 327.109L498.667 329.8ZM438.867 330L437.509 332.675L437.534 332.687L437.558 332.699L438.867 330ZM418.267 310.4L415.667 311.897L415.672 311.906L415.677 311.914L418.267 310.4ZM410.667 194.6V191.6H407.667V194.6H410.667ZM441.867 194.6V278.6H447.867V194.6H441.867ZM441.867 278.6C441.867 287.469 444.053 294.759 448.85 300.021L453.284 295.979C449.815 292.174 447.867 286.531 447.867 278.6H441.867ZM448.85 300.021C453.712 305.354 460.695 307.8 469.267 307.8V301.8C461.84 301.8 456.689 299.713 453.284 295.979L448.85 300.021ZM469.267 307.8C477.845 307.8 484.867 305.352 489.852 300.056L485.483 295.944C481.934 299.715 476.689 301.8 469.267 301.8V307.8ZM489.852 300.056C494.803 294.796 497.067 287.492 497.067 278.6H491.067C491.067 286.508 489.065 292.138 485.483 295.944L489.852 300.056ZM497.067 278.6V194.6H491.067V278.6H497.067ZM494.067 197.6H528.267V191.6H494.067V197.6ZM525.267 194.6V278.4H531.267V194.6H525.267ZM525.267 278.4C525.267 290.507 522.694 300.532 517.712 308.628L522.822 311.772C528.507 302.534 531.267 291.36 531.267 278.4H525.267ZM517.712 308.628C512.675 316.813 505.905 322.953 497.357 327.101L499.977 332.499C509.563 327.847 517.193 320.92 522.822 311.772L517.712 308.628ZM497.342 327.109C488.865 331.284 479.326 333.4 468.667 333.4V339.4C480.142 339.4 490.603 337.116 499.993 332.491L497.342 327.109ZM468.667 333.4C457.994 333.4 448.517 331.345 440.176 327.301L437.558 332.699C446.817 337.189 457.207 339.4 468.667 339.4V333.4ZM440.225 327.325C432.09 323.195 425.643 317.073 420.857 308.886L415.677 311.914C421.025 321.061 428.311 328.005 437.509 332.675L440.225 327.325ZM420.867 308.903C416.117 300.654 413.667 290.53 413.667 278.4H407.667C407.667 291.337 410.284 302.546 415.667 311.897L420.867 308.903ZM413.667 278.4V194.6H407.667V278.4H413.667ZM410.667 197.6H444.867V191.6H410.667V197.6ZM586.483 222V219H583.483V222H586.483ZM586.483 250.4H583.483V253.4H586.483V250.4ZM632.283 250.4H635.283V247.4H632.283V250.4ZM632.283 276.8V279.8H635.283V276.8H632.283ZM586.483 276.8V273.8H583.483V276.8H586.483ZM586.483 307.6H583.483V310.6H586.483V307.6ZM638.283 307.6H641.283V304.6H638.283V307.6ZM638.283 335V338H641.283V335H638.283ZM552.283 335H549.283V338H552.283V335ZM552.283 194.6V191.6H549.283V194.6H552.283ZM638.283 194.6H641.283V191.6H638.283V194.6ZM638.283 222V225H641.283V222H638.283ZM583.483 222V250.4H589.483V222H583.483ZM586.483 253.4H632.283V247.4H586.483V253.4ZM629.283 250.4V276.8H635.283V250.4H629.283ZM632.283 273.8H586.483V279.8H632.283V273.8ZM583.483 276.8V307.6H589.483V276.8H583.483ZM586.483 310.6H638.283V304.6H586.483V310.6ZM635.283 307.6V335H641.283V307.6H635.283ZM638.283 332H552.283V338H638.283V332ZM555.283 335V194.6H549.283V335H555.283ZM552.283 197.6H638.283V191.6H552.283V197.6ZM635.283 194.6V222H641.283V194.6H635.283ZM638.283 219H586.483V225H638.283V219ZM683.686 331.4L682.548 334.176L682.548 334.176L683.686 331.4ZM664.086 316.6L661.668 318.376L661.68 318.392L661.692 318.408L664.086 316.6ZM656.486 293V290H653.398L653.487 293.087L656.486 293ZM692.886 293L695.87 292.694L695.594 290H692.886V293ZM698.286 305L696.263 307.215L696.29 307.24L696.317 307.264L698.286 305ZM722.286 305.6L724.12 307.974L724.153 307.948L724.186 307.922L722.286 305.6ZM723.086 287.2L720.965 289.321L720.995 289.352L721.026 289.381L723.086 287.2ZM714.486 281.6L713.278 284.346L713.297 284.355L713.317 284.363L714.486 281.6ZM700.086 276.6L699.201 279.466L699.215 279.471L699.23 279.475L700.086 276.6ZM677.886 268.2L676.569 270.896L677.886 268.2ZM663.086 255.8L665.479 253.991L665.479 253.991L663.086 255.8ZM671.086 203.8L672.923 206.172L672.933 206.164L672.944 206.155L671.086 203.8ZM745.486 203.8L743.628 206.155L743.638 206.164L743.649 206.172L745.486 203.8ZM760.686 234.6V237.6H763.841L763.682 234.449L760.686 234.6ZM723.686 234.6L720.691 234.776L720.857 237.6H723.686V234.6ZM718.686 224L716.717 226.264L716.746 226.289L716.775 226.313L718.686 224ZM696.886 223.4L698.818 225.695L698.853 225.666L698.886 225.636L696.886 223.4ZM699.486 243.4L701.018 240.82L701.018 240.82L699.486 243.4ZM719.486 251.6L720.447 248.758L720.428 248.752L720.409 248.746L719.486 251.6ZM741.486 260.4L740.144 263.083L740.157 263.09L740.169 263.096L741.486 260.4ZM756.286 272.6L753.915 274.438L753.915 274.438L756.286 272.6ZM756.286 315L753.751 313.396L753.739 313.415L753.727 313.434L756.286 315ZM738.686 330.6L737.344 327.917L737.344 327.917L738.686 330.6ZM711.286 333.4C701.345 333.4 692.541 331.787 684.824 328.624L682.548 334.176C691.098 337.68 700.694 339.4 711.286 339.4V333.4ZM684.824 328.624C677.15 325.479 671.065 320.864 666.48 314.792L661.692 318.408C666.973 325.402 673.955 330.654 682.548 334.176L684.824 328.624ZM666.504 314.824C662.112 308.846 659.736 301.589 659.485 292.913L653.487 293.087C653.769 302.811 656.46 311.287 661.668 318.376L666.504 314.824ZM656.486 296H692.886V290H656.486V296ZM689.902 293.306C690.49 299.043 692.522 303.8 696.263 307.215L700.309 302.785C697.916 300.6 696.349 297.357 695.87 292.694L689.902 293.306ZM696.317 307.264C700.041 310.502 704.791 312 710.286 312V306C705.914 306 702.664 304.832 700.254 302.736L696.317 307.264ZM710.286 312C715.776 312 720.499 310.772 724.12 307.974L720.452 303.226C718.207 304.961 714.929 306 710.286 306V312ZM724.186 307.922C727.884 304.896 729.686 300.74 729.686 295.8H723.686C723.686 299.126 722.554 301.504 720.386 303.278L724.186 307.922ZM729.686 295.8C729.686 291.554 728.179 287.883 725.146 285.019L721.026 289.381C722.793 291.05 723.686 293.112 723.686 295.8H729.686ZM725.207 285.079C722.624 282.496 719.416 280.428 715.655 278.837L713.317 284.363C716.489 285.705 719.014 287.371 720.965 289.321L725.207 285.079ZM715.694 278.854C712.19 277.312 707.251 275.604 700.942 273.725L699.23 279.475C705.454 281.329 710.115 282.954 713.278 284.346L715.694 278.854ZM700.971 273.734C691.989 270.96 684.747 268.212 679.202 265.504L676.569 270.896C682.491 273.788 690.05 276.64 699.201 279.466L700.971 273.734ZM679.202 265.504C673.924 262.926 669.35 259.11 665.479 253.991L660.693 257.609C665.089 263.423 670.382 267.874 676.569 270.896L679.202 265.504ZM665.479 253.991C661.839 249.177 659.886 242.734 659.886 234.4H653.886C653.886 243.666 656.066 251.49 660.693 257.609L665.479 253.991ZM659.886 234.4C659.886 222.164 664.264 212.88 672.923 206.172L669.249 201.428C658.975 209.387 653.886 220.503 653.886 234.4H659.886ZM672.944 206.155C681.756 199.205 693.381 195.6 708.086 195.6V189.6C692.391 189.6 679.349 193.462 669.228 201.444L672.944 206.155ZM708.086 195.6C723.072 195.6 734.825 199.212 743.628 206.155L747.344 201.444C737.214 193.455 724.034 189.6 708.086 189.6V195.6ZM743.649 206.172C752.347 212.91 757.062 222.323 757.69 234.751L763.682 234.449C762.976 220.477 757.558 209.357 747.323 201.428L743.649 206.172ZM760.686 231.6H723.686V237.6H760.686V231.6ZM726.681 234.424C726.373 229.188 724.399 224.829 720.597 221.687L716.775 226.313C719.106 228.238 720.466 230.945 720.691 234.776L726.681 234.424ZM720.654 221.736C716.946 218.511 712.271 217 706.886 217V223C711.101 223 714.293 224.155 716.717 226.264L720.654 221.736ZM706.886 217C702.182 217 698.082 218.304 694.886 221.164L698.886 225.636C700.757 223.962 703.324 223 706.886 223V217ZM694.954 221.105C691.58 223.946 690.086 228.02 690.086 232.8H696.086C696.086 229.313 697.125 227.12 698.818 225.695L694.954 221.105ZM690.086 232.8C690.086 238.508 692.881 242.967 697.954 245.98L701.018 240.82C697.557 238.766 696.086 236.159 696.086 232.8H690.086ZM697.954 245.98C702.516 248.688 709.44 251.503 718.562 254.454L720.409 248.746C711.399 245.83 704.99 243.179 701.018 240.82L697.954 245.98ZM718.525 254.442C727.521 257.485 734.714 260.368 740.144 263.083L742.828 257.717C737.058 254.832 729.584 251.848 720.447 248.758L718.525 254.442ZM740.169 263.096C745.466 265.683 750.046 269.446 753.915 274.438L758.657 270.762C754.259 265.087 748.972 260.717 742.802 257.704L740.169 263.096ZM753.915 274.438C757.549 279.127 759.486 285.299 759.486 293.2H765.486C765.486 284.301 763.289 276.739 758.657 270.762L753.915 274.438ZM759.486 293.2C759.486 300.653 757.57 307.36 753.751 313.396L758.821 316.604C763.269 309.573 765.486 301.747 765.486 293.2H759.486ZM753.727 313.434C750.057 319.429 744.642 324.268 737.344 327.917L740.028 333.283C748.197 329.199 754.515 323.638 758.844 316.566L753.727 313.434ZM737.344 327.917C730.109 331.535 721.454 333.4 711.286 333.4V339.4C722.185 339.4 731.797 337.399 740.028 333.283L737.344 327.917Z" fill="#4d4e52" fill-opacity="0.84"/>
</g>
</svg>
