<svg version="1.1" viewBox="0.0 0.0 1041.0 644.0" fill="none" stroke="none" stroke-linecap="square" stroke-miterlimit="10" width="1041" height="644" xmlns:xlink="http://www.w3.org/1999/xlink" xmlns="http://www.w3.org/2000/svg"><path fill="#ffffff" d="M0 0L1041.0 0L1041.0 644.0L0 644.0L0 0Z" fill-rule="nonzero"/><path stroke="#cccccc" stroke-width="1.0" stroke-linecap="butt" d="M59.5 74.5L59.5 591.5" fill-rule="nonzero"/><path stroke="#cccccc" stroke-width="1.0" stroke-linecap="butt" d="M249.5 74.5L249.5 591.5" fill-rule="nonzero"/><path stroke="#cccccc" stroke-width="1.0" stroke-linecap="butt" d="M439.5 74.5L439.5 591.5" fill-rule="nonzero"/><path stroke="#cccccc" stroke-width="1.0" stroke-linecap="butt" d="M628.5 74.5L628.5 591.5" fill-rule="nonzero"/><path stroke="#cccccc" stroke-width="1.0" stroke-linecap="butt" d="M818.5 74.5L818.5 591.5" fill-rule="nonzero"/><path stroke="#cccccc" stroke-width="1.0" stroke-linecap="butt" d="M1008.5 74.5L1008.5 591.5" fill-rule="nonzero"/><path stroke="#333333" stroke-width="1.0" stroke-linecap="butt" d="M59.5 591.5L1008.5 591.5" fill-rule="nonzero"/><path stroke="#cccccc" stroke-width="1.0" stroke-linecap="butt" d="M59.5 462.5L1008.5 462.5" fill-rule="nonzero"/><path stroke="#cccccc" stroke-width="1.0" stroke-linecap="butt" d="M59.5 333.5L1008.5 333.5" fill-rule="nonzero"/><path stroke="#cccccc" stroke-width="1.0" stroke-linecap="butt" d="M59.5 203.5L1008.5 203.5" fill-rule="nonzero"/><path stroke="#cccccc" stroke-width="1.0" stroke-linecap="butt" d="M59.5 74.5L1008.5 74.5" fill-rule="nonzero"/><clipPath id="id_0"><path d="M59.2 74.666664L1008.8 74.666664L1008.8 591.8L59.2 591.8L59.2 74.666664Z" clip-rule="nonzero"/></clipPath><path stroke="#20124d" stroke-width="2.0" stroke-linecap="butt" clip-path="url(#id_0)" d="M59.2 540.0867C59.2 540.0867 122.50667 147.92722 154.16 126.38C185.81334 104.83278 217.46666 359.09 249.12 410.80334C280.77335 462.51666 312.42667 423.73166 344.08 436.66C375.73334 449.58835 407.38666 496.99222 439.04 488.37332C470.69333 479.75446 502.34668 393.56555 534.0 384.94666C565.6533 376.3278 597.30664 432.35056 628.96 436.66C660.61334 440.96945 692.26666 436.66 723.92 410.80334C755.5733 384.94666 787.2267 259.97278 818.88 281.52C850.5333 303.06723 882.18665 509.92056 913.84 540.0867C945.49335 570.2528 1008.8 462.51666 1008.8 462.51666" fill-rule="nonzero"/><path stroke="#999999" stroke-width="2.0" stroke-linecap="butt" stroke-dasharray="8.0,6.0" clip-path="url(#id_0)" d="M59.2 100.52333C59.2 100.52333 122.50667 100.52333 154.16 100.52333C185.81334 100.52333 217.46666 100.52333 249.12 100.52333C280.77335 100.52333 312.42667 100.52333 344.08 100.52333C375.73334 100.52333 407.38666 100.52333 439.04 100.52333C470.69333 100.52333 502.34668 100.52333 534.0 100.52333C565.6533 100.52333 597.30664 100.52333 628.96 100.52333C660.61334 100.52333 692.26666 100.52333 723.92 100.52333C755.5733 100.52333 787.2267 100.52333 818.88 100.52333C850.5333 100.52333 882.18665 100.52333 913.84 100.52333C945.49335 100.52333 1008.8 100.52333 1008.8 100.52333" fill-rule="nonzero"/><path stroke="#ff0000" stroke-width="2.0" stroke-linecap="butt" stroke-dasharray="8.0,6.0" clip-path="url(#id_0)" d="M59.2 281.52C59.2 281.52 122.50667 281.52 154.16 281.52C185.81334 281.52 217.46666 281.52 249.12 281.52C280.77335 281.52 312.42667 281.52 344.08 281.52C375.73334 281.52 407.38666 281.52 439.04 281.52C470.69333 281.52 502.34668 281.52 534.0 281.52C565.6533 281.52 597.30664 281.52 628.96 281.52C660.61334 281.52 692.26666 281.52 723.92 281.52C755.5733 281.52 787.2267 281.52 818.88 281.52C850.5333 281.52 882.18665 281.52 913.84 281.52C945.49335 281.52 1008.8 281.52 1008.8 281.52" fill-rule="nonzero"/><path fill="#000000" fill-opacity="0.0" clip-path="url(#id_0)" d="M62.2 540.0867C62.2 541.7435 60.856853 543.0867 59.2 543.0867C57.543144 543.0867 56.2 541.7435 56.2 540.0867C56.2 538.4298 57.543144 537.0867 59.2 537.0867C60.856853 537.0867 62.2 538.4298 62.2 540.0867Z" fill-rule="nonzero"/><path fill="#000000" fill-opacity="0.0" clip-path="url(#id_0)" d="M157.16 126.38C157.16 128.03685 155.81685 129.38 154.16 129.38C152.50314 129.38 151.16 128.03685 151.16 126.38C151.16 124.723145 152.50314 123.38 154.16 123.38C155.81685 123.38 157.16 124.723145 157.16 126.38Z" fill-rule="nonzero"/><path fill="#000000" fill-opacity="0.0" clip-path="url(#id_0)" d="M252.12 410.80334C252.12 412.46017 250.77686 413.80334 249.12 413.80334C247.46315 413.80334 246.12 412.46017 246.12 410.80334C246.12 409.14648 247.46315 407.80334 249.12 407.80334C250.77686 407.80334 252.12 409.14648 252.12 410.80334Z" fill-rule="nonzero"/><path fill="#000000" fill-opacity="0.0" clip-path="url(#id_0)" d="M347.08 436.66C347.08 438.31686 345.73685 439.66 344.08 439.66C342.42316 439.66 341.08 438.31686 341.08 436.66C341.08 435.00314 342.42316 433.66 344.08 433.66C345.73685 433.66 347.08 435.00314 347.08 436.66Z" fill-rule="nonzero"/><path fill="#000000" fill-opacity="0.0" clip-path="url(#id_0)" d="M442.04 488.37332C442.04 490.03018 440.69687 491.37332 439.04 491.37332C437.38315 491.37332 436.04 490.03018 436.04 488.37332C436.04 486.7165 437.38315 485.37332 439.04 485.37332C440.69687 485.37332 442.04 486.7165 442.04 488.37332Z" fill-rule="nonzero"/><path fill="#000000" fill-opacity="0.0" clip-path="url(#id_0)" d="M537.0 384.94666C537.0 386.60352 535.65686 387.94666 534.0 387.94666C532.34314 387.94666 531.0 386.60352 531.0 384.94666C531.0 383.28983 532.34314 381.94666 534.0 381.94666C535.65686 381.94666 537.0 383.28983 537.0 384.94666Z" fill-rule="nonzero"/><path fill="#000000" fill-opacity="0.0" clip-path="url(#id_0)" d="M631.96 436.66C631.96 438.31686 630.6169 439.66 628.96 439.66C627.30316 439.66 625.96 438.31686 625.96 436.66C625.96 435.00314 627.30316 433.66 628.96 433.66C630.6169 433.66 631.96 435.00314 631.96 436.66Z" fill-rule="nonzero"/><path fill="#000000" fill-opacity="0.0" clip-path="url(#id_0)" d="M726.92 410.80334C726.92 412.46017 725.57684 413.80334 723.92 413.80334C722.2631 413.80334 720.92 412.46017 720.92 410.80334C720.92 409.14648 722.2631 407.80334 723.92 407.80334C725.57684 407.80334 726.92 409.14648 726.92 410.80334Z" fill-rule="nonzero"/><path fill="#000000" fill-opacity="0.0" clip-path="url(#id_0)" d="M821.88 281.52C821.88 283.17685 820.53687 284.52 818.88 284.52C817.22314 284.52 815.88 283.17685 815.88 281.52C815.88 279.86316 817.22314 278.52 818.88 278.52C820.53687 278.52 821.88 279.86316 821.88 281.52Z" fill-rule="nonzero"/><path fill="#000000" fill-opacity="0.0" clip-path="url(#id_0)" d="M916.84 540.0867C916.84 541.7435 915.4968 543.0867 913.84 543.0867C912.18317 543.0867 910.84 541.7435 910.84 540.0867C910.84 538.4298 912.18317 537.0867 913.84 537.0867C915.4968 537.0867 916.84 538.4298 916.84 540.0867Z" fill-rule="nonzero"/><path fill="#000000" fill-opacity="0.0" clip-path="url(#id_0)" d="M1011.8 462.51666C1011.8 464.17352 1010.45685 465.51666 1008.8 465.51666C1007.1431 465.51666 1005.8 464.17352 1005.8 462.51666C1005.8 460.8598 1007.1431 459.51666 1008.8 459.51666C1010.45685 459.51666 1011.8 460.8598 1011.8 462.51666Z" fill-rule="nonzero"/><path fill="#000000" fill-opacity="0.0" clip-path="url(#id_0)" d="M62.2 100.52333C62.2 102.18019 60.856853 103.52333 59.2 103.52333C57.543144 103.52333 56.2 102.18019 56.2 100.52333C56.2 98.86648 57.543144 97.52333 59.2 97.52333C60.856853 97.52333 62.2 98.86648 62.2 100.52333Z" fill-rule="nonzero"/><path fill="#000000" fill-opacity="0.0" clip-path="url(#id_0)" d="M157.16 100.52333C157.16 102.18019 155.81685 103.52333 154.16 103.52333C152.50314 103.52333 151.16 102.18019 151.16 100.52333C151.16 98.86648 152.50314 97.52333 154.16 97.52333C155.81685 97.52333 157.16 98.86648 157.16 100.52333Z" fill-rule="nonzero"/><path fill="#000000" fill-opacity="0.0" clip-path="url(#id_0)" d="M252.12 100.52333C252.12 102.18019 250.77686 103.52333 249.12 103.52333C247.46315 103.52333 246.12 102.18019 246.12 100.52333C246.12 98.86648 247.46315 97.52333 249.12 97.52333C250.77686 97.52333 252.12 98.86648 252.12 100.52333Z" fill-rule="nonzero"/><path fill="#000000" fill-opacity="0.0" clip-path="url(#id_0)" d="M347.08 100.52333C347.08 102.18019 345.73685 103.52333 344.08 103.52333C342.42316 103.52333 341.08 102.18019 341.08 100.52333C341.08 98.86648 342.42316 97.52333 344.08 97.52333C345.73685 97.52333 347.08 98.86648 347.08 100.52333Z" fill-rule="nonzero"/><path fill="#000000" fill-opacity="0.0" clip-path="url(#id_0)" d="M442.04 100.52333C442.04 102.18019 440.69687 103.52333 439.04 103.52333C437.38315 103.52333 436.04 102.18019 436.04 100.52333C436.04 98.86648 437.38315 97.52333 439.04 97.52333C440.69687 97.52333 442.04 98.86648 442.04 100.52333Z" fill-rule="nonzero"/><path fill="#000000" fill-opacity="0.0" clip-path="url(#id_0)" d="M537.0 100.52333C537.0 102.18019 535.65686 103.52333 534.0 103.52333C532.34314 103.52333 531.0 102.18019 531.0 100.52333C531.0 98.86648 532.34314 97.52333 534.0 97.52333C535.65686 97.52333 537.0 98.86648 537.0 100.52333Z" fill-rule="nonzero"/><path fill="#000000" fill-opacity="0.0" clip-path="url(#id_0)" d="M631.96 100.52333C631.96 102.18019 630.6169 103.52333 628.96 103.52333C627.30316 103.52333 625.96 102.18019 625.96 100.52333C625.96 98.86648 627.30316 97.52333 628.96 97.52333C630.6169 97.52333 631.96 98.86648 631.96 100.52333Z" fill-rule="nonzero"/><path fill="#000000" fill-opacity="0.0" clip-path="url(#id_0)" d="M726.92 100.52333C726.92 102.18019 725.57684 103.52333 723.92 103.52333C722.2631 103.52333 720.92 102.18019 720.92 100.52333C720.92 98.86648 722.2631 97.52333 723.92 97.52333C725.57684 97.52333 726.92 98.86648 726.92 100.52333Z" fill-rule="nonzero"/><path fill="#000000" fill-opacity="0.0" clip-path="url(#id_0)" d="M821.88 100.52333C821.88 102.18019 820.53687 103.52333 818.88 103.52333C817.22314 103.52333 815.88 102.18019 815.88 100.52333C815.88 98.86648 817.22314 97.52333 818.88 97.52333C820.53687 97.52333 821.88 98.86648 821.88 100.52333Z" fill-rule="nonzero"/><path fill="#000000" fill-opacity="0.0" clip-path="url(#id_0)" d="M916.84 100.52333C916.84 102.18019 915.4968 103.52333 913.84 103.52333C912.18317 103.52333 910.84 102.18019 910.84 100.52333C910.84 98.86648 912.18317 97.52333 913.84 97.52333C915.4968 97.52333 916.84 98.86648 916.84 100.52333Z" fill-rule="nonzero"/><path fill="#000000" fill-opacity="0.0" clip-path="url(#id_0)" d="M1011.8 100.52333C1011.8 102.18019 1010.45685 103.52333 1008.8 103.52333C1007.1431 103.52333 1005.8 102.18019 1005.8 100.52333C1005.8 98.86648 1007.1431 97.52333 1008.8 97.52333C1010.45685 97.52333 1011.8 98.86648 1011.8 100.52333Z" fill-rule="nonzero"/><path fill="#000000" fill-opacity="0.0" clip-path="url(#id_0)" d="M62.2 281.52C62.2 283.17685 60.856853 284.52 59.2 284.52C57.543144 284.52 56.2 283.17685 56.2 281.52C56.2 279.86316 57.543144 278.52 59.2 278.52C60.856853 278.52 62.2 279.86316 62.2 281.52Z" fill-rule="nonzero"/><path fill="#000000" fill-opacity="0.0" clip-path="url(#id_0)" d="M157.16 281.52C157.16 283.17685 155.81685 284.52 154.16 284.52C152.50314 284.52 151.16 283.17685 151.16 281.52C151.16 279.86316 152.50314 278.52 154.16 278.52C155.81685 278.52 157.16 279.86316 157.16 281.52Z" fill-rule="nonzero"/><path fill="#000000" fill-opacity="0.0" clip-path="url(#id_0)" d="M252.12 281.52C252.12 283.17685 250.77686 284.52 249.12 284.52C247.46315 284.52 246.12 283.17685 246.12 281.52C246.12 279.86316 247.46315 278.52 249.12 278.52C250.77686 278.52 252.12 279.86316 252.12 281.52Z" fill-rule="nonzero"/><path fill="#000000" fill-opacity="0.0" clip-path="url(#id_0)" d="M347.08 281.52C347.08 283.17685 345.73685 284.52 344.08 284.52C342.42316 284.52 341.08 283.17685 341.08 281.52C341.08 279.86316 342.42316 278.52 344.08 278.52C345.73685 278.52 347.08 279.86316 347.08 281.52Z" fill-rule="nonzero"/><path fill="#000000" fill-opacity="0.0" clip-path="url(#id_0)" d="M442.04 281.52C442.04 283.17685 440.69687 284.52 439.04 284.52C437.38315 284.52 436.04 283.17685 436.04 281.52C436.04 279.86316 437.38315 278.52 439.04 278.52C440.69687 278.52 442.04 279.86316 442.04 281.52Z" fill-rule="nonzero"/><path fill="#000000" fill-opacity="0.0" clip-path="url(#id_0)" d="M537.0 281.52C537.0 283.17685 535.65686 284.52 534.0 284.52C532.34314 284.52 531.0 283.17685 531.0 281.52C531.0 279.86316 532.34314 278.52 534.0 278.52C535.65686 278.52 537.0 279.86316 537.0 281.52Z" fill-rule="nonzero"/><path fill="#000000" fill-opacity="0.0" clip-path="url(#id_0)" d="M631.96 281.52C631.96 283.17685 630.6169 284.52 628.96 284.52C627.30316 284.52 625.96 283.17685 625.96 281.52C625.96 279.86316 627.30316 278.52 628.96 278.52C630.6169 278.52 631.96 279.86316 631.96 281.52Z" fill-rule="nonzero"/><path fill="#000000" fill-opacity="0.0" clip-path="url(#id_0)" d="M726.92 281.52C726.92 283.17685 725.57684 284.52 723.92 284.52C722.2631 284.52 720.92 283.17685 720.92 281.52C720.92 279.86316 722.2631 278.52 723.92 278.52C725.57684 278.52 726.92 279.86316 726.92 281.52Z" fill-rule="nonzero"/><path fill="#000000" fill-opacity="0.0" clip-path="url(#id_0)" d="M821.88 281.52C821.88 283.17685 820.53687 284.52 818.88 284.52C817.22314 284.52 815.88 283.17685 815.88 281.52C815.88 279.86316 817.22314 278.52 818.88 278.52C820.53687 278.52 821.88 279.86316 821.88 281.52Z" fill-rule="nonzero"/><path fill="#000000" fill-opacity="0.0" clip-path="url(#id_0)" d="M916.84 281.52C916.84 283.17685 915.4968 284.52 913.84 284.52C912.18317 284.52 910.84 283.17685 910.84 281.52C910.84 279.86316 912.18317 278.52 913.84 278.52C915.4968 278.52 916.84 279.86316 916.84 281.52Z" fill-rule="nonzero"/><path fill="#000000" fill-opacity="0.0" clip-path="url(#id_0)" d="M1011.8 281.52C1011.8 283.17685 1010.45685 284.52 1008.8 284.52C1007.1431 284.52 1005.8 283.17685 1005.8 281.52C1005.8 279.86316 1007.1431 278.52 1008.8 278.52C1010.45685 278.52 1011.8 279.86316 1011.8 281.52Z" fill-rule="nonzero"/><path fill="#000000" d="M46.7 591.5656Q46.7 590.03436 47.0125 589.1125Q47.325 588.175 47.934376 587.675Q48.559376 587.175 49.496876 587.175Q50.184376 587.175 50.7 587.45624Q51.23125 587.7375 51.575 588.26874Q51.91875 588.78436 52.10625 589.53436Q52.29375 590.28436 52.29375 591.5656Q52.29375 593.08124 51.98125 594.0031Q51.684376 594.925 51.059376 595.4406Q50.45 595.9406 49.496876 595.9406Q48.2625 595.9406 47.54375 595.05Q46.7 593.9875 46.7 591.5656ZM47.778126 591.5656Q47.778126 593.675 48.278126 594.3781Q48.778126 595.08124 49.496876 595.08124Q50.23125 595.08124 50.715626 594.3781Q51.215626 593.675 51.215626 591.5656Q51.215626 589.4406 50.715626 588.7531Q50.23125 588.05 49.48125 588.05Q48.7625 588.05 48.325 588.65936Q47.778126 589.4406 47.778126 591.5656Z" fill-rule="nonzero"/><path fill="#000000" d="M45.246876 465.50104L45.246876 466.51666L39.559376 466.51666Q39.559376 466.14166 39.684376 465.7823Q39.903126 465.20416 40.371876 464.64166Q40.85625 464.07916 41.7625 463.3448Q43.16875 462.18854 43.653126 461.51666Q44.153126 460.8448 44.153126 460.25104Q44.153126 459.62604 43.7 459.20416Q43.246876 458.76666 42.528126 458.76666Q41.7625 458.76666 41.309376 459.2198Q40.85625 459.6729 40.840626 460.4854L39.7625 460.37604Q39.871876 459.1573 40.590626 458.5323Q41.325 457.89166 42.559376 457.89166Q43.79375 457.89166 44.5125 458.57916Q45.23125 459.26666 45.23125 460.2823Q45.23125 460.7979 45.0125 461.2979Q44.809376 461.7823 44.309376 462.3448Q43.825 462.89166 42.7 463.8448Q41.746876 464.64166 41.465626 464.93854Q41.2 465.2198 41.028126 465.50104L45.246876 465.50104ZM46.7 464.26666L47.809376 464.1729Q47.934376 464.9854 48.371876 465.39166Q48.825 465.7979 49.465626 465.7979Q50.215626 465.7979 50.746876 465.2198Q51.278126 464.64166 51.278126 463.70416Q51.278126 462.7979 50.7625 462.2823Q50.2625 461.75104 49.434376 461.75104Q48.934376 461.75104 48.5125 461.9854Q48.10625 462.2198 47.871876 462.57916L46.8875 462.45416L47.715626 458.0479L51.996876 458.0479L51.996876 459.0479L48.559376 459.0479L48.10625 461.3604Q48.871876 460.81354 49.715626 460.81354Q50.840626 460.81354 51.60625 461.5948Q52.3875 462.37604 52.3875 463.6104Q52.3875 464.76666 51.715626 465.62604Q50.8875 466.6573 49.465626 466.6573Q48.29375 466.6573 47.54375 466.00104Q46.809376 465.3448 46.7 464.26666Z" fill-rule="nonzero"/><path fill="#000000" d="M39.7 334.98334L40.809376 334.8896Q40.934376 335.7021 41.371876 336.10834Q41.825 336.5146 42.465626 336.5146Q43.215626 336.5146 43.746876 335.93646Q44.278126 335.35834 44.278126 334.42084Q44.278126 333.5146 43.7625 332.99896Q43.2625 332.4677 42.434376 332.4677Q41.934376 332.4677 41.5125 332.7021Q41.10625 332.93646 40.871876 333.29584L39.8875 333.17084L40.715626 328.7646L44.996876 328.7646L44.996876 329.7646L41.559376 329.7646L41.10625 332.0771Q41.871876 331.5302 42.715626 331.5302Q43.840626 331.5302 44.60625 332.31146Q45.3875 333.0927 45.3875 334.3271Q45.3875 335.48334 44.715626 336.3427Q43.8875 337.37396 42.465626 337.37396Q41.29375 337.37396 40.54375 336.7177Q39.809376 336.06146 39.7 334.98334ZM46.7 332.99896Q46.7 331.4677 47.0125 330.54584Q47.325 329.60834 47.934376 329.10834Q48.559376 328.60834 49.496876 328.60834Q50.184376 328.60834 50.7 328.8896Q51.23125 329.17084 51.575 329.7021Q51.91875 330.2177 52.10625 330.9677Q52.29375 331.7177 52.29375 332.99896Q52.29375 334.5146 51.98125 335.43646Q51.684376 336.35834 51.059376 336.87396Q50.45 337.37396 49.496876 337.37396Q48.2625 337.37396 47.54375 336.48334Q46.7 335.42084 46.7 332.99896ZM47.778126 332.99896Q47.778126 335.10834 48.278126 335.81146Q48.778126 336.5146 49.496876 336.5146Q50.23125 336.5146 50.715626 335.81146Q51.215626 335.10834 51.215626 332.99896Q51.215626 330.87396 50.715626 330.18646Q50.23125 329.48334 49.48125 329.48334Q48.7625 329.48334 48.325 330.0927Q47.778126 330.87396 47.778126 332.99896Z" fill-rule="nonzero"/><path fill="#000000" d="M39.7625 200.48125L39.7625 199.46562L45.325 199.46562L45.325 200.29375Q44.5125 201.16875 43.7 202.62187Q42.903126 204.05937 42.465626 205.59062Q42.1375 206.66875 42.059376 207.95L40.965626 207.95Q40.98125 206.93437 41.35625 205.49687Q41.746876 204.05937 42.45 202.73125Q43.16875 201.40312 43.98125 200.48125L39.7625 200.48125ZM46.7 205.7L47.809376 205.60625Q47.934376 206.41875 48.371876 206.825Q48.825 207.23125 49.465626 207.23125Q50.215626 207.23125 50.746876 206.65312Q51.278126 206.075 51.278126 205.1375Q51.278126 204.23125 50.7625 203.71562Q50.2625 203.18437 49.434376 203.18437Q48.934376 203.18437 48.5125 203.41875Q48.10625 203.65312 47.871876 204.0125L46.8875 203.8875L47.715626 199.48125L51.996876 199.48125L51.996876 200.48125L48.559376 200.48125L48.10625 202.79375Q48.871876 202.24687 49.715626 202.24687Q50.840626 202.24687 51.60625 203.02812Q52.3875 203.80937 52.3875 205.04375Q52.3875 206.2 51.715626 207.05937Q50.8875 208.09062 49.465626 208.09062Q48.29375 208.09062 47.54375 207.43437Q46.809376 206.77812 46.7 205.7Z" fill-rule="nonzero"/><path fill="#000000" d="M36.66875 78.666664L35.621876 78.666664L35.621876 71.947914Q35.23125 72.30729 34.60625 72.68229Q33.996876 73.041664 33.5125 73.21354L33.5125 72.197914Q34.3875 71.77604 35.04375 71.197914Q35.715626 70.604164 35.996876 70.041664L36.66875 70.041664L36.66875 78.666664ZM39.7 74.43229Q39.7 72.90104 40.0125 71.979164Q40.325 71.041664 40.934376 70.541664Q41.559376 70.041664 42.496876 70.041664Q43.184376 70.041664 43.7 70.322914Q44.23125 70.604164 44.575 71.135414Q44.91875 71.65104 45.10625 72.40104Q45.29375 73.15104 45.29375 74.43229Q45.29375 75.947914 44.98125 76.86979Q44.684376 77.791664 44.059376 78.30729Q43.45 78.80729 42.496876 78.80729Q41.2625 78.80729 40.54375 77.916664Q39.7 76.854164 39.7 74.43229ZM40.778126 74.43229Q40.778126 76.541664 41.278126 77.24479Q41.778126 77.947914 42.496876 77.947914Q43.23125 77.947914 43.715626 77.24479Q44.215626 76.541664 44.215626 74.43229Q44.215626 72.30729 43.715626 71.61979Q43.23125 70.916664 42.48125 70.916664Q41.7625 70.916664 41.325 71.52604Q40.778126 72.30729 40.778126 74.43229ZM46.7 74.43229Q46.7 72.90104 47.0125 71.979164Q47.325 71.041664 47.934376 70.541664Q48.559376 70.041664 49.496876 70.041664Q50.184376 70.041664 50.7 70.322914Q51.23125 70.604164 51.575 71.135414Q51.91875 71.65104 52.10625 72.40104Q52.29375 73.15104 52.29375 74.43229Q52.29375 75.947914 51.98125 76.86979Q51.684376 77.791664 51.059376 78.30729Q50.45 78.80729 49.496876 78.80729Q48.2625 78.80729 47.54375 77.916664Q46.7 76.854164 46.7 74.43229ZM47.778126 74.43229Q47.778126 76.541664 48.278126 77.24479Q48.778126 77.947914 49.496876 77.947914Q50.23125 77.947914 50.715626 77.24479Q51.215626 76.541664 51.215626 74.43229Q51.215626 72.30729 50.715626 71.61979Q50.23125 70.916664 49.48125 70.916664Q48.7625 70.916664 48.325 71.52604Q47.778126 72.30729 47.778126 74.43229Z" fill-rule="nonzero"/><path fill="#000000" d="M53.16875 602.3156L52.121876 602.39374Q51.98125 601.76874 51.73125 601.4875Q51.29375 601.03436 50.66875 601.03436Q50.16875 601.03436 49.778126 601.3156Q49.29375 601.6906 48.996876 602.39374Q48.715626 603.08124 48.7 604.3625Q49.075 603.78436 49.621876 603.5031Q50.184376 603.22186 50.79375 603.22186Q51.840626 603.22186 52.575 604.0031Q53.325 604.78436 53.325 606.0031Q53.325 606.8156 52.965626 607.51874Q52.621876 608.20624 52.0125 608.58124Q51.403126 608.9406 50.6375 608.9406Q49.309376 608.9406 48.48125 607.97186Q47.653126 607.0031 47.653126 604.78436Q47.653126 602.28436 48.575 601.15936Q49.371876 600.175 50.73125 600.175Q51.746876 600.175 52.3875 600.7531Q53.04375 601.3156 53.16875 602.3156ZM48.871876 606.01874Q48.871876 606.5656 49.090626 607.0656Q49.325 607.55 49.73125 607.8156Q50.153126 608.08124 50.621876 608.08124Q51.278126 608.08124 51.7625 607.55Q52.246876 607.0031 52.246876 606.08124Q52.246876 605.1906 51.7625 604.675Q51.29375 604.15936 50.575 604.15936Q49.85625 604.15936 49.35625 604.675Q48.871876 605.1906 48.871876 606.01874ZM55.278126 603.78436L55.278126 602.58124L56.48125 602.58124L56.48125 603.78436L55.278126 603.78436ZM55.278126 608.8L55.278126 607.59686L56.48125 607.59686L56.48125 608.8L55.278126 608.8ZM57.7 604.5656Q57.7 603.03436 58.0125 602.1125Q58.325 601.175 58.934376 600.675Q59.559376 600.175 60.496876 600.175Q61.184376 600.175 61.7 600.45624Q62.23125 600.7375 62.575 601.26874Q62.91875 601.78436 63.10625 602.53436Q63.29375 603.28436 63.29375 604.5656Q63.29375 606.08124 62.98125 607.0031Q62.684376 607.925 62.059376 608.4406Q61.45 608.9406 60.496876 608.9406Q59.2625 608.9406 58.54375 608.05Q57.7 606.9875 57.7 604.5656ZM58.778126 604.5656Q58.778126 606.675 59.278126 607.3781Q59.778126 608.08124 60.496876 608.08124Q61.23125 608.08124 61.715626 607.3781Q62.215626 606.675 62.215626 604.5656Q62.215626 602.4406 61.715626 601.7531Q61.23125 601.05 60.48125 601.05Q59.7625 601.05 59.325 601.65936Q58.778126 602.4406 58.778126 604.5656ZM64.7 604.5656Q64.7 603.03436 65.0125 602.1125Q65.325 601.175 65.93437 600.675Q66.55937 600.175 67.49687 600.175Q68.18437 600.175 68.7 600.45624Q69.23125 600.7375 69.575 601.26874Q69.91875 601.78436 70.10625 602.53436Q70.29375 603.28436 70.29375 604.5656Q70.29375 606.08124 69.98125 607.0031Q69.68437 607.925 69.05937 608.4406Q68.45 608.9406 67.49687 608.9406Q66.2625 608.9406 65.54375 608.05Q64.7 606.9875 64.7 604.5656ZM65.77812 604.5656Q65.77812 606.675 66.27812 607.3781Q66.77812 608.08124 67.49687 608.08124Q68.23125 608.08124 68.71562 607.3781Q69.21562 606.675 69.21562 604.5656Q69.21562 602.4406 68.71562 601.7531Q68.23125 601.05 67.48125 601.05Q66.7625 601.05 66.325 601.65936Q65.77812 602.4406 65.77812 604.5656Z" fill-rule="nonzero"/><path fill="#000000" d="M237.77625 606.8156L238.79187 606.72186Q238.91687 607.4406 239.27625 607.76874Q239.65125 608.08124 240.21375 608.08124Q240.69812 608.08124 241.0575 607.8625Q241.4325 607.6281 241.66687 607.26874Q241.90125 606.89374 242.0575 606.26874Q242.21375 605.6281 242.21375 604.97186Q242.21375 604.89374 242.21375 604.7531Q241.90125 605.2531 241.35437 605.58124Q240.8075 605.89374 240.16687 605.89374Q239.08875 605.89374 238.35437 605.1281Q237.62 604.34686 237.62 603.08124Q237.62 601.76874 238.38562 600.97186Q239.16687 600.175 240.32312 600.175Q241.15125 600.175 241.83875 600.6281Q242.54187 601.08124 242.90125 601.925Q243.26062 602.7531 243.26062 604.33124Q243.26062 605.97186 242.90125 606.95624Q242.5575 607.925 241.83875 608.4406Q241.13562 608.9406 240.19812 608.9406Q239.1825 608.9406 238.54187 608.39374Q237.90125 607.83124 237.77625 606.8156ZM242.08875 603.01874Q242.08875 602.1125 241.60437 601.58124Q241.13562 601.05 240.44812 601.05Q239.745 601.05 239.21375 601.6281Q238.69812 602.1906 238.69812 603.1125Q238.69812 603.925 239.19812 604.4406Q239.69812 604.95624 240.41687 604.95624Q241.15125 604.95624 241.62 604.4406Q242.08875 603.925 242.08875 603.01874ZM245.19812 603.78436L245.19812 602.58124L246.40125 602.58124L246.40125 603.78436L245.19812 603.78436ZM245.19812 608.8L245.19812 607.59686L246.40125 607.59686L246.40125 608.8L245.19812 608.8ZM247.62 604.5656Q247.62 603.03436 247.9325 602.1125Q248.245 601.175 248.85437 600.675Q249.47937 600.175 250.41687 600.175Q251.10437 600.175 251.62 600.45624Q252.15125 600.7375 252.495 601.26874Q252.83875 601.78436 253.02625 602.53436Q253.21375 603.28436 253.21375 604.5656Q253.21375 606.08124 252.90125 607.0031Q252.60437 607.925 251.97937 608.4406Q251.37 608.9406 250.41687 608.9406Q249.1825 608.9406 248.46375 608.05Q247.62 606.9875 247.62 604.5656ZM248.69812 604.5656Q248.69812 606.675 249.19812 607.3781Q249.69812 608.08124 250.41687 608.08124Q251.15125 608.08124 251.63562 607.3781Q252.13562 606.675 252.13562 604.5656Q252.13562 602.4406 251.63562 601.7531Q251.15125 601.05 250.40125 601.05Q249.6825 601.05 249.245 601.65936Q248.69812 602.4406 248.69812 604.5656ZM254.62 604.5656Q254.62 603.03436 254.9325 602.1125Q255.245 601.175 255.85437 600.675Q256.47937 600.175 257.41687 600.175Q258.10437 600.175 258.62 600.45624Q259.15125 600.7375 259.495 601.26874Q259.83875 601.78436 260.02625 602.53436Q260.21375 603.28436 260.21375 604.5656Q260.21375 606.08124 259.90125 607.0031Q259.60437 607.925 258.97937 608.4406Q258.37 608.9406 257.41687 608.9406Q256.1825 608.9406 255.46375 608.05Q254.62 606.9875 254.62 604.5656ZM255.69812 604.5656Q255.69812 606.675 256.19812 607.3781Q256.69812 608.08124 257.41687 608.08124Q258.15125 608.08124 258.63562 607.3781Q259.13562 606.675 259.13562 604.5656Q259.13562 602.4406 258.63562 601.7531Q258.15125 601.05 257.40125 601.05Q256.6825 601.05 256.245 601.65936Q255.69812 602.4406 255.69812 604.5656Z" fill-rule="nonzero"/><path fill="#000000" d="M428.00876 608.8L426.96188 608.8L426.96188 602.08124Q426.57126 602.4406 425.94626 602.8156Q425.33688 603.175 424.8525 603.34686L424.8525 602.33124Q425.7275 601.90936 426.38376 601.33124Q427.05563 600.7375 427.33688 600.175L428.00876 600.175L428.00876 608.8ZM436.58688 607.78436L436.58688 608.8L430.89938 608.8Q430.89938 608.425 431.02438 608.0656Q431.24313 607.4875 431.71188 606.925Q432.19626 606.3625 433.1025 605.6281Q434.50876 604.47186 434.99313 603.8Q435.49313 603.1281 435.49313 602.53436Q435.49313 601.90936 435.04 601.4875Q434.58688 601.05 433.86813 601.05Q433.1025 601.05 432.64938 601.5031Q432.19626 601.95624 432.18063 602.76874L431.1025 602.65936Q431.21188 601.4406 431.93063 600.8156Q432.665 600.175 433.89938 600.175Q435.13376 600.175 435.8525 600.8625Q436.57126 601.55 436.57126 602.5656Q436.57126 603.08124 436.3525 603.58124Q436.14938 604.0656 435.64938 604.6281Q435.165 605.175 434.04 606.1281Q433.08688 606.925 432.80563 607.22186Q432.54 607.5031 432.36813 607.78436L436.58688 607.78436ZM438.61813 603.78436L438.61813 602.58124L439.82126 602.58124L439.82126 603.78436L438.61813 603.78436ZM438.61813 608.8L438.61813 607.59686L439.82126 607.59686L439.82126 608.8L438.61813 608.8ZM441.04 604.5656Q441.04 603.03436 441.3525 602.1125Q441.665 601.175 442.27438 600.675Q442.89938 600.175 443.83688 600.175Q444.52438 600.175 445.04 600.45624Q445.57126 600.7375 445.915 601.26874Q446.25876 601.78436 446.44626 602.53436Q446.63376 603.28436 446.63376 604.5656Q446.63376 606.08124 446.32126 607.0031Q446.02438 607.925 445.39938 608.4406Q444.79 608.9406 443.83688 608.9406Q442.6025 608.9406 441.88376 608.05Q441.04 606.9875 441.04 604.5656ZM442.11813 604.5656Q442.11813 606.675 442.61813 607.3781Q443.11813 608.08124 443.83688 608.08124Q444.57126 608.08124 445.05563 607.3781Q445.55563 606.675 445.55563 604.5656Q445.55563 602.4406 445.05563 601.7531Q444.57126 601.05 443.82126 601.05Q443.1025 601.05 442.665 601.65936Q442.11813 602.4406 442.11813 604.5656ZM448.04 604.5656Q448.04 603.03436 448.3525 602.1125Q448.665 601.175 449.27438 600.675Q449.89938 600.175 450.83688 600.175Q451.52438 600.175 452.04 600.45624Q452.57126 600.7375 452.915 601.26874Q453.25876 601.78436 453.44626 602.53436Q453.63376 603.28436 453.63376 604.5656Q453.63376 606.08124 453.32126 607.0031Q453.02438 607.925 452.39938 608.4406Q451.79 608.9406 450.83688 608.9406Q449.6025 608.9406 448.88376 608.05Q448.04 606.9875 448.04 604.5656ZM449.11813 604.5656Q449.11813 606.675 449.61813 607.3781Q450.11813 608.08124 450.83688 608.08124Q451.57126 608.08124 452.05563 607.3781Q452.55563 606.675 452.55563 604.5656Q452.55563 602.4406 452.05563 601.7531Q451.57126 601.05 450.82126 601.05Q450.1025 601.05 449.665 601.65936Q449.11813 602.4406 449.11813 604.5656Z" fill-rule="nonzero"/><path fill="#000000" d="M617.9288 608.8L616.8819 608.8L616.8819 602.08124Q616.4913 602.4406 615.8663 602.8156Q615.2569 603.175 614.7725 603.34686L614.7725 602.33124Q615.6475 601.90936 616.3038 601.33124Q616.97565 600.7375 617.2569 600.175L617.9288 600.175L617.9288 608.8ZM620.96 606.55L622.0694 606.45624Q622.1944 607.26874 622.6319 607.675Q623.085 608.08124 623.72565 608.08124Q624.47565 608.08124 625.0069 607.5031Q625.53815 606.925 625.53815 605.9875Q625.53815 605.08124 625.0225 604.5656Q624.5225 604.03436 623.6944 604.03436Q623.1944 604.03436 622.7725 604.26874Q622.3663 604.5031 622.1319 604.8625L621.1475 604.7375L621.97565 600.33124L626.2569 600.33124L626.2569 601.33124L622.8194 601.33124L622.3663 603.64374Q623.1319 603.09686 623.97565 603.09686Q625.10065 603.09686 625.8663 603.8781Q626.6475 604.65936 626.6475 605.89374Q626.6475 607.05 625.97565 607.90936Q625.1475 608.9406 623.72565 608.9406Q622.5538 608.9406 621.8038 608.28436Q621.0694 607.6281 620.96 606.55ZM628.53815 603.78436L628.53815 602.58124L629.7413 602.58124L629.7413 603.78436L628.53815 603.78436ZM628.53815 608.8L628.53815 607.59686L629.7413 607.59686L629.7413 608.8L628.53815 608.8ZM630.96 604.5656Q630.96 603.03436 631.2725 602.1125Q631.585 601.175 632.1944 600.675Q632.8194 600.175 633.7569 600.175Q634.4444 600.175 634.96 600.45624Q635.4913 600.7375 635.835 601.26874Q636.1788 601.78436 636.3663 602.53436Q636.5538 603.28436 636.5538 604.5656Q636.5538 606.08124 636.2413 607.0031Q635.9444 607.925 635.3194 608.4406Q634.71 608.9406 633.7569 608.9406Q632.5225 608.9406 631.8038 608.05Q630.96 606.9875 630.96 604.5656ZM632.03815 604.5656Q632.03815 606.675 632.53815 607.3781Q633.03815 608.08124 633.7569 608.08124Q634.4913 608.08124 634.97565 607.3781Q635.47565 606.675 635.47565 604.5656Q635.47565 602.4406 634.97565 601.7531Q634.4913 601.05 633.7413 601.05Q633.0225 601.05 632.585 601.65936Q632.03815 602.4406 632.03815 604.5656ZM637.96 604.5656Q637.96 603.03436 638.2725 602.1125Q638.585 601.175 639.1944 600.675Q639.8194 600.175 640.7569 600.175Q641.4444 600.175 641.96 600.45624Q642.4913 600.7375 642.835 601.26874Q643.1788 601.78436 643.3663 602.53436Q643.5538 603.28436 643.5538 604.5656Q643.5538 606.08124 643.2413 607.0031Q642.9444 607.925 642.3194 608.4406Q641.71 608.9406 640.7569 608.9406Q639.5225 608.9406 638.8038 608.05Q637.96 606.9875 637.96 604.5656ZM639.03815 604.5656Q639.03815 606.675 639.53815 607.3781Q640.03815 608.08124 640.7569 608.08124Q641.4913 608.08124 641.97565 607.3781Q642.47565 606.675 642.47565 604.5656Q642.47565 602.4406 641.97565 601.7531Q641.4913 601.05 640.7413 601.05Q640.0225 601.05 639.585 601.65936Q639.03815 602.4406 639.03815 604.5656Z" fill-rule="nonzero"/><path fill="#000000" d="M807.84875 608.8L806.8019 608.8L806.8019 602.08124Q806.41125 602.4406 805.78625 602.8156Q805.1769 603.175 804.6925 603.34686L804.6925 602.33124Q805.5675 601.90936 806.22375 601.33124Q806.8956 600.7375 807.1769 600.175L807.84875 600.175L807.84875 608.8ZM812.505 604.14374Q811.84875 603.89374 811.5206 603.45624Q811.2081 603.0031 811.2081 602.39374Q811.2081 601.45624 811.88 600.8156Q812.5675 600.175 813.6769 600.175Q814.8019 600.175 815.4894 600.83124Q816.1769 601.4875 816.1769 602.425Q816.1769 603.01874 815.8644 603.45624Q815.5519 603.89374 814.91125 604.14374Q815.7081 604.39374 816.1144 604.97186Q816.5206 605.55 816.5206 606.34686Q816.5206 607.4406 815.7394 608.1906Q814.97375 608.9406 813.6925 608.9406Q812.4269 608.9406 811.6456 608.1906Q810.8644 607.4406 810.8644 606.3156Q810.8644 605.47186 811.28625 604.90936Q811.72375 604.34686 812.505 604.14374ZM812.28625 602.34686Q812.28625 602.95624 812.6769 603.34686Q813.0831 603.7375 813.7081 603.7375Q814.3175 603.7375 814.7081 603.3625Q815.09875 602.97186 815.09875 602.40936Q815.09875 601.83124 814.6925 601.4406Q814.28625 601.03436 813.6925 601.03436Q813.0831 601.03436 812.6769 601.425Q812.28625 601.8156 812.28625 602.34686ZM811.9581 606.3156Q811.9581 606.76874 812.16125 607.1906Q812.38 607.6125 812.8019 607.84686Q813.22375 608.08124 813.7081 608.08124Q814.4581 608.08124 814.9425 607.59686Q815.4425 607.1125 815.4425 606.3625Q815.4425 605.59686 814.9425 605.09686Q814.4425 604.59686 813.6769 604.59686Q812.9269 604.59686 812.4425 605.09686Q811.9581 605.58124 811.9581 606.3156ZM818.4581 603.78436L818.4581 602.58124L819.66125 602.58124L819.66125 603.78436L818.4581 603.78436ZM818.4581 608.8L818.4581 607.59686L819.66125 607.59686L819.66125 608.8L818.4581 608.8ZM820.88 604.5656Q820.88 603.03436 821.1925 602.1125Q821.505 601.175 822.1144 600.675Q822.7394 600.175 823.6769 600.175Q824.3644 600.175 824.88 600.45624Q825.41125 600.7375 825.755 601.26874Q826.09875 601.78436 826.28625 602.53436Q826.47375 603.28436 826.47375 604.5656Q826.47375 606.08124 826.16125 607.0031Q825.8644 607.925 825.2394 608.4406Q824.63 608.9406 823.6769 608.9406Q822.4425 608.9406 821.72375 608.05Q820.88 606.9875 820.88 604.5656ZM821.9581 604.5656Q821.9581 606.675 822.4581 607.3781Q822.9581 608.08124 823.6769 608.08124Q824.41125 608.08124 824.8956 607.3781Q825.3956 606.675 825.3956 604.5656Q825.3956 602.4406 824.8956 601.7531Q824.41125 601.05 823.66125 601.05Q822.9425 601.05 822.505 601.65936Q821.9581 602.4406 821.9581 604.5656ZM827.88 604.5656Q827.88 603.03436 828.1925 602.1125Q828.505 601.175 829.1144 600.675Q829.7394 600.175 830.6769 600.175Q831.3644 600.175 831.88 600.45624Q832.41125 600.7375 832.755 601.26874Q833.09875 601.78436 833.28625 602.53436Q833.47375 603.28436 833.47375 604.5656Q833.47375 606.08124 833.16125 607.0031Q832.8644 607.925 832.2394 608.4406Q831.63 608.9406 830.6769 608.9406Q829.4425 608.9406 828.72375 608.05Q827.88 606.9875 827.88 604.5656ZM828.9581 604.5656Q828.9581 606.675 829.4581 607.3781Q829.9581 608.08124 830.6769 608.08124Q831.41125 608.08124 831.8956 607.3781Q832.3956 606.675 832.3956 604.5656Q832.3956 602.4406 831.8956 601.7531Q831.41125 601.05 830.66125 601.05Q829.9425 601.05 829.505 601.65936Q828.9581 602.4406 828.9581 604.5656Z" fill-rule="nonzero"/><path fill="#000000" d="M999.34686 607.78436L999.34686 608.8L993.65936 608.8Q993.65936 608.425 993.78436 608.0656Q994.0031 607.4875 994.47186 606.925Q994.95624 606.3625 995.8625 605.6281Q997.26874 604.47186 997.7531 603.8Q998.2531 603.1281 998.2531 602.53436Q998.2531 601.90936 997.8 601.4875Q997.34686 601.05 996.6281 601.05Q995.8625 601.05 995.40936 601.5031Q994.95624 601.95624 994.9406 602.76874L993.8625 602.65936Q993.97186 601.4406 994.6906 600.8156Q995.425 600.175 996.65936 600.175Q997.89374 600.175 998.6125 600.8625Q999.33124 601.55 999.33124 602.5656Q999.33124 603.08124 999.1125 603.58124Q998.90936 604.0656 998.40936 604.6281Q997.925 605.175 996.8 606.1281Q995.84686 606.925 995.5656 607.22186Q995.3 607.5031 995.1281 607.78436L999.34686 607.78436ZM1004.76874 608.8L1003.72186 608.8L1003.72186 602.08124Q1003.33124 602.4406 1002.70624 602.8156Q1002.09686 603.175 1001.6125 603.34686L1001.6125 602.33124Q1002.4875 601.90936 1003.14374 601.33124Q1003.8156 600.7375 1004.09686 600.175L1004.76874 600.175L1004.76874 608.8ZM1008.3781 603.78436L1008.3781 602.58124L1009.58124 602.58124L1009.58124 603.78436L1008.3781 603.78436ZM1008.3781 608.8L1008.3781 607.59686L1009.58124 607.59686L1009.58124 608.8L1008.3781 608.8ZM1010.8 604.5656Q1010.8 603.03436 1011.1125 602.1125Q1011.425 601.175 1012.03436 600.675Q1012.65936 600.175 1013.59686 600.175Q1014.28436 600.175 1014.8 600.45624Q1015.33124 600.7375 1015.675 601.26874Q1016.01874 601.78436 1016.20624 602.53436Q1016.39374 603.28436 1016.39374 604.5656Q1016.39374 606.08124 1016.08124 607.0031Q1015.78436 607.925 1015.15936 608.4406Q1014.55 608.9406 1013.59686 608.9406Q1012.3625 608.9406 1011.64374 608.05Q1010.8 606.9875 1010.8 604.5656ZM1011.8781 604.5656Q1011.8781 606.675 1012.3781 607.3781Q1012.8781 608.08124 1013.59686 608.08124Q1014.33124 608.08124 1014.8156 607.3781Q1015.3156 606.675 1015.3156 604.5656Q1015.3156 602.4406 1014.8156 601.7531Q1014.33124 601.05 1013.58124 601.05Q1012.8625 601.05 1012.425 601.65936Q1011.8781 602.4406 1011.8781 604.5656ZM1017.8 604.5656Q1017.8 603.03436 1018.1125 602.1125Q1018.425 601.175 1019.03436 600.675Q1019.65936 600.175 1020.59686 600.175Q1021.28436 600.175 1021.8 600.45624Q1022.33124 600.7375 1022.675 601.26874Q1023.01874 601.78436 1023.20624 602.53436Q1023.39374 603.28436 1023.39374 604.5656Q1023.39374 606.08124 1023.08124 607.0031Q1022.78436 607.925 1022.15936 608.4406Q1021.55 608.9406 1020.59686 608.9406Q1019.3625 608.9406 1018.64374 608.05Q1017.8 606.9875 1017.8 604.5656ZM1018.8781 604.5656Q1018.8781 606.675 1019.3781 607.3781Q1019.8781 608.08124 1020.59686 608.08124Q1021.33124 608.08124 1021.8156 607.3781Q1022.3156 606.675 1022.3156 604.5656Q1022.3156 602.4406 1021.8156 601.7531Q1021.33124 601.05 1020.58124 601.05Q1019.8625 601.05 1019.425 601.65936Q1018.8781 602.4406 1018.8781 604.5656Z" fill-rule="nonzero"/><path stroke="#20124d" stroke-width="4.0" stroke-linecap="butt" d="M349.5 39.2L361.5 39.2" fill-rule="nonzero"/><path fill="#1a1a1a" d="M372.60938 43.2L372.60938 35.621876L369.78125 35.621876L369.78125 34.60625L376.59375 34.60625L376.59375 35.621876L373.75 35.621876L373.75 43.2L372.60938 43.2ZM377.28125 43.2L377.28125 36.98125L378.23438 36.98125L378.23438 37.91875Q378.59375 37.2625 378.89062 37.059376Q379.20312 36.840626 379.57812 36.840626Q380.10938 36.840626 380.65625 37.16875L380.29688 38.153126Q379.90625 37.91875 379.53125 37.91875Q379.17188 37.91875 378.89062 38.1375Q378.625 38.340626 378.51562 38.715626Q378.32812 39.278126 378.32812 39.934376L378.32812 43.2L377.28125 43.2ZM385.35938 42.434376Q384.76562 42.934376 384.21875 43.1375Q383.6875 43.340626 383.0625 43.340626Q382.03125 43.340626 381.48438 42.840626Q380.9375 42.340626 380.9375 41.559376Q380.9375 41.10625 381.14062 40.73125Q381.34375 40.340626 381.6875 40.121876Q382.03125 39.8875 382.45312 39.778126Q382.75 39.684376 383.39062 39.60625Q384.65625 39.465626 385.26562 39.246876Q385.26562 39.028126 385.26562 38.98125Q385.26562 38.325 384.96875 38.059376Q384.5625 37.715626 383.76562 37.715626Q383.03125 37.715626 382.67188 37.98125Q382.3125 38.23125 382.14062 38.8875L381.10938 38.746876Q381.25 38.090626 381.57812 37.684376Q381.90625 37.278126 382.51562 37.059376Q383.125 36.840626 383.92188 36.840626Q384.71875 36.840626 385.21875 37.028126Q385.71875 37.215626 385.95312 37.496876Q386.1875 37.778126 386.28125 38.215626Q386.32812 38.48125 386.32812 39.184376L386.32812 40.590626Q386.32812 42.059376 386.39062 42.45Q386.46875 42.840626 386.67188 43.2L385.5625 43.2Q385.40625 42.871876 385.35938 42.434376ZM385.26562 40.075Q384.6875 40.309376 383.54688 40.48125Q382.89062 40.575 382.625 40.7Q382.35938 40.809376 382.20312 41.028126Q382.0625 41.246876 382.0625 41.528126Q382.0625 41.95 382.375 42.23125Q382.70312 42.5125 383.3125 42.5125Q383.92188 42.5125 384.39062 42.246876Q384.875 41.98125 385.09375 41.5125Q385.26562 41.153126 385.26562 40.465626L385.26562 40.075ZM388.54688 43.2L388.54688 37.79375L387.60938 37.79375L387.60938 36.98125L388.54688 36.98125L388.54688 36.309376Q388.54688 35.684376 388.65625 35.3875Q388.8125 34.965626 389.1875 34.715626Q389.57812 34.465626 390.26562 34.465626Q390.71875 34.465626 391.25 34.575L391.09375 35.48125Q390.76562 35.434376 390.46875 35.434376Q389.98438 35.434376 389.78125 35.6375Q389.59375 35.840626 389.59375 36.403126L389.59375 36.98125L390.8125 36.98125L390.8125 37.79375L389.59375 37.79375L389.59375 43.2L388.54688 43.2ZM391.54688 43.2L391.54688 37.79375L390.60938 37.79375L390.60938 36.98125L391.54688 36.98125L391.54688 36.309376Q391.54688 35.684376 391.65625 35.3875Q391.8125 34.965626 392.1875 34.715626Q392.57812 34.465626 393.26562 34.465626Q393.71875 34.465626 394.25 34.575L394.09375 35.48125Q393.76562 35.434376 393.46875 35.434376Q392.98438 35.434376 392.78125 35.6375Q392.59375 35.840626 392.59375 36.403126L392.59375 36.98125L393.8125 36.98125L393.8125 37.79375L392.59375 37.79375L392.59375 43.2L391.54688 43.2ZM394.29688 35.825L394.29688 34.60625L395.35938 34.60625L395.35938 35.825L394.29688 35.825ZM394.29688 43.2L394.29688 36.98125L395.35938 36.98125L395.35938 43.2L394.29688 43.2ZM401.35938 40.91875L402.39062 41.059376Q402.21875 42.121876 401.51562 42.73125Q400.8125 43.340626 399.79688 43.340626Q398.51562 43.340626 397.73438 42.5125Q396.96875 41.66875 396.96875 40.10625Q396.96875 39.10625 397.29688 38.35625Q397.64062 37.590626 398.3125 37.215626Q399.0 36.840626 399.8125 36.840626Q400.8125 36.840626 401.45312 37.35625Q402.10938 37.85625 402.29688 38.809376L401.26562 38.965626Q401.125 38.340626 400.75 38.028126Q400.375 37.7 399.84375 37.7Q399.04688 37.7 398.54688 38.278126Q398.04688 38.840626 398.04688 40.075Q398.04688 41.340626 398.53125 41.903126Q399.01562 42.465626 399.78125 42.465626Q400.40625 42.465626 400.8125 42.090626Q401.23438 41.715626 401.35938 40.91875Z" fill-rule="nonzero"/><path stroke="#999999" stroke-width="4.0" stroke-linecap="butt" stroke-dasharray="13.0,9.0" d="M418.5 39.2L453.5 39.2" fill-rule="nonzero"/><path fill="#1a1a1a" d="M462.07812 39.0125Q462.07812 36.871876 463.21875 35.66875Q464.375 34.45 466.1875 34.45Q467.39062 34.45 468.34375 35.028126Q469.29688 35.590626 469.79688 36.60625Q470.29688 37.621876 470.29688 38.91875Q470.29688 40.215626 469.76562 41.246876Q469.23438 42.278126 468.26562 42.809376Q467.3125 43.340626 466.1875 43.340626Q464.96875 43.340626 464.01562 42.7625Q463.0625 42.16875 462.5625 41.16875Q462.07812 40.153126 462.07812 39.0125ZM463.25 39.028126Q463.25 40.590626 464.07812 41.48125Q464.92188 42.371876 466.1875 42.371876Q467.46875 42.371876 468.29688 41.48125Q469.125 40.575 469.125 38.903126Q469.125 37.85625 468.76562 37.075Q468.42188 36.29375 467.73438 35.871876Q467.04688 35.434376 466.20312 35.434376Q465.0 35.434376 464.125 36.2625Q463.25 37.090626 463.25 39.028126ZM473.01562 43.2L470.65625 36.98125L471.76562 36.98125L473.10938 40.7Q473.3125 41.309376 473.5 41.95Q473.64062 41.465626 473.89062 40.778126L475.28125 36.98125L476.35938 36.98125L474.0 43.2L473.01562 43.2ZM480.54688 41.2L481.64062 41.325Q481.39062 42.278126 480.6875 42.809376Q479.98438 43.340626 478.90625 43.340626Q477.54688 43.340626 476.73438 42.496876Q475.9375 41.653126 475.9375 40.1375Q475.9375 38.575 476.75 37.715626Q477.5625 36.840626 478.84375 36.840626Q480.09375 36.840626 480.875 37.684376Q481.67188 38.528126 481.67188 40.075Q481.67188 40.16875 481.67188 40.35625L477.03125 40.35625Q477.09375 41.3875 477.60938 41.934376Q478.125 42.465626 478.90625 42.465626Q479.48438 42.465626 479.89062 42.16875Q480.3125 41.85625 480.54688 41.2ZM477.09375 39.496876L480.5625 39.496876Q480.5 38.7 480.17188 38.309376Q479.65625 37.7 478.85938 37.7Q478.125 37.7 477.625 38.184376Q477.14062 38.66875 477.09375 39.496876ZM483.28125 43.2L483.28125 36.98125L484.23438 36.98125L484.23438 37.91875Q484.59375 37.2625 484.89062 37.059376Q485.20312 36.840626 485.57812 36.840626Q486.10938 36.840626 486.65625 37.16875L486.29688 38.153126Q485.90625 37.91875 485.53125 37.91875Q485.17188 37.91875 484.89062 38.1375Q484.625 38.340626 484.51562 38.715626Q484.32812 39.278126 484.32812 39.934376L484.32812 43.2L483.28125 43.2ZM494.35938 42.434376Q493.76562 42.934376 493.21875 43.1375Q492.6875 43.340626 492.0625 43.340626Q491.03125 43.340626 490.48438 42.840626Q489.9375 42.340626 489.9375 41.559376Q489.9375 41.10625 490.14062 40.73125Q490.34375 40.340626 490.6875 40.121876Q491.03125 39.8875 491.45312 39.778126Q491.75 39.684376 492.39062 39.60625Q493.65625 39.465626 494.26562 39.246876Q494.26562 39.028126 494.26562 38.98125Q494.26562 38.325 493.96875 38.059376Q493.5625 37.715626 492.76562 37.715626Q492.03125 37.715626 491.67188 37.98125Q491.3125 38.23125 491.14062 38.8875L490.10938 38.746876Q490.25 38.090626 490.57812 37.684376Q490.90625 37.278126 491.51562 37.059376Q492.125 36.840626 492.92188 36.840626Q493.71875 36.840626 494.21875 37.028126Q494.71875 37.215626 494.95312 37.496876Q495.1875 37.778126 495.28125 38.215626Q495.32812 38.48125 495.32812 39.184376L495.32812 40.590626Q495.32812 42.059376 495.39062 42.45Q495.46875 42.840626 495.67188 43.2L494.5625 43.2Q494.40625 42.871876 494.35938 42.434376ZM494.26562 40.075Q493.6875 40.309376 492.54688 40.48125Q491.89062 40.575 491.625 40.7Q491.35938 40.809376 491.20312 41.028126Q491.0625 41.246876 491.0625 41.528126Q491.0625 41.95 491.375 42.23125Q491.70312 42.5125 492.3125 42.5125Q492.92188 42.5125 493.39062 42.246876Q493.875 41.98125 494.09375 41.5125Q494.26562 41.153126 494.26562 40.465626L494.26562 40.075ZM497.26562 43.2L497.26562 34.60625L498.32812 34.60625L498.32812 43.2L497.26562 43.2ZM500.26562 43.2L500.26562 34.60625L501.32812 34.60625L501.32812 43.2L500.26562 43.2ZM502.90625 40.090626Q502.90625 38.35625 503.85938 37.528126Q504.65625 36.840626 505.8125 36.840626Q507.09375 36.840626 507.90625 37.684376Q508.73438 38.5125 508.73438 39.996876Q508.73438 41.2 508.375 41.8875Q508.01562 42.575 507.3125 42.965626Q506.625 43.340626 505.8125 43.340626Q504.51562 43.340626 503.70312 42.5125Q502.90625 41.66875 502.90625 40.090626ZM503.98438 40.090626Q503.98438 41.278126 504.5 41.871876Q505.03125 42.465626 505.8125 42.465626Q506.60938 42.465626 507.125 41.871876Q507.64062 41.278126 507.64062 40.059376Q507.64062 38.903126 507.10938 38.309376Q506.59375 37.715626 505.8125 37.715626Q505.03125 37.715626 504.5 38.309376Q503.98438 38.8875 503.98438 40.090626ZM514.3594 40.91875L515.3906 41.059376Q515.21875 42.121876 514.5156 42.73125Q513.8125 43.340626 512.7969 43.340626Q511.51562 43.340626 510.73438 42.5125Q509.96875 41.66875 509.96875 40.10625Q509.96875 39.10625 510.29688 38.35625Q510.64062 37.590626 511.3125 37.215626Q512.0 36.840626 512.8125 36.840626Q513.8125 36.840626 514.4531 37.35625Q515.1094 37.85625 515.2969 38.809376L514.2656 38.965626Q514.125 38.340626 513.75 38.028126Q513.375 37.7 512.84375 37.7Q512.0469 37.7 511.54688 38.278126Q511.04688 38.840626 511.04688 40.075Q511.04688 41.340626 511.53125 41.903126Q512.0156 42.465626 512.78125 42.465626Q513.40625 42.465626 513.8125 42.090626Q514.2344 41.715626 514.3594 40.91875ZM520.3594 42.434376Q519.7656 42.934376 519.21875 43.1375Q518.6875 43.340626 518.0625 43.340626Q517.03125 43.340626 516.4844 42.840626Q515.9375 42.340626 515.9375 41.559376Q515.9375 41.10625 516.1406 40.73125Q516.34375 40.340626 516.6875 40.121876Q517.03125 39.8875 517.4531 39.778126Q517.75 39.684376 518.3906 39.60625Q519.65625 39.465626 520.2656 39.246876Q520.2656 39.028126 520.2656 38.98125Q520.2656 38.325 519.96875 38.059376Q519.5625 37.715626 518.7656 37.715626Q518.03125 37.715626 517.6719 37.98125Q517.3125 38.23125 517.1406 38.8875L516.1094 38.746876Q516.25 38.090626 516.5781 37.684376Q516.90625 37.278126 517.5156 37.059376Q518.125 36.840626 518.9219 36.840626Q519.71875 36.840626 520.21875 37.028126Q520.71875 37.215626 520.9531 37.496876Q521.1875 37.778126 521.28125 38.215626Q521.3281 38.48125 521.3281 39.184376L521.3281 40.590626Q521.3281 42.059376 521.3906 42.45Q521.46875 42.840626 521.6719 43.2L520.5625 43.2Q520.40625 42.871876 520.3594 42.434376ZM520.2656 40.075Q519.6875 40.309376 518.5469 40.48125Q517.8906 40.575 517.625 40.7Q517.3594 40.809376 517.2031 41.028126Q517.0625 41.246876 517.0625 41.528126Q517.0625 41.95 517.375 42.23125Q517.7031 42.5125 518.3125 42.5125Q518.9219 42.5125 519.3906 42.246876Q519.875 41.98125 520.09375 41.5125Q520.2656 41.153126 520.2656 40.465626L520.2656 40.075ZM525.59375 42.2625L525.75 43.184376Q525.2969 43.278126 524.9531 43.278126Q524.375 43.278126 524.0625 43.10625Q523.75 42.91875 523.6094 42.621876Q523.4844 42.325 523.4844 41.371876L523.4844 37.79375L522.71875 37.79375L522.71875 36.98125L523.4844 36.98125L523.4844 35.434376L524.53125 34.809376L524.53125 36.98125L525.59375 36.98125L525.59375 37.79375L524.53125 37.79375L524.53125 41.434376Q524.53125 41.8875 524.5781 42.0125Q524.6406 42.1375 524.7656 42.215626Q524.8906 42.29375 525.125 42.29375Q525.3125 42.29375 525.59375 42.2625ZM526.2969 35.825L526.2969 34.60625L527.3594 34.60625L527.3594 35.825L526.2969 35.825ZM526.2969 43.2L526.2969 36.98125L527.3594 36.98125L527.3594 43.2L526.2969 43.2ZM528.90625 40.090626Q528.90625 38.35625 529.8594 37.528126Q530.65625 36.840626 531.8125 36.840626Q533.09375 36.840626 533.90625 37.684376Q534.7344 38.5125 534.7344 39.996876Q534.7344 41.2 534.375 41.8875Q534.0156 42.575 533.3125 42.965626Q532.625 43.340626 531.8125 43.340626Q530.5156 43.340626 529.7031 42.5125Q528.90625 41.66875 528.90625 40.090626ZM529.9844 40.090626Q529.9844 41.278126 530.5 41.871876Q531.03125 42.465626 531.8125 42.465626Q532.6094 42.465626 533.125 41.871876Q533.6406 41.278126 533.6406 40.059376Q533.6406 38.903126 533.1094 38.309376Q532.59375 37.715626 531.8125 37.715626Q531.03125 37.715626 530.5 38.309376Q529.9844 38.8875 529.9844 40.090626ZM536.2969 43.2L536.2969 36.98125L537.2344 36.98125L537.2344 37.85625Q537.9219 36.840626 539.21875 36.840626Q539.78125 36.840626 540.25 37.04375Q540.7344 37.246876 540.96875 37.575Q541.2031 37.903126 541.2969 38.340626Q541.34375 38.6375 541.34375 39.371876L541.34375 43.2L540.2969 43.2L540.2969 39.41875Q540.2969 38.7625 540.1719 38.45Q540.0469 38.1375 539.7344 37.95Q539.4219 37.746876 539.0 37.746876Q538.3281 37.746876 537.8281 38.184376Q537.34375 38.60625 537.34375 39.79375L537.34375 43.2L536.2969 43.2Z" fill-rule="nonzero"/><path stroke="#ff0000" stroke-width="4.0" stroke-linecap="butt" stroke-dasharray="13.0,9.0" d="M558.5 39.2L593.5 39.2" fill-rule="nonzero"/><path fill="#1a1a1a" d="M608.0625 34.60625L609.2031 34.60625L609.2031 39.575Q609.2031 40.871876 608.90625 41.6375Q608.6094 42.3875 607.84375 42.871876Q607.0781 43.340626 605.84375 43.340626Q604.6406 43.340626 603.8594 42.934376Q603.09375 42.5125 602.7656 41.73125Q602.4375 40.934376 602.4375 39.575L602.4375 34.60625L603.5781 34.60625L603.5781 39.559376Q603.5781 40.684376 603.78125 41.215626Q604.0 41.746876 604.5 42.04375Q605.0156 42.325 605.75 42.325Q607.0 42.325 607.53125 41.7625Q608.0625 41.184376 608.0625 39.559376L608.0625 34.60625ZM611.2969 43.2L611.2969 36.98125L612.2344 36.98125L612.2344 37.85625Q612.9219 36.840626 614.21875 36.840626Q614.78125 36.840626 615.25 37.04375Q615.7344 37.246876 615.96875 37.575Q616.2031 37.903126 616.2969 38.340626Q616.34375 38.6375 616.34375 39.371876L616.34375 43.2L615.2969 43.2L615.2969 39.41875Q615.2969 38.7625 615.1719 38.45Q615.0469 38.1375 614.7344 37.95Q614.4219 37.746876 614.0 37.746876Q613.3281 37.746876 612.8281 38.184376Q612.34375 38.60625 612.34375 39.79375L612.34375 43.2L611.2969 43.2ZM622.3281 43.2L622.3281 42.41875Q621.7344 43.340626 620.59375 43.340626Q619.84375 43.340626 619.21875 42.934376Q618.59375 42.5125 618.25 41.778126Q617.90625 41.04375 617.90625 40.090626Q617.90625 39.16875 618.21875 38.403126Q618.53125 37.6375 619.15625 37.246876Q619.78125 36.840626 620.5469 36.840626Q621.1094 36.840626 621.5469 37.075Q621.9844 37.309376 622.2656 37.684376L622.2656 34.60625L623.3125 34.60625L623.3125 43.2L622.3281 43.2ZM619.0 40.090626Q619.0 41.29375 619.5 41.8875Q620.0 42.465626 620.6875 42.465626Q621.375 42.465626 621.8594 41.903126Q622.34375 41.340626 622.34375 40.184376Q622.34375 38.903126 621.84375 38.309376Q621.3594 37.715626 620.6406 37.715626Q619.9375 37.715626 619.46875 38.29375Q619.0 38.85625 619.0 40.090626ZM629.5469 41.2L630.6406 41.325Q630.3906 42.278126 629.6875 42.809376Q628.9844 43.340626 627.90625 43.340626Q626.5469 43.340626 625.7344 42.496876Q624.9375 41.653126 624.9375 40.1375Q624.9375 38.575 625.75 37.715626Q626.5625 36.840626 627.84375 36.840626Q629.09375 36.840626 629.875 37.684376Q630.6719 38.528126 630.6719 40.075Q630.6719 40.16875 630.6719 40.35625L626.03125 40.35625Q626.09375 41.3875 626.6094 41.934376Q627.125 42.465626 627.90625 42.465626Q628.4844 42.465626 628.8906 42.16875Q629.3125 41.85625 629.5469 41.2ZM626.09375 39.496876L629.5625 39.496876Q629.5 38.7 629.1719 38.309376Q628.65625 37.7 627.8594 37.7Q627.125 37.7 626.625 38.184376Q626.1406 38.66875 626.09375 39.496876ZM632.28125 43.2L632.28125 36.98125L633.2344 36.98125L633.2344 37.91875Q633.59375 37.2625 633.8906 37.059376Q634.2031 36.840626 634.5781 36.840626Q635.1094 36.840626 635.65625 37.16875L635.2969 38.153126Q634.90625 37.91875 634.53125 37.91875Q634.1719 37.91875 633.8906 38.1375Q633.625 38.340626 633.5156 38.715626Q633.3281 39.278126 633.3281 39.934376L633.3281 43.2L632.28125 43.2ZM643.3594 42.434376Q642.7656 42.934376 642.21875 43.1375Q641.6875 43.340626 641.0625 43.340626Q640.03125 43.340626 639.4844 42.840626Q638.9375 42.340626 638.9375 41.559376Q638.9375 41.10625 639.1406 40.73125Q639.34375 40.340626 639.6875 40.121876Q640.03125 39.8875 640.4531 39.778126Q640.75 39.684376 641.3906 39.60625Q642.65625 39.465626 643.2656 39.246876Q643.2656 39.028126 643.2656 38.98125Q643.2656 38.325 642.96875 38.059376Q642.5625 37.715626 641.7656 37.715626Q641.03125 37.715626 640.6719 37.98125Q640.3125 38.23125 640.1406 38.8875L639.1094 38.746876Q639.25 38.090626 639.5781 37.684376Q639.90625 37.278126 640.5156 37.059376Q641.125 36.840626 641.9219 36.840626Q642.71875 36.840626 643.21875 37.028126Q643.71875 37.215626 643.9531 37.496876Q644.1875 37.778126 644.28125 38.215626Q644.3281 38.48125 644.3281 39.184376L644.3281 40.590626Q644.3281 42.059376 644.3906 42.45Q644.46875 42.840626 644.6719 43.2L643.5625 43.2Q643.40625 42.871876 643.3594 42.434376ZM643.2656 40.075Q642.6875 40.309376 641.5469 40.48125Q640.8906 40.575 640.625 40.7Q640.3594 40.809376 640.2031 41.028126Q640.0625 41.246876 640.0625 41.528126Q640.0625 41.95 640.375 42.23125Q640.7031 42.5125 641.3125 42.5125Q641.9219 42.5125 642.3906 42.246876Q642.875 41.98125 643.09375 41.5125Q643.2656 41.153126 643.2656 40.465626L643.2656 40.075ZM646.2656 43.2L646.2656 34.60625L647.3281 34.60625L647.3281 43.2L646.2656 43.2ZM649.2656 43.2L649.2656 34.60625L650.3281 34.60625L650.3281 43.2L649.2656 43.2ZM651.90625 40.090626Q651.90625 38.35625 652.8594 37.528126Q653.65625 36.840626 654.8125 36.840626Q656.09375 36.840626 656.90625 37.684376Q657.7344 38.5125 657.7344 39.996876Q657.7344 41.2 657.375 41.8875Q657.0156 42.575 656.3125 42.965626Q655.625 43.340626 654.8125 43.340626Q653.5156 43.340626 652.7031 42.5125Q651.90625 41.66875 651.90625 40.090626ZM652.9844 40.090626Q652.9844 41.278126 653.5 41.871876Q654.03125 42.465626 654.8125 42.465626Q655.6094 42.465626 656.125 41.871876Q656.6406 41.278126 656.6406 40.059376Q656.6406 38.903126 656.1094 38.309376Q655.59375 37.715626 654.8125 37.715626Q654.03125 37.715626 653.5 38.309376Q652.9844 38.8875 652.9844 40.090626ZM663.3594 40.91875L664.3906 41.059376Q664.21875 42.121876 663.5156 42.73125Q662.8125 43.340626 661.7969 43.340626Q660.5156 43.340626 659.7344 42.5125Q658.96875 41.66875 658.96875 40.10625Q658.96875 39.10625 659.2969 38.35625Q659.6406 37.590626 660.3125 37.215626Q661.0 36.840626 661.8125 36.840626Q662.8125 36.840626 663.4531 37.35625Q664.1094 37.85625 664.2969 38.809376L663.2656 38.965626Q663.125 38.340626 662.75 38.028126Q662.375 37.7 661.84375 37.7Q661.0469 37.7 660.5469 38.278126Q660.0469 38.840626 660.0469 40.075Q660.0469 41.340626 660.53125 41.903126Q661.0156 42.465626 661.78125 42.465626Q662.40625 42.465626 662.8125 42.090626Q663.2344 41.715626 663.3594 40.91875ZM669.3594 42.434376Q668.7656 42.934376 668.21875 43.1375Q667.6875 43.340626 667.0625 43.340626Q666.03125 43.340626 665.4844 42.840626Q664.9375 42.340626 664.9375 41.559376Q664.9375 41.10625 665.1406 40.73125Q665.34375 40.340626 665.6875 40.121876Q666.03125 39.8875 666.4531 39.778126Q666.75 39.684376 667.3906 39.60625Q668.65625 39.465626 669.2656 39.246876Q669.2656 39.028126 669.2656 38.98125Q669.2656 38.325 668.96875 38.059376Q668.5625 37.715626 667.7656 37.715626Q667.03125 37.715626 666.6719 37.98125Q666.3125 38.23125 666.1406 38.8875L665.1094 38.746876Q665.25 38.090626 665.5781 37.684376Q665.90625 37.278126 666.5156 37.059376Q667.125 36.840626 667.9219 36.840626Q668.71875 36.840626 669.21875 37.028126Q669.71875 37.215626 669.9531 37.496876Q670.1875 37.778126 670.28125 38.215626Q670.3281 38.48125 670.3281 39.184376L670.3281 40.590626Q670.3281 42.059376 670.3906 42.45Q670.46875 42.840626 670.6719 43.2L669.5625 43.2Q669.40625 42.871876 669.3594 42.434376ZM669.2656 40.075Q668.6875 40.309376 667.5469 40.48125Q666.8906 40.575 666.625 40.7Q666.3594 40.809376 666.2031 41.028126Q666.0625 41.246876 666.0625 41.528126Q666.0625 41.95 666.375 42.23125Q666.7031 42.5125 667.3125 42.5125Q667.9219 42.5125 668.3906 42.246876Q668.875 41.98125 669.09375 41.5125Q669.2656 41.153126 669.2656 40.465626L669.2656 40.075ZM674.59375 42.2625L674.75 43.184376Q674.2969 43.278126 673.9531 43.278126Q673.375 43.278126 673.0625 43.10625Q672.75 42.91875 672.6094 42.621876Q672.4844 42.325 672.4844 41.371876L672.4844 37.79375L671.71875 37.79375L671.71875 36.98125L672.4844 36.98125L672.4844 35.434376L673.53125 34.809376L673.53125 36.98125L674.59375 36.98125L674.59375 37.79375L673.53125 37.79375L673.53125 41.434376Q673.53125 41.8875 673.5781 42.0125Q673.6406 42.1375 673.7656 42.215626Q673.8906 42.29375 674.125 42.29375Q674.3125 42.29375 674.59375 42.2625ZM675.2969 35.825L675.2969 34.60625L676.3594 34.60625L676.3594 35.825L675.2969 35.825ZM675.2969 43.2L675.2969 36.98125L676.3594 36.98125L676.3594 43.2L675.2969 43.2ZM677.90625 40.090626Q677.90625 38.35625 678.8594 37.528126Q679.65625 36.840626 680.8125 36.840626Q682.09375 36.840626 682.90625 37.684376Q683.7344 38.5125 683.7344 39.996876Q683.7344 41.2 683.375 41.8875Q683.0156 42.575 682.3125 42.965626Q681.625 43.340626 680.8125 43.340626Q679.5156 43.340626 678.7031 42.5125Q677.90625 41.66875 677.90625 40.090626ZM678.9844 40.090626Q678.9844 41.278126 679.5 41.871876Q680.03125 42.465626 680.8125 42.465626Q681.6094 42.465626 682.125 41.871876Q682.6406 41.278126 682.6406 40.059376Q682.6406 38.903126 682.1094 38.309376Q681.59375 37.715626 680.8125 37.715626Q680.03125 37.715626 679.5 38.309376Q678.9844 38.8875 678.9844 40.090626ZM685.2969 43.2L685.2969 36.98125L686.2344 36.98125L686.2344 37.85625Q686.9219 36.840626 688.21875 36.840626Q688.78125 36.840626 689.25 37.04375Q689.7344 37.246876 689.96875 37.575Q690.2031 37.903126 690.2969 38.340626Q690.34375 38.6375 690.34375 39.371876L690.34375 43.2L689.2969 43.2L689.2969 39.41875Q689.2969 38.7625 689.1719 38.45Q689.0469 38.1375 688.7344 37.95Q688.4219 37.746876 688.0 37.746876Q687.3281 37.746876 686.8281 38.184376Q686.34375 38.60625 686.34375 39.79375L686.34375 43.2L685.2969 43.2Z" fill-rule="nonzero"/></svg>