<svg width="875" height="360" viewBox="0 0 875 360" fill="none" xmlns="http://www.w3.org/2000/svg">
<g opacity="0.2">
<path d="M215.6 34.6L179 175H137.6L115.2 82.6L92 175H50.6L15 34.6H51.6L71.8 136.8L96.8 34.6H134.4L158.4 136.8L178.8 34.6H215.6ZM354.352 34.6V175H320.152V117.2H266.952V175H232.752V34.6H266.952V89.6H320.152V34.6H354.352ZM445.441 176.4C432.241 176.4 420.107 173.333 409.041 167.2C398.107 161.067 389.374 152.533 382.841 141.6C376.441 130.533 373.241 118.133 373.241 104.4C373.241 90.6667 376.441 78.3333 382.841 67.4C389.374 56.4667 398.107 47.9333 409.041 41.8C420.107 35.6667 432.241 32.6 445.441 32.6C458.641 32.6 470.707 35.6667 481.641 41.8C492.707 47.9333 501.374 56.4667 507.641 67.4C514.041 78.3333 517.241 90.6667 517.241 104.4C517.241 118.133 514.041 130.533 507.641 141.6C501.241 152.533 492.574 161.067 481.641 167.2C470.707 173.333 458.641 176.4 445.441 176.4ZM445.441 145.2C456.641 145.2 465.574 141.467 472.241 134C479.041 126.533 482.441 116.667 482.441 104.4C482.441 92 479.041 82.1333 472.241 74.8C465.574 67.3333 456.641 63.6 445.441 63.6C434.107 63.6 425.041 67.2667 418.241 74.6C411.574 81.9333 408.241 91.8667 408.241 104.4C408.241 116.8 411.574 126.733 418.241 134.2C425.041 141.533 434.107 145.2 445.441 145.2ZM215.6 204.6L179 345H137.6L115.2 252.6L92 345H50.6L15 204.6H51.6L71.8 306.8L96.8 204.6H134.4L158.4 306.8L178.8 204.6H215.6ZM266.952 232V260.4H312.752V286.8H266.952V317.6H318.752V345H232.752V204.6H318.752V232H266.952ZM470.738 320.2H418.338L409.938 345H374.138L424.938 204.6H464.538L515.338 345H479.138L470.738 320.2ZM461.938 293.8L444.538 242.4L427.338 293.8H461.938ZM602.398 345L573.198 292H564.998V345H530.798V204.6H588.198C599.265 204.6 608.665 206.533 616.398 210.4C624.265 214.267 630.132 219.6 633.998 226.4C637.865 233.067 639.798 240.533 639.798 248.8C639.798 258.133 637.132 266.467 631.798 273.8C626.598 281.133 618.865 286.333 608.598 289.4L640.998 345H602.398ZM564.998 267.8H586.198C592.465 267.8 597.132 266.267 600.198 263.2C603.398 260.133 604.998 255.8 604.998 250.2C604.998 244.867 603.398 240.667 600.198 237.6C597.132 234.533 592.465 233 586.198 233H564.998V267.8ZM695.467 232V260.4H741.267V286.8H695.467V317.6H747.267V345H661.267V204.6H747.267V232H695.467ZM810.47 196.8C824.737 196.8 836.137 200.533 844.67 208C853.337 215.467 857.67 226 857.67 239.6C857.67 252.133 853.537 261.933 845.27 269C837.137 275.933 826.337 279.467 812.87 279.6L811.87 294.6H781.87L780.87 257.4H792.87C803.137 257.4 810.937 256.133 816.27 253.6C821.737 251.067 824.47 246.467 824.47 239.8C824.47 235.133 823.204 231.467 820.67 228.8C818.137 226.133 814.604 224.8 810.07 224.8C805.27 224.8 801.537 226.2 798.87 229C796.204 231.667 794.87 235.333 794.87 240H762.67C762.404 231.867 764.07 224.533 767.67 218C771.404 211.467 776.87 206.333 784.07 202.6C791.404 198.733 800.204 196.8 810.47 196.8ZM797.27 346.6C791.27 346.6 786.337 344.867 782.47 341.4C778.737 337.8 776.87 333.4 776.87 328.2C776.87 322.867 778.737 318.4 782.47 314.8C786.337 311.2 791.27 309.4 797.27 309.4C803.137 309.4 807.937 311.2 811.67 314.8C815.537 318.4 817.47 322.867 817.47 328.2C817.47 333.4 815.537 337.8 811.67 341.4C807.937 344.867 803.137 346.6 797.27 346.6Z" fill="white"/>
<path d="M215.6 34.6L220.438 35.8613L222.071 29.6H215.6V34.6ZM179 175V180H182.864L183.838 176.261L179 175ZM137.6 175L132.741 176.178L133.667 180H137.6V175ZM115.2 82.6L120.059 81.422L110.351 81.3824L115.2 82.6ZM92 175V180H95.8998L96.8495 176.218L92 175ZM50.6 175L45.7534 176.229L46.7096 180H50.6V175ZM15 34.6V29.6H8.57396L10.1534 35.8289L15 34.6ZM51.6 34.6L56.5051 33.6305L55.7085 29.6H51.6V34.6ZM71.8 136.8L66.8949 137.769L76.6568 137.988L71.8 136.8ZM96.8 34.6V29.6H92.8757L91.9432 33.4119L96.8 34.6ZM134.4 34.6L139.268 33.4569L138.362 29.6H134.4V34.6ZM158.4 136.8L153.532 137.943L163.303 137.779L158.4 136.8ZM178.8 34.6V29.6H174.699L173.897 33.6213L178.8 34.6ZM210.762 33.3387L174.162 173.739L183.838 176.261L220.438 35.8613L210.762 33.3387ZM179 170H137.6V180H179V170ZM142.459 173.822L120.059 81.422L110.341 83.778L132.741 176.178L142.459 173.822ZM110.351 81.3824L87.1505 173.782L96.8495 176.218L120.049 83.8176L110.351 81.3824ZM92 170H50.6V180H92V170ZM55.4466 173.771L19.8466 33.3711L10.1534 35.8289L45.7534 176.229L55.4466 173.771ZM15 39.6H51.6V29.6H15V39.6ZM46.6949 35.5695L66.8949 137.769L76.7051 135.83L56.5051 33.6305L46.6949 35.5695ZM76.6568 137.988L101.657 35.7881L91.9432 33.4119L66.9432 135.612L76.6568 137.988ZM96.8 39.6H134.4V29.6H96.8V39.6ZM129.532 35.7431L153.532 137.943L163.268 135.657L139.268 33.4569L129.532 35.7431ZM163.303 137.779L183.703 35.5787L173.897 33.6213L153.497 135.821L163.303 137.779ZM178.8 39.6H215.6V29.6H178.8V39.6ZM354.352 34.6H359.352V29.6H354.352V34.6ZM354.352 175V180H359.352V175H354.352ZM320.152 175H315.152V180H320.152V175ZM320.152 117.2H325.152V112.2H320.152V117.2ZM266.952 117.2V112.2H261.952V117.2H266.952ZM266.952 175V180H271.952V175H266.952ZM232.752 175H227.752V180H232.752V175ZM232.752 34.6V29.6H227.752V34.6H232.752ZM266.952 34.6H271.952V29.6H266.952V34.6ZM266.952 89.6H261.952V94.6H266.952V89.6ZM320.152 89.6V94.6H325.152V89.6H320.152ZM320.152 34.6V29.6H315.152V34.6H320.152ZM349.352 34.6V175H359.352V34.6H349.352ZM354.352 170H320.152V180H354.352V170ZM325.152 175V117.2H315.152V175H325.152ZM320.152 112.2H266.952V122.2H320.152V112.2ZM261.952 117.2V175H271.952V117.2H261.952ZM266.952 170H232.752V180H266.952V170ZM237.752 175V34.6H227.752V175H237.752ZM232.752 39.6H266.952V29.6H232.752V39.6ZM261.952 34.6V89.6H271.952V34.6H261.952ZM266.952 94.6H320.152V84.6H266.952V94.6ZM325.152 89.6V34.6H315.152V89.6H325.152ZM320.152 39.6H354.352V29.6H320.152V39.6ZM409.041 167.2L406.594 171.561L406.606 171.567L406.617 171.573L409.041 167.2ZM382.841 141.6L378.512 144.103L378.53 144.134L378.549 144.165L382.841 141.6ZM382.841 67.4L378.549 64.8352L378.537 64.8546L378.526 64.8741L382.841 67.4ZM409.041 41.8L406.617 37.4267L406.606 37.433L406.594 37.4393L409.041 41.8ZM481.641 41.8L479.194 46.1607L479.206 46.167L479.217 46.1733L481.641 41.8ZM507.641 67.4L503.303 69.8864L503.314 69.9062L503.326 69.9259L507.641 67.4ZM507.641 141.6L511.956 144.126L511.962 144.115L511.969 144.103L507.641 141.6ZM481.641 167.2L484.087 171.561L484.087 171.561L481.641 167.2ZM472.241 134L468.544 130.633L468.527 130.652L468.511 130.67L472.241 134ZM472.241 74.8L468.511 78.1301L468.542 78.1652L468.574 78.1997L472.241 74.8ZM418.241 74.6L414.574 71.2003L414.558 71.2184L414.541 71.2366L418.241 74.6ZM418.241 134.2L414.511 137.53L414.542 137.565L414.574 137.6L418.241 134.2ZM445.441 171.4C433.051 171.4 421.757 168.531 411.464 162.827L406.617 171.573C418.458 178.136 431.431 181.4 445.441 181.4V171.4ZM411.487 162.839C401.328 157.14 393.226 149.232 387.133 139.035L378.549 144.165C385.522 155.835 394.887 164.993 406.594 171.561L411.487 162.839ZM387.169 139.097C381.242 128.847 378.241 117.322 378.241 104.4H368.241C368.241 118.945 371.64 132.219 378.512 144.103L387.169 139.097ZM378.241 104.4C378.241 91.4775 381.242 80.0291 387.156 69.9259L378.526 64.8741C371.64 76.6375 368.241 89.8559 368.241 104.4H378.241ZM387.133 69.9648C393.226 59.7684 401.328 51.8597 411.487 46.1607L406.594 37.4393C394.887 44.0069 385.522 53.1649 378.549 64.8352L387.133 69.9648ZM411.464 46.1733C421.757 40.4691 433.051 37.6 445.441 37.6V27.6C431.431 27.6 418.458 30.8643 406.617 37.4267L411.464 46.1733ZM445.441 37.6C457.831 37.6 469.048 40.469 479.194 46.1607L484.087 37.4393C472.366 30.8644 459.45 27.6 445.441 27.6V37.6ZM479.217 46.1733C489.489 51.866 497.492 59.7483 503.303 69.8864L511.979 64.9136C505.256 53.185 495.926 44.0006 484.064 37.4267L479.217 46.1733ZM503.326 69.9259C509.24 80.0291 512.241 91.4775 512.241 104.4H522.241C522.241 89.8559 518.842 76.6375 511.956 64.8741L503.326 69.9259ZM512.241 104.4C512.241 117.322 509.24 128.847 503.312 139.097L511.969 144.103C518.842 132.219 522.241 118.945 522.241 104.4H512.241ZM503.326 139.074C497.369 149.249 489.344 157.145 479.194 162.839L484.087 171.561C495.804 164.988 505.112 155.817 511.956 144.126L503.326 139.074ZM479.194 162.839C469.048 168.531 457.831 171.4 445.441 171.4V181.4C459.45 181.4 472.366 178.136 484.087 171.561L479.194 162.839ZM445.441 150.2C457.876 150.2 468.236 145.992 475.97 137.33L468.511 130.67C462.912 136.941 455.405 140.2 445.441 140.2V150.2ZM475.937 137.367C483.748 128.791 487.441 117.631 487.441 104.4H477.441C477.441 115.702 474.334 124.276 468.544 130.633L475.937 137.367ZM487.441 104.4C487.441 91.0558 483.758 79.8668 475.907 71.4003L468.574 78.1997C474.324 84.3999 477.441 92.9442 477.441 104.4H487.441ZM475.97 71.4699C468.236 62.8078 457.876 58.6 445.441 58.6V68.6C455.405 68.6 462.912 71.8589 468.511 78.1301L475.97 71.4699ZM445.441 58.6C432.92 58.6 422.451 62.7058 414.574 71.2003L421.907 77.9997C427.63 71.8276 435.294 68.6 445.441 68.6V58.6ZM414.541 71.2366C406.833 79.7151 403.241 90.9642 403.241 104.4H413.241C413.241 92.7691 416.315 84.1516 421.94 77.9634L414.541 71.2366ZM403.241 104.4C403.241 117.723 406.843 128.942 414.511 137.53L421.97 130.87C416.305 124.524 413.241 115.877 413.241 104.4H403.241ZM414.574 137.6C422.451 146.094 432.92 150.2 445.441 150.2V140.2C435.294 140.2 427.63 136.972 421.907 130.8L414.574 137.6ZM215.6 204.6L220.438 205.861L222.071 199.6H215.6V204.6ZM179 345V350H182.864L183.838 346.261L179 345ZM137.6 345L132.741 346.178L133.667 350H137.6V345ZM115.2 252.6L120.059 251.422L110.351 251.382L115.2 252.6ZM92 345V350H95.8998L96.8495 346.218L92 345ZM50.6 345L45.7534 346.229L46.7096 350H50.6V345ZM15 204.6V199.6H8.57396L10.1534 205.829L15 204.6ZM51.6 204.6L56.5051 203.63L55.7085 199.6H51.6V204.6ZM71.8 306.8L66.8949 307.769L76.6568 307.988L71.8 306.8ZM96.8 204.6V199.6H92.8757L91.9432 203.412L96.8 204.6ZM134.4 204.6L139.268 203.457L138.362 199.6H134.4V204.6ZM158.4 306.8L153.532 307.943L163.303 307.779L158.4 306.8ZM178.8 204.6V199.6H174.699L173.897 203.621L178.8 204.6ZM210.762 203.339L174.162 343.739L183.838 346.261L220.438 205.861L210.762 203.339ZM179 340H137.6V350H179V340ZM142.459 343.822L120.059 251.422L110.341 253.778L132.741 346.178L142.459 343.822ZM110.351 251.382L87.1505 343.782L96.8495 346.218L120.049 253.818L110.351 251.382ZM92 340H50.6V350H92V340ZM55.4466 343.771L19.8466 203.371L10.1534 205.829L45.7534 346.229L55.4466 343.771ZM15 209.6H51.6V199.6H15V209.6ZM46.6949 205.569L66.8949 307.769L76.7051 305.83L56.5051 203.63L46.6949 205.569ZM76.6568 307.988L101.657 205.788L91.9432 203.412L66.9432 305.612L76.6568 307.988ZM96.8 209.6H134.4V199.6H96.8V209.6ZM129.532 205.743L153.532 307.943L163.268 305.657L139.268 203.457L129.532 205.743ZM163.303 307.779L183.703 205.579L173.897 203.621L153.497 305.821L163.303 307.779ZM178.8 209.6H215.6V199.6H178.8V209.6ZM266.952 232V227H261.952V232H266.952ZM266.952 260.4H261.952V265.4H266.952V260.4ZM312.752 260.4H317.752V255.4H312.752V260.4ZM312.752 286.8V291.8H317.752V286.8H312.752ZM266.952 286.8V281.8H261.952V286.8H266.952ZM266.952 317.6H261.952V322.6H266.952V317.6ZM318.752 317.6H323.752V312.6H318.752V317.6ZM318.752 345V350H323.752V345H318.752ZM232.752 345H227.752V350H232.752V345ZM232.752 204.6V199.6H227.752V204.6H232.752ZM318.752 204.6H323.752V199.6H318.752V204.6ZM318.752 232V237H323.752V232H318.752ZM261.952 232V260.4H271.952V232H261.952ZM266.952 265.4H312.752V255.4H266.952V265.4ZM307.752 260.4V286.8H317.752V260.4H307.752ZM312.752 281.8H266.952V291.8H312.752V281.8ZM261.952 286.8V317.6H271.952V286.8H261.952ZM266.952 322.6H318.752V312.6H266.952V322.6ZM313.752 317.6V345H323.752V317.6H313.752ZM318.752 340H232.752V350H318.752V340ZM237.752 345V204.6H227.752V345H237.752ZM232.752 209.6H318.752V199.6H232.752V209.6ZM313.752 204.6V232H323.752V204.6H313.752ZM318.752 227H266.952V237H318.752V227ZM470.738 320.2L475.473 318.596L474.323 315.2H470.738V320.2ZM418.338 320.2V315.2H414.752L413.602 318.596L418.338 320.2ZM409.938 345V350H413.523L414.673 346.604L409.938 345ZM374.138 345L369.436 343.299L367.011 350H374.138V345ZM424.938 204.6V199.6H421.429L420.236 202.899L424.938 204.6ZM464.538 204.6L469.239 202.899L468.046 199.6H464.538V204.6ZM515.338 345V350H522.464L520.039 343.299L515.338 345ZM479.138 345L474.402 346.604L475.552 350H479.138V345ZM461.938 293.8V298.8H468.909L466.673 292.197L461.938 293.8ZM444.538 242.4L449.273 240.797L444.51 226.726L439.796 240.813L444.538 242.4ZM427.338 293.8L422.596 292.213L420.392 298.8H427.338V293.8ZM470.738 315.2H418.338V325.2H470.738V315.2ZM413.602 318.596L405.202 343.396L414.673 346.604L423.073 321.804L413.602 318.596ZM409.938 340H374.138V350H409.938V340ZM378.839 346.701L429.639 206.301L420.236 202.899L369.436 343.299L378.839 346.701ZM424.938 209.6H464.538V199.6H424.938V209.6ZM459.836 206.301L510.636 346.701L520.039 343.299L469.239 202.899L459.836 206.301ZM515.338 340H479.138V350H515.338V340ZM483.873 343.396L475.473 318.596L466.002 321.804L474.402 346.604L483.873 343.396ZM466.673 292.197L449.273 240.797L439.802 244.003L457.202 295.403L466.673 292.197ZM439.796 240.813L422.596 292.213L432.079 295.387L449.279 243.987L439.796 240.813ZM427.338 298.8H461.938V288.8H427.338V298.8ZM602.398 345L598.019 347.413L599.445 350H602.398V345ZM573.198 292L577.578 289.587L576.152 287H573.198V292ZM564.998 292V287H559.998V292H564.998ZM564.998 345V350H569.998V345H564.998ZM530.798 345H525.798V350H530.798V345ZM530.798 204.6V199.6H525.798V204.6H530.798ZM616.398 210.4L614.162 214.872L614.178 214.88L614.193 214.887L616.398 210.4ZM633.998 226.4L629.652 228.871L629.663 228.89L629.673 228.909L633.998 226.4ZM631.798 273.8L627.755 270.859L627.737 270.883L627.72 270.908L631.798 273.8ZM608.598 289.4L607.167 284.609L601.079 286.428L604.278 291.917L608.598 289.4ZM640.998 345V350H649.699L645.318 342.483L640.998 345ZM564.998 267.8H559.998V272.8H564.998V267.8ZM600.198 263.2L596.739 259.59L596.701 259.627L596.663 259.664L600.198 263.2ZM600.198 237.6L596.663 241.136L596.701 241.173L596.739 241.21L600.198 237.6ZM564.998 233V228H559.998V233H564.998ZM606.778 342.587L577.578 289.587L568.819 294.413L598.019 347.413L606.778 342.587ZM573.198 287H564.998V297H573.198V287ZM559.998 292V345H569.998V292H559.998ZM564.998 340H530.798V350H564.998V340ZM535.798 345V204.6H525.798V345H535.798ZM530.798 209.6H588.198V199.6H530.798V209.6ZM588.198 209.6C598.7 209.6 607.29 211.436 614.162 214.872L618.635 205.928C610.04 201.631 599.831 199.6 588.198 199.6V209.6ZM614.193 214.887C621.273 218.367 626.339 223.046 629.652 228.871L638.345 223.928C633.924 216.154 627.258 210.166 618.604 205.913L614.193 214.887ZM629.673 228.909C633.066 234.758 634.798 241.348 634.798 248.8H644.798C644.798 239.718 642.664 231.376 638.324 223.891L629.673 228.909ZM634.798 248.8C634.798 257.11 632.447 264.407 627.755 270.859L635.842 276.741C641.816 268.526 644.798 259.157 644.798 248.8H634.798ZM627.72 270.908C623.283 277.165 616.577 281.799 607.167 284.609L610.029 294.191C621.153 290.868 629.914 285.102 635.877 276.692L627.72 270.908ZM604.278 291.917L636.678 347.517L645.318 342.483L612.918 286.883L604.278 291.917ZM640.998 340H602.398V350H640.998V340ZM564.998 272.8H586.198V262.8H564.998V272.8ZM586.198 272.8C593.199 272.8 599.381 271.089 603.734 266.736L596.663 259.664C594.883 261.445 591.731 262.8 586.198 262.8V272.8ZM603.658 266.81C608.087 262.566 609.998 256.782 609.998 250.2H599.998C599.998 254.818 598.71 257.701 596.739 259.59L603.658 266.81ZM609.998 250.2C609.998 243.802 608.038 238.188 603.658 233.99L596.739 241.21C598.758 243.145 599.998 245.931 599.998 250.2H609.998ZM603.734 234.064C599.381 229.711 593.199 228 586.198 228V238C591.731 238 594.883 239.355 596.663 241.136L603.734 234.064ZM586.198 228H564.998V238H586.198V228ZM559.998 233V267.8H569.998V233H559.998ZM695.467 232V227H690.467V232H695.467ZM695.467 260.4H690.467V265.4H695.467V260.4ZM741.267 260.4H746.267V255.4H741.267V260.4ZM741.267 286.8V291.8H746.267V286.8H741.267ZM695.467 286.8V281.8H690.467V286.8H695.467ZM695.467 317.6H690.467V322.6H695.467V317.6ZM747.267 317.6H752.267V312.6H747.267V317.6ZM747.267 345V350H752.267V345H747.267ZM661.267 345H656.267V350H661.267V345ZM661.267 204.6V199.6H656.267V204.6H661.267ZM747.267 204.6H752.267V199.6H747.267V204.6ZM747.267 232V237H752.267V232H747.267ZM690.467 232V260.4H700.467V232H690.467ZM695.467 265.4H741.267V255.4H695.467V265.4ZM736.267 260.4V286.8H746.267V260.4H736.267ZM741.267 281.8H695.467V291.8H741.267V281.8ZM690.467 286.8V317.6H700.467V286.8H690.467ZM695.467 322.6H747.267V312.6H695.467V322.6ZM742.267 317.6V345H752.267V317.6H742.267ZM747.267 340H661.267V350H747.267V340ZM666.267 345V204.6H656.267V345H666.267ZM661.267 209.6H747.267V199.6H661.267V209.6ZM742.267 204.6V232H752.267V204.6H742.267ZM747.267 227H695.467V237H747.267V227ZM844.67 208L841.378 211.763L841.392 211.776L841.407 211.788L844.67 208ZM845.27 269L848.514 272.805L848.519 272.801L845.27 269ZM812.87 279.6L812.821 274.6L808.189 274.646L807.881 279.267L812.87 279.6ZM811.87 294.6V299.6H816.548L816.859 294.933L811.87 294.6ZM781.87 294.6L776.872 294.734L777.003 299.6H781.87V294.6ZM780.87 257.4V252.4H775.734L775.872 257.534L780.87 257.4ZM816.27 253.6L814.168 249.063L814.146 249.073L814.125 249.084L816.27 253.6ZM820.67 228.8L824.295 225.356L820.67 228.8ZM798.87 229L802.406 232.536L802.449 232.492L802.491 232.448L798.87 229ZM794.87 240V245H799.87V240H794.87ZM762.67 240L757.673 240.164L757.832 245H762.67V240ZM767.67 218L763.329 215.519L763.31 215.553L763.291 215.587L767.67 218ZM784.07 202.6L786.372 207.039L786.387 207.031L786.402 207.023L784.07 202.6ZM782.47 341.4L779 344.999L779.065 345.062L779.133 345.123L782.47 341.4ZM782.47 314.8L779.063 311.141L779.031 311.17L779 311.201L782.47 314.8ZM811.67 314.8L808.2 318.399L808.231 318.43L808.263 318.459L811.67 314.8ZM811.67 341.4L815.073 345.064L815.077 345.059L811.67 341.4ZM810.47 201.8C823.849 201.8 833.973 205.284 841.378 211.763L847.963 204.237C838.301 195.783 825.625 191.8 810.47 191.8V201.8ZM841.407 211.788C848.761 218.124 852.67 227.153 852.67 239.6H862.67C862.67 224.847 857.913 212.809 847.934 204.212L841.407 211.788ZM852.67 239.6C852.67 250.919 849.001 259.233 842.021 265.199L848.519 272.801C858.073 264.634 862.67 253.347 862.67 239.6H852.67ZM842.027 265.195C834.997 271.187 825.428 274.475 812.821 274.6L812.92 284.6C827.245 284.458 839.277 280.68 848.514 272.805L842.027 265.195ZM807.881 279.267L806.881 294.267L816.859 294.933L817.859 279.933L807.881 279.267ZM811.87 289.6H781.87V299.6H811.87V289.6ZM786.869 294.466L785.869 257.266L775.872 257.534L776.872 294.734L786.869 294.466ZM780.87 262.4H792.87V252.4H780.87V262.4ZM792.87 262.4C803.408 262.4 812.088 261.122 818.416 258.116L814.125 249.084C809.786 251.145 802.866 252.4 792.87 252.4V262.4ZM818.373 258.137C821.902 256.501 824.773 254.078 826.719 250.804C828.645 247.562 829.47 243.813 829.47 239.8H819.47C819.47 242.454 818.929 244.338 818.122 245.696C817.334 247.022 816.106 248.165 814.168 249.063L818.373 258.137ZM829.47 239.8C829.47 234.211 827.931 229.183 824.295 225.356L817.045 232.244C818.476 233.75 819.47 236.056 819.47 239.8H829.47ZM824.295 225.356C820.606 221.473 815.633 219.8 810.07 219.8V229.8C813.574 229.8 815.668 230.793 817.045 232.244L824.295 225.356ZM810.07 219.8C804.254 219.8 799.078 221.532 795.25 225.552L802.491 232.448C803.996 230.868 806.286 229.8 810.07 229.8V219.8ZM795.335 225.464C791.518 229.281 789.87 234.341 789.87 240H799.87C799.87 236.326 800.889 234.052 802.406 232.536L795.335 225.464ZM794.87 235H762.67V245H794.87V235ZM767.668 239.836C767.428 232.517 768.923 226.088 772.05 220.413L763.291 215.587C759.218 222.979 757.38 231.216 757.673 240.164L767.668 239.836ZM772.012 220.481C775.23 214.848 779.957 210.365 786.372 207.039L781.769 198.161C773.784 202.301 767.577 208.085 763.329 215.519L772.012 220.481ZM786.402 207.023C792.865 203.615 800.826 201.8 810.47 201.8V191.8C799.582 191.8 789.942 193.852 781.738 198.177L786.402 207.023ZM797.27 341.6C792.298 341.6 788.616 340.195 785.808 337.677L779.133 345.123C784.058 349.539 790.242 351.6 797.27 351.6V341.6ZM785.941 337.801C783.188 335.146 781.87 332.046 781.87 328.2H771.87C771.87 334.754 774.286 340.454 779 344.999L785.941 337.801ZM781.87 328.2C781.87 324.181 783.216 321.027 785.941 318.399L779 311.201C774.258 315.773 771.87 321.552 771.87 328.2H781.87ZM785.877 318.459C788.692 315.839 792.35 314.4 797.27 314.4V304.4C790.191 304.4 783.982 306.561 779.063 311.141L785.877 318.459ZM797.27 314.4C802.026 314.4 805.523 315.818 808.2 318.399L815.141 311.201C810.351 306.582 804.248 304.4 797.27 304.4V314.4ZM808.263 318.459C811.103 321.103 812.47 324.24 812.47 328.2H822.47C822.47 321.494 819.971 315.697 815.077 311.141L808.263 318.459ZM812.47 328.2C812.47 331.987 811.132 335.069 808.263 337.741L815.077 345.059C819.942 340.531 822.47 334.813 822.47 328.2H812.47ZM808.268 337.736C805.6 340.214 802.08 341.6 797.27 341.6V351.6C804.194 351.6 810.274 349.519 815.073 345.064L808.268 337.736Z" fill="#B11EFE" fill-opacity="0.84"/>
</g>
</svg>
