<svg width="714" height="360" viewBox="0 0 714 360" fill="none" xmlns="http://www.w3.org/2000/svg">
<g opacity="0.2">
<path d="M195.04 31.64L162.1 158H124.84L104.68 74.84L83.8 158H46.54L14.5 31.64H47.44L65.62 123.62L88.12 31.64H121.96L143.56 123.62L161.92 31.64H195.04ZM319.916 31.64V158H289.136V105.98H241.256V158H210.476V31.64H241.256V81.14H289.136V31.64H319.916ZM420.797 135.68H373.637L366.077 158H333.857L379.577 31.64H415.217L460.937 158H428.357L420.797 135.68ZM412.877 111.92L397.217 65.66L381.737 111.92H412.877ZM565.751 31.64V56.3H532.271V158H501.491V56.3H468.011V31.64H565.751ZM195.04 201.64L162.1 328H124.84L104.68 244.84L83.8 328H46.54L14.5 201.64H47.44L65.62 293.62L88.12 201.64H121.96L143.56 293.62L161.92 201.64H195.04ZM241.256 226.3V251.86H282.476V275.62H241.256V303.34H287.876V328H210.476V201.64H287.876V226.3H241.256ZM393.344 201.64C406.664 201.64 418.304 204.28 428.264 209.56C438.224 214.84 445.904 222.28 451.304 231.88C456.824 241.36 459.584 252.34 459.584 264.82C459.584 277.18 456.824 288.16 451.304 297.76C445.904 307.36 438.164 314.8 428.084 320.08C418.124 325.36 406.544 328 393.344 328H346.004V201.64H393.344ZM391.364 301.36C403.004 301.36 412.064 298.18 418.544 291.82C425.024 285.46 428.264 276.46 428.264 264.82C428.264 253.18 425.024 244.12 418.544 237.64C412.064 231.16 403.004 227.92 391.364 227.92H376.784V301.36H391.364ZM536.545 329.26C524.665 329.26 513.745 326.5 503.785 320.98C493.945 315.46 486.085 307.78 480.205 297.94C474.445 287.98 471.565 276.82 471.565 264.46C471.565 252.1 474.445 241 480.205 231.16C486.085 221.32 493.945 213.64 503.785 208.12C513.745 202.6 524.665 199.84 536.545 199.84C548.425 199.84 559.285 202.6 569.125 208.12C579.085 213.64 586.885 221.32 592.525 231.16C598.285 241 601.165 252.1 601.165 264.46C601.165 276.82 598.285 287.98 592.525 297.94C586.765 307.78 578.965 315.46 569.125 320.98C559.285 326.5 548.425 329.26 536.545 329.26ZM536.545 301.18C546.625 301.18 554.665 297.82 560.665 291.1C566.785 284.38 569.845 275.5 569.845 264.46C569.845 253.3 566.785 244.42 560.665 237.82C554.665 231.1 546.625 227.74 536.545 227.74C526.345 227.74 518.185 231.04 512.065 237.64C506.065 244.24 503.065 253.18 503.065 264.46C503.065 275.62 506.065 284.56 512.065 291.28C518.185 297.88 526.345 301.18 536.545 301.18ZM655.189 194.62C668.029 194.62 678.289 197.98 685.969 204.7C693.769 211.42 697.669 220.9 697.669 233.14C697.669 244.42 693.949 253.24 686.509 259.6C679.189 265.84 669.469 269.02 657.349 269.14L656.449 282.64H629.449L628.549 249.16H639.349C648.589 249.16 655.609 248.02 660.409 245.74C665.329 243.46 667.789 239.32 667.789 233.32C667.789 229.12 666.649 225.82 664.369 223.42C662.089 221.02 658.909 219.82 654.829 219.82C650.509 219.82 647.149 221.08 644.749 223.6C642.349 226 641.149 229.3 641.149 233.5H612.169C611.929 226.18 613.429 219.58 616.669 213.7C620.029 207.82 624.949 203.2 631.429 199.84C638.029 196.36 645.949 194.62 655.189 194.62ZM643.309 329.44C637.909 329.44 633.469 327.88 629.989 324.76C626.629 321.52 624.949 317.56 624.949 312.88C624.949 308.08 626.629 304.06 629.989 300.82C633.469 297.58 637.909 295.96 643.309 295.96C648.589 295.96 652.909 297.58 656.269 300.82C659.749 304.06 661.489 308.08 661.489 312.88C661.489 317.56 659.749 321.52 656.269 324.76C652.909 327.88 648.589 329.44 643.309 329.44Z" fill="white"/>
<path d="M195.04 31.64L199.878 32.9013L201.511 26.64H195.04V31.64ZM162.1 158V163H165.964L166.938 159.261L162.1 158ZM124.84 158L119.981 159.178L120.907 163H124.84V158ZM104.68 74.84L109.539 73.662L99.8305 73.6224L104.68 74.84ZM83.8 158V163H87.6998L88.6495 159.218L83.8 158ZM46.54 158L41.6934 159.229L42.6496 163H46.54V158ZM14.5 31.64V26.64H8.07396L9.65338 32.8689L14.5 31.64ZM47.44 31.64L52.3451 30.6705L51.5485 26.64H47.44V31.64ZM65.62 123.62L60.7149 124.589L70.4768 124.808L65.62 123.62ZM88.12 31.64V26.64H84.1957L83.2632 30.4519L88.12 31.64ZM121.96 31.64L126.828 30.4969L125.922 26.64H121.96V31.64ZM143.56 123.62L138.692 124.763L148.463 124.599L143.56 123.62ZM161.92 31.64V26.64H157.819L157.017 30.6613L161.92 31.64ZM190.202 30.3787L157.262 156.739L166.938 159.261L199.878 32.9013L190.202 30.3787ZM162.1 153H124.84V163H162.1V153ZM129.699 156.822L109.539 73.662L99.8208 76.018L119.981 159.178L129.699 156.822ZM99.8305 73.6224L78.9505 156.782L88.6495 159.218L109.529 76.0576L99.8305 73.6224ZM83.8 153H46.54V163H83.8V153ZM51.3866 156.771L19.3466 30.4111L9.65338 32.8689L41.6934 159.229L51.3866 156.771ZM14.5 36.64H47.44V26.64H14.5V36.64ZM42.5349 32.6095L60.7149 124.589L70.5251 122.65L52.3451 30.6705L42.5349 32.6095ZM70.4768 124.808L92.9768 32.8281L83.2632 30.4519L60.7632 122.432L70.4768 124.808ZM88.12 36.64H121.96V26.64H88.12V36.64ZM117.092 32.7831L138.692 124.763L148.428 122.477L126.828 30.4969L117.092 32.7831ZM148.463 124.599L166.823 32.6187L157.017 30.6613L138.657 122.641L148.463 124.599ZM161.92 36.64H195.04V26.64H161.92V36.64ZM319.916 31.64H324.916V26.64H319.916V31.64ZM319.916 158V163H324.916V158H319.916ZM289.136 158H284.136V163H289.136V158ZM289.136 105.98H294.136V100.98H289.136V105.98ZM241.256 105.98V100.98H236.256V105.98H241.256ZM241.256 158V163H246.256V158H241.256ZM210.476 158H205.476V163H210.476V158ZM210.476 31.64V26.64H205.476V31.64H210.476ZM241.256 31.64H246.256V26.64H241.256V31.64ZM241.256 81.14H236.256V86.14H241.256V81.14ZM289.136 81.14V86.14H294.136V81.14H289.136ZM289.136 31.64V26.64H284.136V31.64H289.136ZM314.916 31.64V158H324.916V31.64H314.916ZM319.916 153H289.136V163H319.916V153ZM294.136 158V105.98H284.136V158H294.136ZM289.136 100.98H241.256V110.98H289.136V100.98ZM236.256 105.98V158H246.256V105.98H236.256ZM241.256 153H210.476V163H241.256V153ZM215.476 158V31.64H205.476V158H215.476ZM210.476 36.64H241.256V26.64H210.476V36.64ZM236.256 31.64V81.14H246.256V31.64H236.256ZM241.256 86.14H289.136V76.14H241.256V86.14ZM294.136 81.14V31.64H284.136V81.14H294.136ZM289.136 36.64H319.916V26.64H289.136V36.64ZM420.797 135.68L425.532 134.076L424.382 130.68H420.797V135.68ZM373.637 135.68V130.68H370.051L368.901 134.076L373.637 135.68ZM366.077 158V163H369.662L370.812 159.604L366.077 158ZM333.857 158L329.155 156.299L326.73 163H333.857V158ZM379.577 31.64V26.64H376.068L374.875 29.9388L379.577 31.64ZM415.217 31.64L419.918 29.9388L418.725 26.64H415.217V31.64ZM460.937 158V163H468.063L465.638 156.299L460.937 158ZM428.357 158L423.621 159.604L424.771 163H428.357V158ZM412.877 111.92V116.92H419.848L417.613 110.317L412.877 111.92ZM397.217 65.66L401.953 64.0568L397.189 49.9856L392.475 64.0733L397.217 65.66ZM381.737 111.92L376.995 110.333L374.791 116.92H381.737V111.92ZM420.797 130.68H373.637V140.68H420.797V130.68ZM368.901 134.076L361.341 156.396L370.812 159.604L378.372 137.284L368.901 134.076ZM366.077 153H333.857V163H366.077V153ZM338.558 159.701L384.278 33.3412L374.875 29.9388L329.155 156.299L338.558 159.701ZM379.577 36.64H415.217V26.64H379.577V36.64ZM410.515 33.3412L456.235 159.701L465.638 156.299L419.918 29.9388L410.515 33.3412ZM460.937 153H428.357V163H460.937V153ZM433.092 156.396L425.532 134.076L416.061 137.284L423.621 159.604L433.092 156.396ZM417.613 110.317L401.953 64.0568L392.481 67.2632L408.141 113.523L417.613 110.317ZM392.475 64.0733L376.995 110.333L386.478 113.507L401.958 67.2467L392.475 64.0733ZM381.737 116.92H412.877V106.92H381.737V116.92ZM565.751 31.64H570.751V26.64H565.751V31.64ZM565.751 56.3V61.3H570.751V56.3H565.751ZM532.271 56.3V51.3H527.271V56.3H532.271ZM532.271 158V163H537.271V158H532.271ZM501.491 158H496.491V163H501.491V158ZM501.491 56.3H506.491V51.3H501.491V56.3ZM468.011 56.3H463.011V61.3H468.011V56.3ZM468.011 31.64V26.64H463.011V31.64H468.011ZM560.751 31.64V56.3H570.751V31.64H560.751ZM565.751 51.3H532.271V61.3H565.751V51.3ZM527.271 56.3V158H537.271V56.3H527.271ZM532.271 153H501.491V163H532.271V153ZM506.491 158V56.3H496.491V158H506.491ZM501.491 51.3H468.011V61.3H501.491V51.3ZM473.011 56.3V31.64H463.011V56.3H473.011ZM468.011 36.64H565.751V26.64H468.011V36.64ZM195.04 201.64L199.878 202.901L201.511 196.64H195.04V201.64ZM162.1 328V333H165.964L166.938 329.261L162.1 328ZM124.84 328L119.981 329.178L120.907 333H124.84V328ZM104.68 244.84L109.539 243.662L99.8305 243.622L104.68 244.84ZM83.8 328V333H87.6998L88.6495 329.218L83.8 328ZM46.54 328L41.6934 329.229L42.6496 333H46.54V328ZM14.5 201.64V196.64H8.07396L9.65338 202.869L14.5 201.64ZM47.44 201.64L52.3451 200.67L51.5485 196.64H47.44V201.64ZM65.62 293.62L60.7149 294.589L70.4768 294.808L65.62 293.62ZM88.12 201.64V196.64H84.1957L83.2632 200.452L88.12 201.64ZM121.96 201.64L126.828 200.497L125.922 196.64H121.96V201.64ZM143.56 293.62L138.692 294.763L148.463 294.599L143.56 293.62ZM161.92 201.64V196.64H157.819L157.017 200.661L161.92 201.64ZM190.202 200.379L157.262 326.739L166.938 329.261L199.878 202.901L190.202 200.379ZM162.1 323H124.84V333H162.1V323ZM129.699 326.822L109.539 243.662L99.8208 246.018L119.981 329.178L129.699 326.822ZM99.8305 243.622L78.9505 326.782L88.6495 329.218L109.529 246.058L99.8305 243.622ZM83.8 323H46.54V333H83.8V323ZM51.3866 326.771L19.3466 200.411L9.65338 202.869L41.6934 329.229L51.3866 326.771ZM14.5 206.64H47.44V196.64H14.5V206.64ZM42.5349 202.609L60.7149 294.589L70.5251 292.65L52.3451 200.67L42.5349 202.609ZM70.4768 294.808L92.9768 202.828L83.2632 200.452L60.7632 292.432L70.4768 294.808ZM88.12 206.64H121.96V196.64H88.12V206.64ZM117.092 202.783L138.692 294.763L148.428 292.477L126.828 200.497L117.092 202.783ZM148.463 294.599L166.823 202.619L157.017 200.661L138.657 292.641L148.463 294.599ZM161.92 206.64H195.04V196.64H161.92V206.64ZM241.256 226.3V221.3H236.256V226.3H241.256ZM241.256 251.86H236.256V256.86H241.256V251.86ZM282.476 251.86H287.476V246.86H282.476V251.86ZM282.476 275.62V280.62H287.476V275.62H282.476ZM241.256 275.62V270.62H236.256V275.62H241.256ZM241.256 303.34H236.256V308.34H241.256V303.34ZM287.876 303.34H292.876V298.34H287.876V303.34ZM287.876 328V333H292.876V328H287.876ZM210.476 328H205.476V333H210.476V328ZM210.476 201.64V196.64H205.476V201.64H210.476ZM287.876 201.64H292.876V196.64H287.876V201.64ZM287.876 226.3V231.3H292.876V226.3H287.876ZM236.256 226.3V251.86H246.256V226.3H236.256ZM241.256 256.86H282.476V246.86H241.256V256.86ZM277.476 251.86V275.62H287.476V251.86H277.476ZM282.476 270.62H241.256V280.62H282.476V270.62ZM236.256 275.62V303.34H246.256V275.62H236.256ZM241.256 308.34H287.876V298.34H241.256V308.34ZM282.876 303.34V328H292.876V303.34H282.876ZM287.876 323H210.476V333H287.876V323ZM215.476 328V201.64H205.476V328H215.476ZM210.476 206.64H287.876V196.64H210.476V206.64ZM282.876 201.64V226.3H292.876V201.64H282.876ZM287.876 221.3H241.256V231.3H287.876V221.3ZM428.264 209.56L430.606 205.142L430.606 205.142L428.264 209.56ZM451.304 231.88L446.946 234.331L446.964 234.364L446.983 234.396L451.304 231.88ZM451.304 297.76L446.969 295.268L446.957 295.288L446.946 295.309L451.304 297.76ZM428.084 320.08L425.764 315.651L425.753 315.657L425.742 315.662L428.084 320.08ZM346.004 328H341.004V333H346.004V328ZM346.004 201.64V196.64H341.004V201.64H346.004ZM376.784 227.92V222.92H371.784V227.92H376.784ZM376.784 301.36H371.784V306.36H376.784V301.36ZM393.344 206.64C405.995 206.64 416.804 209.144 425.922 213.978L430.606 205.142C419.804 199.416 407.332 196.64 393.344 196.64V206.64ZM425.922 213.978C435.056 218.82 442.027 225.587 446.946 234.331L455.662 229.429C449.78 218.973 441.391 210.86 430.606 205.142L425.922 213.978ZM446.983 234.396C452 243.012 454.584 253.1 454.584 264.82H464.584C464.584 251.58 461.648 239.708 455.625 229.364L446.983 234.396ZM454.584 264.82C454.584 276.409 452.004 286.511 446.969 295.268L455.638 300.252C461.643 289.809 464.584 277.951 464.584 264.82H454.584ZM446.946 295.309C442.036 304.037 435.018 310.804 425.764 315.651L430.404 324.509C441.31 318.796 449.771 310.683 455.662 300.211L446.946 295.309ZM425.742 315.662C416.617 320.499 405.867 323 393.344 323V333C407.22 333 419.63 330.221 430.426 324.498L425.742 315.662ZM393.344 323H346.004V333H393.344V323ZM351.004 328V201.64H341.004V328H351.004ZM346.004 206.64H393.344V196.64H346.004V206.64ZM391.364 306.36C403.928 306.36 414.388 302.905 422.046 295.388L415.041 288.252C409.74 293.455 402.08 296.36 391.364 296.36V306.36ZM422.046 295.388C429.735 287.842 433.264 277.405 433.264 264.82H423.264C423.264 275.515 420.313 283.078 415.041 288.252L422.046 295.388ZM433.264 264.82C433.264 252.23 429.733 241.758 422.079 234.104L415.008 241.176C420.314 246.482 423.264 254.13 423.264 264.82H433.264ZM422.079 234.104C414.425 226.45 403.953 222.92 391.364 222.92V232.92C402.054 232.92 409.702 235.869 415.008 241.176L422.079 234.104ZM391.364 222.92H376.784V232.92H391.364V222.92ZM371.784 227.92V301.36H381.784V227.92H371.784ZM376.784 306.36H391.364V296.36H376.784V306.36ZM503.785 320.98L501.339 325.341L501.35 325.347L501.361 325.353L503.785 320.98ZM480.205 297.94L475.877 300.443L475.895 300.474L475.913 300.505L480.205 297.94ZM480.205 231.16L475.913 228.595L475.901 228.615L475.89 228.634L480.205 231.16ZM503.785 208.12L501.361 203.747L501.35 203.753L501.339 203.759L503.785 208.12ZM569.125 208.12L566.679 212.481L566.69 212.487L566.701 212.493L569.125 208.12ZM592.525 231.16L588.187 233.646L588.198 233.666L588.21 233.686L592.525 231.16ZM592.525 297.94L596.84 300.466L596.847 300.455L596.853 300.443L592.525 297.94ZM569.125 320.98L571.571 325.341L571.571 325.341L569.125 320.98ZM560.665 291.1L556.968 287.733L556.952 287.752L556.935 287.77L560.665 291.1ZM560.665 237.82L556.935 241.15L556.967 241.185L556.999 241.22L560.665 237.82ZM512.065 237.64L508.399 234.24L508.382 234.258L508.365 234.277L512.065 237.64ZM512.065 291.28L508.335 294.61L508.367 294.645L508.399 294.68L512.065 291.28ZM536.545 324.26C525.475 324.26 515.394 321.698 506.209 316.607L501.361 325.353C512.096 331.302 523.855 334.26 536.545 334.26V324.26ZM506.231 316.619C497.165 311.534 489.937 304.478 484.497 295.375L475.913 300.505C482.233 311.082 490.725 319.386 501.339 325.341L506.231 316.619ZM484.533 295.437C479.246 286.294 476.565 276.009 476.565 264.46H466.565C466.565 277.631 469.644 289.666 475.877 300.443L484.533 295.437ZM476.565 264.46C476.565 252.911 479.246 242.696 484.52 233.686L475.89 228.634C469.644 239.304 466.565 251.289 466.565 264.46H476.565ZM484.497 233.725C489.937 224.622 497.165 217.566 506.231 212.481L501.339 203.759C490.725 209.714 482.233 218.018 475.913 228.595L484.497 233.725ZM506.209 212.493C515.394 207.402 525.475 204.84 536.545 204.84V194.84C523.855 194.84 512.096 197.798 501.361 203.747L506.209 212.493ZM536.545 204.84C547.615 204.84 557.626 207.402 566.679 212.481L571.571 203.759C560.944 197.798 549.235 194.84 536.545 194.84V204.84ZM566.701 212.493C575.866 217.573 583.003 224.602 588.187 233.646L596.863 228.674C590.767 218.038 582.304 209.707 571.549 203.747L566.701 212.493ZM588.21 233.686C593.484 242.696 596.165 252.911 596.165 264.46H606.165C606.165 251.289 603.086 239.304 596.84 228.634L588.21 233.686ZM596.165 264.46C596.165 276.009 593.484 286.294 588.197 295.437L596.853 300.443C603.086 289.666 606.165 277.631 606.165 264.46H596.165ZM588.21 295.414C582.894 304.496 575.735 311.539 566.679 316.619L571.571 325.341C582.195 319.381 590.636 311.064 596.84 300.466L588.21 295.414ZM566.679 316.619C557.626 321.698 547.615 324.26 536.545 324.26V334.26C549.235 334.26 560.944 331.302 571.571 325.341L566.679 316.619ZM536.545 306.18C547.861 306.18 557.327 302.346 564.395 294.43L556.935 287.77C552.003 293.294 545.389 296.18 536.545 296.18V306.18ZM564.362 294.467C571.492 286.637 574.845 276.464 574.845 264.46H564.845C564.845 274.536 562.078 282.123 556.968 287.733L564.362 294.467ZM574.845 264.46C574.845 252.356 571.502 242.153 564.331 234.42L556.999 241.22C562.068 246.687 564.845 254.244 564.845 264.46H574.845ZM564.395 234.49C557.327 226.574 547.861 222.74 536.545 222.74V232.74C545.389 232.74 552.003 235.626 556.935 241.15L564.395 234.49ZM536.545 222.74C525.158 222.74 515.595 226.479 508.399 234.24L515.731 241.04C520.775 235.601 527.532 232.74 536.545 232.74V222.74ZM508.365 234.277C501.324 242.022 498.065 252.278 498.065 264.46H508.065C508.065 254.082 510.806 246.458 515.765 241.003L508.365 234.277ZM498.065 264.46C498.065 276.543 501.334 286.769 508.335 294.61L515.795 287.95C510.796 282.351 508.065 274.697 508.065 264.46H498.065ZM508.399 294.68C515.595 302.441 525.158 306.18 536.545 306.18V296.18C527.532 296.18 520.775 293.319 515.731 287.88L508.399 294.68ZM685.969 204.7L682.676 208.463L682.691 208.476L682.705 208.488L685.969 204.7ZM686.509 259.6L689.753 263.405L689.758 263.401L686.509 259.6ZM657.349 269.14L657.299 264.14L652.668 264.186L652.36 268.807L657.349 269.14ZM656.449 282.64V287.64H661.127L661.438 282.973L656.449 282.64ZM629.449 282.64L624.451 282.774L624.582 287.64H629.449V282.64ZM628.549 249.16V244.16H623.413L623.551 249.294L628.549 249.16ZM660.409 245.74L658.307 241.203L658.285 241.213L658.264 241.224L660.409 245.74ZM644.749 223.6L648.284 227.136L648.328 227.092L648.37 227.048L644.749 223.6ZM641.149 233.5V238.5H646.149V233.5H641.149ZM612.169 233.5L607.172 233.664L607.33 238.5H612.169V233.5ZM616.669 213.7L612.328 211.219L612.308 211.253L612.29 211.287L616.669 213.7ZM631.429 199.84L633.73 204.279L633.746 204.271L633.761 204.263L631.429 199.84ZM629.989 324.76L626.518 328.359L626.584 328.422L626.651 328.483L629.989 324.76ZM629.989 300.82L626.582 297.161L626.55 297.19L626.518 297.221L629.989 300.82ZM656.269 300.82L652.798 304.419L652.83 304.45L652.862 304.479L656.269 300.82ZM656.269 324.76L659.671 328.424L659.676 328.419L656.269 324.76ZM655.189 199.62C667.141 199.62 676.125 202.73 682.676 208.463L689.261 200.937C680.453 193.23 668.917 189.62 655.189 189.62V199.62ZM682.705 208.488C689.193 214.077 692.669 222.053 692.669 233.14H702.669C702.669 219.747 698.345 208.763 689.232 200.912L682.705 208.488ZM692.669 233.14C692.669 243.206 689.413 250.539 683.26 255.799L689.758 263.401C698.485 255.941 702.669 245.634 702.669 233.14H692.669ZM683.265 255.795C677.049 261.094 668.56 264.029 657.299 264.14L657.398 274.14C670.377 274.011 681.329 270.586 689.753 263.405L683.265 255.795ZM652.36 268.807L651.46 282.307L661.438 282.973L662.338 269.473L652.36 268.807ZM656.449 277.64H629.449V287.64H656.449V277.64ZM634.447 282.506L633.547 249.026L623.551 249.294L624.451 282.774L634.447 282.506ZM628.549 254.16H639.349V244.16H628.549V254.16ZM639.349 254.16C648.86 254.16 656.76 253.009 662.554 250.256L658.264 241.224C654.458 243.031 648.317 244.16 639.349 244.16V254.16ZM662.511 250.277C665.767 248.768 668.434 246.523 670.242 243.479C672.032 240.467 672.789 237 672.789 233.32H662.789C662.789 235.64 662.316 237.243 661.645 238.371C660.994 239.467 659.971 240.432 658.307 241.203L662.511 250.277ZM672.789 233.32C672.789 228.197 671.376 223.537 667.994 219.976L660.744 226.864C661.921 228.103 662.789 230.042 662.789 233.32H672.789ZM667.994 219.976C664.558 216.36 659.939 214.82 654.829 214.82V224.82C657.879 224.82 659.619 225.68 660.744 226.864L667.994 219.976ZM654.829 214.82C649.493 214.82 644.69 216.412 641.128 220.152L648.37 227.048C649.608 225.748 651.525 224.82 654.829 224.82V214.82ZM641.213 220.064C637.664 223.614 636.149 228.308 636.149 233.5H646.149C646.149 230.292 647.034 228.386 648.284 227.136L641.213 220.064ZM641.149 228.5H612.169V238.5H641.149V228.5ZM617.166 233.336C616.953 226.831 618.281 221.135 621.048 216.113L612.29 211.287C608.577 218.025 606.905 225.529 607.172 233.664L617.166 233.336ZM621.01 216.181C623.855 211.201 628.035 207.232 633.73 204.279L629.127 195.401C621.863 199.168 616.202 204.439 612.328 211.219L621.01 216.181ZM633.761 204.263C639.491 201.242 646.571 199.62 655.189 199.62V189.62C645.327 189.62 636.567 191.478 629.097 195.417L633.761 204.263ZM643.309 324.44C638.937 324.44 635.748 323.208 633.327 321.037L626.651 328.483C631.19 332.552 636.881 334.44 643.309 334.44V324.44ZM633.46 321.161C631.08 318.866 629.949 316.206 629.949 312.88H619.949C619.949 318.914 622.178 324.174 626.518 328.359L633.46 321.161ZM629.949 312.88C629.949 309.394 631.108 306.687 633.46 304.419L626.518 297.221C622.15 301.433 619.949 306.766 619.949 312.88H629.949ZM633.396 304.479C635.824 302.219 638.989 300.96 643.309 300.96V290.96C636.829 290.96 631.114 292.941 626.582 297.161L633.396 304.479ZM643.309 300.96C647.478 300.96 650.495 302.198 652.798 304.419L659.74 297.221C655.323 292.962 649.699 290.96 643.309 290.96V300.96ZM652.862 304.479C655.315 306.763 656.489 309.453 656.489 312.88H666.489C666.489 306.707 664.183 301.357 659.676 297.161L652.862 304.479ZM656.489 312.88C656.489 316.147 655.344 318.789 652.862 321.101L659.676 328.419C664.153 324.251 666.489 318.973 666.489 312.88H656.489ZM652.867 321.096C650.571 323.227 647.532 324.44 643.309 324.44V334.44C649.646 334.44 655.246 332.533 659.671 328.424L652.867 321.096Z" fill="#B11EFE" fill-opacity="0.84"/>
</g>
</svg>
