<svg width="782" height="360" viewBox="0 0 782 360" fill="none" xmlns="http://www.w3.org/2000/svg">
<g opacity="0.2">
<path d="M88.8 166.4C75.6 166.4 63.4667 163.333 52.4 157.2C41.4667 151.067 32.7333 142.533 26.2 131.6C19.8 120.533 16.6 108.133 16.6 94.4C16.6 80.6667 19.8 68.3333 26.2 57.4C32.7333 46.4667 41.4667 37.9333 52.4 31.8C63.4667 25.6667 75.6 22.6 88.8 22.6C102 22.6 114.067 25.6667 125 31.8C136.067 37.9333 144.733 46.4667 151 57.4C157.4 68.3333 160.6 80.6667 160.6 94.4C160.6 108.133 157.4 120.533 151 131.6C144.6 142.533 135.933 151.067 125 157.2C114.067 163.333 102 166.4 88.8 166.4ZM88.8 135.2C100 135.2 108.933 131.467 115.6 124C122.4 116.533 125.8 106.667 125.8 94.4C125.8 82 122.4 72.1333 115.6 64.8C108.933 57.3333 100 53.6 88.8 53.6C77.4667 53.6 68.4 57.2667 61.6 64.6C54.9333 71.9333 51.6 81.8667 51.6 94.4C51.6 106.8 54.9333 116.733 61.6 124.2C68.4 131.533 77.4667 135.2 88.8 135.2ZM213.227 24.6V108.6C213.227 117 215.293 123.467 219.427 128C223.56 132.533 229.627 134.8 237.627 134.8C245.627 134.8 251.76 132.533 256.027 128C260.293 123.467 262.427 117 262.427 108.6V24.6H296.627V108.4C296.627 120.933 293.96 131.533 288.627 140.2C283.293 148.867 276.093 155.4 267.027 159.8C258.093 164.2 248.093 166.4 237.027 166.4C225.96 166.4 216.027 164.267 207.227 160C198.56 155.6 191.693 149.067 186.627 140.4C181.56 131.6 179.027 120.933 179.027 108.4V24.6H213.227ZM392.242 165L363.042 112H354.842V165H320.642V24.6H378.042C389.109 24.6 398.509 26.5333 406.242 30.4C414.109 34.2667 419.976 39.6 423.842 46.4C427.709 53.0667 429.642 60.5333 429.642 68.8C429.642 78.1333 426.976 86.4667 421.642 93.8C416.442 101.133 408.709 106.333 398.442 109.4L430.842 165H392.242ZM354.842 87.8H376.042C382.309 87.8 386.976 86.2667 390.042 83.2C393.242 80.1333 394.842 75.8 394.842 70.2C394.842 64.8667 393.242 60.6667 390.042 57.6C386.976 54.5333 382.309 53 376.042 53H354.842V87.8ZM154.2 194.6L104.4 335H61.6L11.8 194.6H48.2L83 300.6L118 194.6H154.2ZM255.894 310.2H203.494L195.094 335H159.294L210.094 194.6H249.694L300.494 335H264.294L255.894 310.2ZM247.094 283.8L229.694 232.4L212.494 283.8H247.094ZM350.155 308.6H394.955V335H315.955V194.6H350.155V308.6ZM444.867 194.6V278.6C444.867 287 446.934 293.467 451.067 298C455.201 302.533 461.267 304.8 469.267 304.8C477.267 304.8 483.401 302.533 487.667 298C491.934 293.467 494.067 287 494.067 278.6V194.6H528.267V278.4C528.267 290.933 525.601 301.533 520.267 310.2C514.934 318.867 507.734 325.4 498.667 329.8C489.734 334.2 479.734 336.4 468.667 336.4C457.601 336.4 447.667 334.267 438.867 330C430.201 325.6 423.334 319.067 418.267 310.4C413.201 301.6 410.667 290.933 410.667 278.4V194.6H444.867ZM586.483 222V250.4H632.283V276.8H586.483V307.6H638.283V335H552.283V194.6H638.283V222H586.483ZM711.286 336.4C701.019 336.4 691.819 334.733 683.686 331.4C675.553 328.067 669.019 323.133 664.086 316.6C659.286 310.067 656.753 302.2 656.486 293H692.886C693.419 298.2 695.219 302.2 698.286 305C701.353 307.667 705.353 309 710.286 309C715.353 309 719.353 307.867 722.286 305.6C725.219 303.2 726.686 299.933 726.686 295.8C726.686 292.333 725.486 289.467 723.086 287.2C720.819 284.933 717.953 283.067 714.486 281.6C711.153 280.133 706.353 278.467 700.086 276.6C691.019 273.8 683.619 271 677.886 268.2C672.153 265.4 667.219 261.267 663.086 255.8C658.953 250.333 656.886 243.2 656.886 234.4C656.886 221.333 661.619 211.133 671.086 203.8C680.553 196.333 692.886 192.6 708.086 192.6C723.553 192.6 736.019 196.333 745.486 203.8C754.953 211.133 760.019 221.4 760.686 234.6H723.686C723.419 230.067 721.753 226.533 718.686 224C715.619 221.333 711.686 220 706.886 220C702.753 220 699.419 221.133 696.886 223.4C694.353 225.533 693.086 228.667 693.086 232.8C693.086 237.333 695.219 240.867 699.486 243.4C703.753 245.933 710.419 248.667 719.486 251.6C728.553 254.667 735.886 257.6 741.486 260.4C747.219 263.2 752.153 267.267 756.286 272.6C760.419 277.933 762.486 284.8 762.486 293.2C762.486 301.2 760.419 308.467 756.286 315C752.286 321.533 746.419 326.733 738.686 330.6C730.953 334.467 721.819 336.4 711.286 336.4Z" fill="white"/>
<path d="M52.4 157.2L49.9537 161.561L49.965 161.567L49.9763 161.573L52.4 157.2ZM26.2 131.6L21.8717 134.103L21.8896 134.134L21.9079 134.165L26.2 131.6ZM26.2 57.4L21.9079 54.8352L21.8963 54.8546L21.8849 54.8741L26.2 57.4ZM52.4 31.8L49.9763 27.4267L49.965 27.433L49.9537 27.4393L52.4 31.8ZM125 31.8L122.554 36.1607L122.565 36.167L122.576 36.1733L125 31.8ZM151 57.4L146.662 59.8864L146.673 59.9062L146.685 59.9259L151 57.4ZM151 131.6L155.315 134.126L155.322 134.115L155.328 134.103L151 131.6ZM125 157.2L127.446 161.561L127.446 161.561L125 157.2ZM115.6 124L111.903 120.633L111.887 120.652L111.87 120.67L115.6 124ZM115.6 64.8L111.87 68.1301L111.902 68.1652L111.934 68.1997L115.6 64.8ZM61.6 64.6L57.9337 61.2003L57.9169 61.2184L57.9003 61.2366L61.6 64.6ZM61.6 124.2L57.8703 127.53L57.9017 127.565L57.9337 127.6L61.6 124.2ZM88.8 161.4C76.4099 161.4 65.1161 158.531 54.8237 152.827L49.9763 161.573C61.8173 168.136 74.7901 171.4 88.8 171.4V161.4ZM54.8463 152.839C44.6871 147.14 36.585 139.232 30.4921 129.035L21.9079 134.165C28.8816 145.835 38.2462 154.993 49.9537 161.561L54.8463 152.839ZM30.5283 129.097C24.6009 118.847 21.6 107.322 21.6 94.4H11.6C11.6 108.945 14.9991 122.219 21.8717 134.103L30.5283 129.097ZM21.6 94.4C21.6 81.4775 24.601 70.0291 30.5151 59.9259L21.8849 54.8741C14.999 66.6375 11.6 79.8559 11.6 94.4H21.6ZM30.4921 59.9648C36.585 49.7684 44.6871 41.8597 54.8463 36.1607L49.9537 27.4393C38.2462 34.0069 28.8816 43.1649 21.9079 54.8352L30.4921 59.9648ZM54.8237 36.1733C65.1161 30.4691 76.4099 27.6 88.8 27.6V17.6C74.7901 17.6 61.8173 20.8643 49.9763 27.4267L54.8237 36.1733ZM88.8 27.6C101.19 27.6 112.408 30.469 122.554 36.1607L127.446 27.4393C115.726 20.8644 102.81 17.6 88.8 17.6V27.6ZM122.576 36.1733C132.848 41.866 140.851 49.7483 146.662 59.8864L155.338 54.9136C148.615 43.185 139.285 34.0006 127.424 27.4267L122.576 36.1733ZM146.685 59.9259C152.599 70.0291 155.6 81.4775 155.6 94.4H165.6C165.6 79.8559 162.201 66.6375 155.315 54.8741L146.685 59.9259ZM155.6 94.4C155.6 107.322 152.599 118.847 146.672 129.097L155.328 134.103C162.201 122.219 165.6 108.945 165.6 94.4H155.6ZM146.685 129.074C140.729 139.249 132.704 147.145 122.554 152.839L127.446 161.561C139.163 154.988 148.471 145.817 155.315 134.126L146.685 129.074ZM122.554 152.839C112.408 158.531 101.19 161.4 88.8 161.4V171.4C102.81 171.4 115.726 168.136 127.446 161.561L122.554 152.839ZM88.8 140.2C101.236 140.2 111.596 135.992 119.33 127.33L111.87 120.67C106.271 126.941 98.7643 130.2 88.8 130.2V140.2ZM119.297 127.367C127.107 118.791 130.8 107.631 130.8 94.4H120.8C120.8 105.702 117.693 114.276 111.903 120.633L119.297 127.367ZM130.8 94.4C130.8 81.0558 127.117 69.8668 119.266 61.4003L111.934 68.1997C117.683 74.3999 120.8 82.9442 120.8 94.4H130.8ZM119.33 61.4699C111.596 52.8078 101.236 48.6 88.8 48.6V58.6C98.7643 58.6 106.271 61.8589 111.87 68.1301L119.33 61.4699ZM88.8 48.6C76.2795 48.6 65.8104 52.7058 57.9337 61.2003L65.2663 67.9997C70.9896 61.8276 78.6538 58.6 88.8 58.6V48.6ZM57.9003 61.2366C50.1926 69.7151 46.6 80.9642 46.6 94.4H56.6C56.6 82.7691 59.674 74.1516 65.2997 67.9634L57.9003 61.2366ZM46.6 94.4C46.6 107.723 50.2026 118.942 57.8703 127.53L65.3297 120.87C59.664 114.524 56.6 105.877 56.6 94.4H46.6ZM57.9337 127.6C65.8104 136.094 76.2795 140.2 88.8 140.2V130.2C78.6538 130.2 70.9896 126.972 65.2663 120.8L57.9337 127.6ZM213.227 24.6H218.227V19.6H213.227V24.6ZM219.427 128L215.732 131.369L215.732 131.369L219.427 128ZM256.027 128L259.668 131.427L259.668 131.427L256.027 128ZM262.427 24.6V19.6H257.427V24.6H262.427ZM296.627 24.6H301.627V19.6H296.627V24.6ZM288.627 140.2L292.885 142.82L292.885 142.82L288.627 140.2ZM267.027 159.8L264.844 155.302L264.83 155.308L264.817 155.315L267.027 159.8ZM207.227 160L204.963 164.458L205.004 164.479L205.045 164.499L207.227 160ZM186.627 140.4L182.293 142.895L182.302 142.909L182.31 142.923L186.627 140.4ZM179.027 24.6V19.6H174.027V24.6H179.027ZM208.227 24.6V108.6H218.227V24.6H208.227ZM208.227 108.6C208.227 117.782 210.491 125.621 215.732 131.369L223.121 124.631C220.095 121.313 218.227 116.218 218.227 108.6H208.227ZM215.732 131.369C221.079 137.234 228.672 139.8 237.627 139.8V129.8C230.581 129.8 226.041 127.833 223.121 124.631L215.732 131.369ZM237.627 139.8C246.59 139.8 254.205 137.231 259.668 131.427L252.386 124.573C249.315 127.836 244.663 129.8 237.627 129.8V139.8ZM259.668 131.427C265.075 125.681 267.427 117.82 267.427 108.6H257.427C257.427 116.18 255.511 121.252 252.386 124.573L259.668 131.427ZM267.427 108.6V24.6H257.427V108.6H267.427ZM262.427 29.6H296.627V19.6H262.427V29.6ZM291.627 24.6V108.4H301.627V24.6H291.627ZM291.627 108.4C291.627 120.222 289.116 129.865 284.368 137.58L292.885 142.82C298.804 133.201 301.627 121.645 301.627 108.4H291.627ZM284.368 137.58C279.529 145.444 273.045 151.322 264.844 155.302L269.21 164.298C279.141 159.478 287.058 152.289 292.885 142.82L284.368 137.58ZM264.817 155.315C256.645 159.34 247.413 161.4 237.027 161.4V171.4C248.773 171.4 259.542 169.06 269.236 164.285L264.817 155.315ZM237.027 161.4C226.616 161.4 217.443 159.397 209.408 155.501L205.045 164.499C214.61 169.136 225.304 171.4 237.027 171.4V161.4ZM209.49 155.542C201.708 151.591 195.542 145.743 190.943 137.877L182.31 142.923C187.844 152.39 195.411 159.609 204.963 164.458L209.49 155.542ZM190.96 137.905C186.421 130.023 184.027 120.261 184.027 108.4H174.027C174.027 121.606 176.698 133.177 182.293 142.895L190.96 137.905ZM184.027 108.4V24.6H174.027V108.4H184.027ZM179.027 29.6H213.227V19.6H179.027V29.6ZM392.242 165L387.863 167.413L389.288 170H392.242V165ZM363.042 112L367.422 109.587L365.996 107H363.042V112ZM354.842 112V107H349.842V112H354.842ZM354.842 165V170H359.842V165H354.842ZM320.642 165H315.642V170H320.642V165ZM320.642 24.6V19.6H315.642V24.6H320.642ZM406.242 30.4L404.006 34.8721L404.021 34.8797L404.037 34.8872L406.242 30.4ZM423.842 46.4L419.496 48.8715L419.506 48.8901L419.517 48.9086L423.842 46.4ZM421.642 93.8L417.599 90.8591L417.581 90.8834L417.564 90.9079L421.642 93.8ZM398.442 109.4L397.011 104.609L390.923 106.428L394.122 111.917L398.442 109.4ZM430.842 165V170H439.543L435.162 162.483L430.842 165ZM354.842 87.8H349.842V92.8H354.842V87.8ZM390.042 83.2L386.583 79.5901L386.544 79.6269L386.507 79.6645L390.042 83.2ZM390.042 57.6L386.507 61.1355L386.544 61.1731L386.583 61.2099L390.042 57.6ZM354.842 53V48H349.842V53H354.842ZM396.622 162.587L367.422 109.587L358.663 114.413L387.863 167.413L396.622 162.587ZM363.042 107H354.842V117H363.042V107ZM349.842 112V165H359.842V112H349.842ZM354.842 160H320.642V170H354.842V160ZM325.642 165V24.6H315.642V165H325.642ZM320.642 29.6H378.042V19.6H320.642V29.6ZM378.042 29.6C388.543 29.6 397.134 31.4359 404.006 34.8721L408.478 25.9279C399.884 21.6307 389.674 19.6 378.042 19.6V29.6ZM404.037 34.8872C411.116 38.3671 416.183 43.0458 419.496 48.8715L428.189 43.9285C423.768 36.1541 417.101 30.1662 408.448 25.9127L404.037 34.8872ZM419.517 48.9086C422.91 54.7578 424.642 61.3482 424.642 68.8H434.642C434.642 59.7185 432.508 51.3755 428.167 43.8914L419.517 48.9086ZM424.642 68.8C424.642 77.1098 422.291 84.4068 417.599 90.8591L425.686 96.7409C431.66 88.5265 434.642 79.1569 434.642 68.8H424.642ZM417.564 90.9079C413.127 97.1646 406.421 101.799 397.011 104.609L399.873 114.191C410.997 110.868 419.757 105.102 425.721 96.6921L417.564 90.9079ZM394.122 111.917L426.522 167.517L435.162 162.483L402.762 106.883L394.122 111.917ZM430.842 160H392.242V170H430.842V160ZM354.842 92.8H376.042V82.8H354.842V92.8ZM376.042 92.8C383.043 92.8 389.225 91.0886 393.578 86.7355L386.507 79.6645C384.726 81.4448 381.574 82.8 376.042 82.8V92.8ZM393.502 86.8099C397.93 82.5659 399.842 76.7825 399.842 70.2H389.842C389.842 74.8175 388.554 77.7008 386.583 79.5901L393.502 86.8099ZM399.842 70.2C399.842 63.802 397.882 58.188 393.502 53.9901L386.583 61.2099C388.602 63.1453 389.842 65.9313 389.842 70.2H399.842ZM393.578 54.0645C389.225 49.7114 383.043 48 376.042 48V58C381.574 58 384.726 59.3552 386.507 61.1355L393.578 54.0645ZM376.042 48H354.842V58H376.042V48ZM349.842 53V87.8H359.842V53H349.842ZM154.2 194.6L158.912 196.271L161.279 189.6H154.2V194.6ZM104.4 335V340H107.932L109.112 336.671L104.4 335ZM61.6 335L56.8877 336.671L58.0683 340H61.6V335ZM11.8 194.6V189.6H4.72128L7.08766 196.271L11.8 194.6ZM48.2 194.6L52.9505 193.04L51.8211 189.6H48.2V194.6ZM83 300.6L78.2495 302.16L82.9864 316.588L87.7479 302.168L83 300.6ZM118 194.6V189.6H114.385L113.252 193.032L118 194.6ZM149.488 192.929L99.6877 333.329L109.112 336.671L158.912 196.271L149.488 192.929ZM104.4 330H61.6V340H104.4V330ZM66.3123 333.329L16.5123 192.929L7.08766 196.271L56.8877 336.671L66.3123 333.329ZM11.8 199.6H48.2V189.6H11.8V199.6ZM43.4495 196.16L78.2495 302.16L87.7505 299.04L52.9505 193.04L43.4495 196.16ZM87.7479 302.168L122.748 196.168L113.252 193.032L78.2521 299.032L87.7479 302.168ZM118 199.6H154.2V189.6H118V199.6ZM255.894 310.2L260.629 308.596L259.479 305.2H255.894V310.2ZM203.494 310.2V305.2H199.908L198.758 308.596L203.494 310.2ZM195.094 335V340H198.679L199.829 336.604L195.094 335ZM159.294 335L154.592 333.299L152.167 340H159.294V335ZM210.094 194.6V189.6H206.586L205.392 192.899L210.094 194.6ZM249.694 194.6L254.395 192.899L253.202 189.6H249.694V194.6ZM300.494 335V340H307.62L305.195 333.299L300.494 335ZM264.294 335L259.558 336.604L260.708 340H264.294V335ZM247.094 283.8V288.8H254.065L251.83 282.197L247.094 283.8ZM229.694 232.4L234.43 230.797L229.666 216.726L224.952 230.813L229.694 232.4ZM212.494 283.8L207.752 282.213L205.548 288.8H212.494V283.8ZM255.894 305.2H203.494V315.2H255.894V305.2ZM198.758 308.596L190.358 333.396L199.829 336.604L208.229 311.804L198.758 308.596ZM195.094 330H159.294V340H195.094V330ZM163.995 336.701L214.795 196.301L205.392 192.899L154.592 333.299L163.995 336.701ZM210.094 199.6H249.694V189.6H210.094V199.6ZM244.992 196.301L295.792 336.701L305.195 333.299L254.395 192.899L244.992 196.301ZM300.494 330H264.294V340H300.494V330ZM269.029 333.396L260.629 308.596L251.158 311.804L259.558 336.604L269.029 333.396ZM251.83 282.197L234.43 230.797L224.958 234.003L242.358 285.403L251.83 282.197ZM224.952 230.813L207.752 282.213L217.235 285.387L234.435 233.987L224.952 230.813ZM212.494 288.8H247.094V278.8H212.494V288.8ZM350.155 308.6H345.155V313.6H350.155V308.6ZM394.955 308.6H399.955V303.6H394.955V308.6ZM394.955 335V340H399.955V335H394.955ZM315.955 335H310.955V340H315.955V335ZM315.955 194.6V189.6H310.955V194.6H315.955ZM350.155 194.6H355.155V189.6H350.155V194.6ZM350.155 313.6H394.955V303.6H350.155V313.6ZM389.955 308.6V335H399.955V308.6H389.955ZM394.955 330H315.955V340H394.955V330ZM320.955 335V194.6H310.955V335H320.955ZM315.955 199.6H350.155V189.6H315.955V199.6ZM345.155 194.6V308.6H355.155V194.6H345.155ZM444.867 194.6H449.867V189.6H444.867V194.6ZM451.067 298L447.372 301.369L447.372 301.369L451.067 298ZM487.667 298L491.308 301.427L491.308 301.427L487.667 298ZM494.067 194.6V189.6H489.067V194.6H494.067ZM528.267 194.6H533.267V189.6H528.267V194.6ZM520.267 310.2L524.525 312.82L524.525 312.82L520.267 310.2ZM498.667 329.8L496.484 325.302L496.471 325.308L496.458 325.315L498.667 329.8ZM438.867 330L436.604 334.458L436.645 334.479L436.686 334.499L438.867 330ZM418.267 310.4L413.934 312.895L413.942 312.909L413.951 312.923L418.267 310.4ZM410.667 194.6V189.6H405.667V194.6H410.667ZM439.867 194.6V278.6H449.867V194.6H439.867ZM439.867 278.6C439.867 287.782 442.132 295.621 447.372 301.369L454.762 294.631C451.736 291.313 449.867 286.218 449.867 278.6H439.867ZM447.372 301.369C452.72 307.234 460.313 309.8 469.267 309.8V299.8C462.222 299.8 457.681 297.833 454.762 294.631L447.372 301.369ZM469.267 309.8C478.231 309.8 485.845 307.231 491.308 301.427L484.026 294.573C480.956 297.836 476.304 299.8 469.267 299.8V309.8ZM491.308 301.427C496.716 295.681 499.067 287.82 499.067 278.6H489.067C489.067 286.18 487.152 291.252 484.026 294.573L491.308 301.427ZM499.067 278.6V194.6H489.067V278.6H499.067ZM494.067 199.6H528.267V189.6H494.067V199.6ZM523.267 194.6V278.4H533.267V194.6H523.267ZM523.267 278.4C523.267 290.222 520.756 299.865 516.009 307.58L524.525 312.82C530.445 303.201 533.267 291.645 533.267 278.4H523.267ZM516.009 307.58C511.169 315.444 504.686 321.322 496.484 325.302L500.85 334.298C510.782 329.478 518.698 322.289 524.525 312.82L516.009 307.58ZM496.458 325.315C488.285 329.34 479.054 331.4 468.667 331.4V341.4C480.414 341.4 491.182 339.06 500.876 334.285L496.458 325.315ZM468.667 331.4C458.256 331.4 449.084 329.397 441.049 325.501L436.686 334.499C446.25 339.136 456.945 341.4 468.667 341.4V331.4ZM441.131 325.542C433.349 321.591 427.183 315.743 422.584 307.877L413.951 312.923C419.485 322.39 427.052 329.609 436.604 334.458L441.131 325.542ZM422.6 307.905C418.062 300.023 415.667 290.261 415.667 278.4H405.667C405.667 291.606 408.339 303.177 413.934 312.895L422.6 307.905ZM415.667 278.4V194.6H405.667V278.4H415.667ZM410.667 199.6H444.867V189.6H410.667V199.6ZM586.483 222V217H581.483V222H586.483ZM586.483 250.4H581.483V255.4H586.483V250.4ZM632.283 250.4H637.283V245.4H632.283V250.4ZM632.283 276.8V281.8H637.283V276.8H632.283ZM586.483 276.8V271.8H581.483V276.8H586.483ZM586.483 307.6H581.483V312.6H586.483V307.6ZM638.283 307.6H643.283V302.6H638.283V307.6ZM638.283 335V340H643.283V335H638.283ZM552.283 335H547.283V340H552.283V335ZM552.283 194.6V189.6H547.283V194.6H552.283ZM638.283 194.6H643.283V189.6H638.283V194.6ZM638.283 222V227H643.283V222H638.283ZM581.483 222V250.4H591.483V222H581.483ZM586.483 255.4H632.283V245.4H586.483V255.4ZM627.283 250.4V276.8H637.283V250.4H627.283ZM632.283 271.8H586.483V281.8H632.283V271.8ZM581.483 276.8V307.6H591.483V276.8H581.483ZM586.483 312.6H638.283V302.6H586.483V312.6ZM633.283 307.6V335H643.283V307.6H633.283ZM638.283 330H552.283V340H638.283V330ZM557.283 335V194.6H547.283V335H557.283ZM552.283 199.6H638.283V189.6H552.283V199.6ZM633.283 194.6V222H643.283V194.6H633.283ZM638.283 217H586.483V227H638.283V217ZM683.686 331.4L681.79 336.027L681.79 336.027L683.686 331.4ZM664.086 316.6L660.057 319.56L660.076 319.587L660.096 319.613L664.086 316.6ZM656.486 293V288H651.339L651.488 293.145L656.486 293ZM692.886 293L697.86 292.49L697.399 288H692.886V293ZM698.286 305L694.915 308.692L694.959 308.733L695.005 308.773L698.286 305ZM722.286 305.6L725.343 309.556L725.398 309.514L725.452 309.47L722.286 305.6ZM723.086 287.2L719.55 290.736L719.601 290.786L719.653 290.835L723.086 287.2ZM714.486 281.6L712.472 286.177L712.505 286.191L712.538 286.205L714.486 281.6ZM700.086 276.6L698.611 281.377L698.635 281.385L698.659 281.392L700.086 276.6ZM677.886 268.2L675.692 272.693L677.886 268.2ZM663.086 255.8L667.074 252.784L667.074 252.784L663.086 255.8ZM671.086 203.8L674.148 207.753L674.165 207.739L674.182 207.726L671.086 203.8ZM745.486 203.8L742.39 207.726L742.407 207.739L742.424 207.753L745.486 203.8ZM760.686 234.6V239.6H765.945L765.68 234.348L760.686 234.6ZM723.686 234.6L718.695 234.894L718.971 239.6H723.686V234.6ZM718.686 224L715.405 227.773L715.453 227.815L715.502 227.855L718.686 224ZM696.886 223.4L700.107 227.225L700.164 227.176L700.22 227.126L696.886 223.4ZM699.486 243.4L702.039 239.101L702.039 239.101L699.486 243.4ZM719.486 251.6L721.088 246.864L721.057 246.853L721.025 246.843L719.486 251.6ZM741.486 260.4L739.25 264.872L739.271 264.883L739.292 264.893L741.486 260.4ZM756.286 272.6L752.334 275.663L752.334 275.663L756.286 272.6ZM756.286 315L752.061 312.327L752.041 312.358L752.022 312.389L756.286 315ZM738.686 330.6L736.45 326.128L736.45 326.128L738.686 330.6ZM711.286 331.4C701.562 331.4 693.021 329.822 685.582 326.773L681.79 336.027C690.617 339.644 700.477 341.4 711.286 341.4V331.4ZM685.582 326.773C678.215 323.754 672.429 319.352 668.076 313.587L660.096 319.613C665.61 326.915 672.89 332.379 681.79 336.027L685.582 326.773ZM668.115 313.64C663.996 308.032 661.725 301.182 661.484 292.855L651.488 293.145C651.78 303.218 654.576 312.101 660.057 319.56L668.115 313.64ZM656.486 298H692.886V288H656.486V298ZM687.912 293.51C688.537 299.604 690.724 304.866 694.915 308.692L701.657 301.308C699.714 299.534 698.301 296.796 697.86 292.49L687.912 293.51ZM695.005 308.773C699.166 312.391 704.416 314 710.286 314V304C706.289 304 703.539 302.942 701.567 301.227L695.005 308.773ZM710.286 314C716.058 314 721.263 312.71 725.343 309.556L719.229 301.644C717.443 303.024 714.647 304 710.286 304V314ZM725.452 309.47C729.661 306.026 731.686 301.278 731.686 295.8H721.686C721.686 298.588 720.778 300.374 719.12 301.73L725.452 309.47ZM731.686 295.8C731.686 291.035 729.974 286.828 726.519 283.565L719.653 290.835C720.998 292.105 721.686 293.632 721.686 295.8H731.686ZM726.621 283.664C723.827 280.87 720.392 278.67 716.434 276.995L712.538 286.205C715.513 287.464 717.811 288.996 719.55 290.736L726.621 283.664ZM716.5 277.023C712.882 275.432 707.85 273.695 701.513 271.808L698.659 281.392C704.856 283.238 709.423 284.835 712.472 286.177L716.5 277.023ZM701.561 271.823C692.635 269.066 685.499 266.354 680.08 263.707L675.692 272.693C681.739 275.646 689.404 278.534 698.611 281.377L701.561 271.823ZM680.08 263.707C675.104 261.277 670.77 257.672 667.074 252.784L659.098 258.816C663.669 264.861 669.201 269.523 675.692 272.693L680.08 263.707ZM667.074 252.784C663.763 248.405 661.886 242.423 661.886 234.4H651.886C651.886 243.977 654.142 252.261 659.098 258.816L667.074 252.784ZM661.886 234.4C661.886 222.718 666.026 214.044 674.148 207.753L668.024 199.847C657.212 208.223 651.886 219.949 651.886 234.4H661.886ZM674.182 207.726C682.558 201.12 693.711 197.6 708.086 197.6V187.6C692.061 187.6 678.547 191.547 667.99 199.874L674.182 207.726ZM708.086 197.6C722.751 197.6 734.028 201.131 742.39 207.726L748.582 199.874C738.01 191.536 724.354 187.6 708.086 187.6V197.6ZM742.424 207.753C750.61 214.094 755.091 222.938 755.692 234.852L765.68 234.348C764.948 219.862 759.295 208.173 748.548 199.847L742.424 207.753ZM760.686 229.6H723.686V239.6H760.686V229.6ZM728.677 234.306C728.342 228.602 726.164 223.692 721.87 220.145L715.502 227.855C717.341 229.375 718.497 231.531 718.695 234.894L728.677 234.306ZM721.967 220.227C717.83 216.63 712.662 215 706.886 215V225C710.71 225 713.408 226.037 715.405 227.773L721.967 220.227ZM706.886 215C701.801 215 697.19 216.418 693.552 219.674L700.22 227.126C701.648 225.848 703.704 225 706.886 225V215ZM693.665 219.575C689.731 222.888 688.086 227.589 688.086 232.8H698.086C698.086 229.744 698.974 228.178 700.107 227.225L693.665 219.575ZM688.086 232.8C688.086 239.291 691.323 244.368 696.933 247.699L702.039 239.101C699.116 237.365 698.086 235.376 698.086 232.8H688.086ZM696.933 247.699C701.691 250.524 708.787 253.394 717.947 256.357L721.025 246.843C712.052 243.94 705.814 241.342 702.039 239.101L696.933 247.699ZM717.884 256.336C726.834 259.364 733.932 262.213 739.25 264.872L743.722 255.928C737.84 252.987 730.271 249.97 721.088 246.864L717.884 256.336ZM739.292 264.893C744.298 267.338 748.642 270.899 752.334 275.663L760.238 269.537C755.664 263.635 750.141 259.062 743.68 255.907L739.292 264.893ZM752.334 275.663C755.636 279.923 757.486 285.632 757.486 293.2H767.486C767.486 283.968 765.203 275.943 760.238 269.537L752.334 275.663ZM757.486 293.2C757.486 300.288 755.67 306.622 752.061 312.327L760.511 317.673C765.169 310.311 767.486 302.112 767.486 293.2H757.486ZM752.022 312.389C748.571 318.025 743.457 322.624 736.45 326.128L740.922 335.072C749.382 330.842 756.001 325.041 760.55 317.611L752.022 312.389ZM736.45 326.128C729.546 329.58 721.21 331.4 711.286 331.4V341.4C722.429 341.4 732.359 339.354 740.922 335.072L736.45 326.128Z" fill="#B11EFE" fill-opacity="0.84"/>
</g>
</svg>
