<svg width="2866" height="296" viewBox="0 0 2866 296" fill="none" xmlns="http://www.w3.org/2000/svg">
<g opacity="0.2" filter="url(#filter0_d_1319_671)">
<path d="M197.6 235.4H92.8L76 285H4.4L106 4.19999H185.2L286.8 285H214.4L197.6 235.4ZM180 182.6L145.2 79.8L110.8 182.6H180ZM460.922 285L402.522 179H386.122V285H317.722V4.19999H432.522C454.655 4.19999 473.455 8.06666 488.922 15.8C504.655 23.5333 516.389 34.2 524.122 47.8C531.855 61.1333 535.722 76.0667 535.722 92.6C535.722 111.267 530.389 127.933 519.722 142.6C509.322 157.267 493.855 167.667 473.322 173.8L538.122 285H460.922ZM386.122 130.6H428.522C441.055 130.6 450.389 127.533 456.522 121.4C462.922 115.267 466.122 106.6 466.122 95.4C466.122 84.7333 462.922 76.3333 456.522 70.2C450.389 64.0667 441.055 61 428.522 61H386.122V130.6ZM780.659 4.19999V59H706.259V285H637.859V59H563.459V4.19999H780.659ZM1004.95 4.19999C1034.55 4.19999 1060.42 10.0667 1082.55 21.8C1104.69 33.5333 1121.75 50.0667 1133.75 71.4C1146.02 92.4667 1152.15 116.867 1152.15 144.6C1152.15 172.067 1146.02 196.467 1133.75 217.8C1121.75 239.133 1104.55 255.667 1082.15 267.4C1060.02 279.133 1034.29 285 1004.95 285H899.753V4.19999H1004.95ZM1000.55 225.8C1026.42 225.8 1046.55 218.733 1060.95 204.6C1075.35 190.467 1082.55 170.467 1082.55 144.6C1082.55 118.733 1075.35 98.6 1060.95 84.2C1046.55 69.8 1026.42 62.6 1000.55 62.6H968.153V225.8H1000.55ZM1258.78 4.19999V285H1190.38V4.19999H1258.78ZM1451.55 285L1393.15 179H1376.75V285H1308.35V4.19999H1423.15C1445.28 4.19999 1464.08 8.06666 1479.55 15.8C1495.28 23.5333 1507.01 34.2 1514.75 47.8C1522.48 61.1333 1526.35 76.0667 1526.35 92.6C1526.35 111.267 1521.01 127.933 1510.35 142.6C1499.95 157.267 1484.48 167.667 1463.95 173.8L1528.75 285H1451.55ZM1376.75 130.6H1419.15C1431.68 130.6 1441.01 127.533 1447.15 121.4C1453.55 115.267 1456.75 106.6 1456.75 95.4C1456.75 84.7333 1453.55 76.3333 1447.15 70.2C1441.01 64.0667 1431.68 61 1419.15 61H1376.75V130.6ZM1637.68 59V115.8H1729.28V168.6H1637.68V230.2H1741.28V285H1569.28V4.19999H1741.28V59H1637.68ZM1774.09 144.2C1774.09 116.467 1780.09 91.8 1792.09 70.2C1804.09 48.3333 1820.76 31.4 1842.09 19.4C1863.69 7.13332 1888.09 0.999985 1915.29 0.999985C1948.62 0.999985 1977.16 9.79998 2000.89 27.4C2024.62 45 2040.49 69 2048.49 99.4H1973.29C1967.69 87.6667 1959.69 78.7333 1949.29 72.6C1939.16 66.4667 1927.56 63.4 1914.49 63.4C1893.42 63.4 1876.36 70.7333 1863.29 85.4C1850.22 100.067 1843.69 119.667 1843.69 144.2C1843.69 168.733 1850.22 188.333 1863.29 203C1876.36 217.667 1893.42 225 1914.49 225C1927.56 225 1939.16 221.933 1949.29 215.8C1959.69 209.667 1967.69 200.733 1973.29 189H2048.49C2040.49 219.4 2024.62 243.4 2000.89 261C1977.16 278.333 1948.62 287 1915.29 287C1888.09 287 1863.69 281 1842.09 269C1820.76 256.733 1804.09 239.8 1792.09 218.2C1780.09 196.6 1774.09 171.933 1774.09 144.2ZM2292.38 4.19999V59H2217.98V285H2149.58V59H2075.18V4.19999H2292.38ZM2459.51 287.8C2433.11 287.8 2408.84 281.667 2386.71 269.4C2364.84 257.133 2347.37 240.067 2334.31 218.2C2321.51 196.067 2315.11 171.267 2315.11 143.8C2315.11 116.333 2321.51 91.6667 2334.31 69.8C2347.37 47.9333 2364.84 30.8667 2386.71 18.6C2408.84 6.33333 2433.11 0.199995 2459.51 0.199995C2485.91 0.199995 2510.04 6.33333 2531.91 18.6C2554.04 30.8667 2571.37 47.9333 2583.91 69.8C2596.71 91.6667 2603.11 116.333 2603.11 143.8C2603.11 171.267 2596.71 196.067 2583.91 218.2C2571.11 240.067 2553.77 257.133 2531.91 269.4C2510.04 281.667 2485.91 287.8 2459.51 287.8ZM2459.51 225.4C2481.91 225.4 2499.77 217.933 2513.11 203C2526.71 188.067 2533.51 168.333 2533.51 143.8C2533.51 119 2526.71 99.2667 2513.11 84.6C2499.77 69.6666 2481.91 62.2 2459.51 62.2C2436.84 62.2 2418.71 69.5333 2405.11 84.2C2391.77 98.8667 2385.11 118.733 2385.11 143.8C2385.11 168.6 2391.77 188.467 2405.11 203.4C2418.71 218.067 2436.84 225.4 2459.51 225.4ZM2784.36 285L2725.96 179H2709.56V285H2641.16V4.19999H2755.96C2778.09 4.19999 2796.89 8.06666 2812.36 15.8C2828.09 23.5333 2839.83 34.2 2847.56 47.8C2855.29 61.1333 2859.16 76.0667 2859.16 92.6C2859.16 111.267 2853.83 127.933 2843.16 142.6C2832.76 157.267 2817.29 167.667 2796.76 173.8L2861.56 285H2784.36ZM2709.56 130.6H2751.96C2764.49 130.6 2773.83 127.533 2779.96 121.4C2786.36 115.267 2789.56 106.6 2789.56 95.4C2789.56 84.7333 2786.36 76.3333 2779.96 70.2C2773.83 64.0667 2764.49 61 2751.96 61H2709.56V130.6Z" fill="white" shape-rendering="crispEdges"/>
<path d="M197.6 235.4L202.336 233.796L201.185 230.4H197.6V235.4ZM92.8 235.4V230.4H89.2145L88.0643 233.796L92.8 235.4ZM76 285V290H79.5855L80.7357 286.604L76 285ZM4.4 285L-0.301698 283.299L-2.72634 290H4.4V285ZM106 4.19999V-0.800009H102.492L101.298 2.49881L106 4.19999ZM185.2 4.19999L189.902 2.49881L188.708 -0.800009H185.2V4.19999ZM286.8 285V290H293.926L291.502 283.299L286.8 285ZM214.4 285L209.664 286.604L210.815 290H214.4V285ZM180 182.6V187.6H186.971L184.736 180.997L180 182.6ZM145.2 79.8L149.936 78.1968L145.173 64.1256L140.458 78.2133L145.2 79.8ZM110.8 182.6L106.058 181.013L103.854 187.6H110.8V182.6ZM197.6 230.4H92.8V240.4H197.6V230.4ZM88.0643 233.796L71.2643 283.396L80.7357 286.604L97.5357 237.004L88.0643 233.796ZM76 280H4.4V290H76V280ZM9.1017 286.701L110.702 5.90118L101.298 2.49881L-0.301698 283.299L9.1017 286.701ZM106 9.19999H185.2V-0.800009H106V9.19999ZM180.498 5.90118L282.098 286.701L291.502 283.299L189.902 2.49881L180.498 5.90118ZM286.8 280H214.4V290H286.8V280ZM219.136 283.396L202.336 233.796L192.864 237.004L209.664 286.604L219.136 283.396ZM184.736 180.997L149.936 78.1968L140.464 81.4032L175.264 184.203L184.736 180.997ZM140.458 78.2133L106.058 181.013L115.542 184.187L149.942 81.3867L140.458 78.2133ZM110.8 187.6H180V177.6H110.8V187.6ZM460.922 285L456.543 287.413L457.968 290H460.922V285ZM402.522 179L406.901 176.587L405.476 174H402.522V179ZM386.122 179V174H381.122V179H386.122ZM386.122 285V290H391.122V285H386.122ZM317.722 285H312.722V290H317.722V285ZM317.722 4.19999V-0.800009H312.722V4.19999H317.722ZM488.922 15.8L486.686 20.2721L486.701 20.2797L486.716 20.2872L488.922 15.8ZM524.122 47.8L519.775 50.2715L519.786 50.2901L519.797 50.3086L524.122 47.8ZM519.722 142.6L515.678 139.659L515.661 139.683L515.643 139.708L519.722 142.6ZM473.322 173.8L471.891 169.009L465.803 170.828L469.002 176.317L473.322 173.8ZM538.122 285V290H546.823L542.442 282.483L538.122 285ZM386.122 130.6H381.122V135.6H386.122V130.6ZM456.522 121.4L453.062 117.79L453.024 117.827L452.986 117.864L456.522 121.4ZM456.522 70.2L452.986 73.7355L453.024 73.7731L453.062 73.8099L456.522 70.2ZM386.122 61V56H381.122V61H386.122ZM465.301 282.587L406.901 176.587L398.143 181.413L456.543 287.413L465.301 282.587ZM402.522 174H386.122V184H402.522V174ZM381.122 179V285H391.122V179H381.122ZM386.122 280H317.722V290H386.122V280ZM322.722 285V4.19999H312.722V285H322.722ZM317.722 9.19999H432.522V-0.800009H317.722V9.19999ZM432.522 9.19999C454.09 9.19999 472.08 12.9692 486.686 20.2721L491.158 11.3278C474.83 3.16407 455.221 -0.800009 432.522 -0.800009V9.19999ZM486.716 20.2872C501.663 27.6338 512.596 37.6458 519.775 50.2715L528.468 45.3285C520.181 30.7541 507.648 19.4329 491.127 11.3127L486.716 20.2872ZM519.797 50.3086C527.056 62.8245 530.722 76.8815 530.722 92.6H540.722C540.722 75.2518 536.654 59.4422 528.447 45.2914L519.797 50.3086ZM530.722 92.6C530.722 110.243 525.704 125.873 515.678 139.659L523.766 145.541C535.073 129.993 540.722 112.29 540.722 92.6H530.722ZM515.643 139.708C506.007 153.298 491.567 163.132 471.891 169.009L474.753 178.591C496.143 172.201 512.637 161.235 523.801 145.492L515.643 139.708ZM469.002 176.317L533.802 287.517L542.442 282.483L477.642 171.283L469.002 176.317ZM538.122 280H460.922V290H538.122V280ZM386.122 135.6H428.522V125.6H386.122V135.6ZM428.522 135.6C441.79 135.6 452.638 132.355 460.057 124.936L452.986 117.864C448.139 122.711 440.321 125.6 428.522 125.6V135.6ZM459.981 125.01C467.61 117.699 471.122 107.582 471.122 95.4H461.122C461.122 105.618 458.234 112.834 453.062 117.79L459.981 125.01ZM471.122 95.4C471.122 83.6687 467.562 73.8547 459.981 66.5901L453.062 73.8099C458.282 78.812 461.122 85.798 461.122 95.4H471.122ZM460.057 66.6645C452.638 59.2448 441.79 56 428.522 56V66C440.321 66 448.139 68.8886 452.986 73.7355L460.057 66.6645ZM428.522 56H386.122V66H428.522V56ZM381.122 61V130.6H391.122V61H381.122ZM780.659 4.19999H785.659V-0.800009H780.659V4.19999ZM780.659 59V64H785.659V59H780.659ZM706.259 59V54H701.259V59H706.259ZM706.259 285V290H711.259V285H706.259ZM637.859 285H632.859V290H637.859V285ZM637.859 59H642.859V54H637.859V59ZM563.459 59H558.459V64H563.459V59ZM563.459 4.19999V-0.800009H558.459V4.19999H563.459ZM775.659 4.19999V59H785.659V4.19999H775.659ZM780.659 54H706.259V64H780.659V54ZM701.259 59V285H711.259V59H701.259ZM706.259 280H637.859V290H706.259V280ZM642.859 285V59H632.859V285H642.859ZM637.859 54H563.459V64H637.859V54ZM568.459 59V4.19999H558.459V59H568.459ZM563.459 9.19999H780.659V-0.800009H563.459V9.19999ZM1082.55 21.8L1084.9 17.3823L1084.9 17.3823L1082.55 21.8ZM1133.75 71.4L1129.4 73.8513L1129.41 73.8838L1129.43 73.9159L1133.75 71.4ZM1133.75 217.8L1129.42 215.308L1129.41 215.328L1129.4 215.349L1133.75 217.8ZM1082.15 267.4L1079.83 262.971L1079.82 262.977L1079.81 262.982L1082.15 267.4ZM899.753 285H894.753V290H899.753V285ZM899.753 4.19999V-0.800009H894.753V4.19999H899.753ZM968.153 62.6V57.6H963.153V62.6H968.153ZM968.153 225.8H963.153V230.8H968.153V225.8ZM1004.95 9.19999C1033.88 9.19999 1058.92 14.9305 1080.21 26.2176L1084.9 17.3823C1061.92 5.20278 1035.22 -0.800009 1004.95 -0.800009V9.19999ZM1080.21 26.2176C1101.52 37.5133 1117.88 53.3735 1129.4 73.8513L1138.11 68.9487C1125.63 46.7598 1107.85 29.5533 1084.9 17.3823L1080.21 26.2176ZM1129.43 73.9159C1141.2 94.1184 1147.15 117.627 1147.15 144.6H1157.15C1157.15 116.107 1150.84 90.8149 1138.07 68.884L1129.43 73.9159ZM1147.15 144.6C1147.15 171.296 1141.2 194.818 1129.42 215.308L1138.09 220.292C1150.84 198.115 1157.15 172.837 1157.15 144.6H1147.15ZM1129.4 215.349C1117.89 235.811 1101.41 251.67 1079.83 262.971L1084.47 271.829C1107.7 259.663 1125.62 242.456 1138.11 220.251L1129.4 215.349ZM1079.81 262.982C1058.51 274.273 1033.61 280 1004.95 280V290C1034.96 290 1061.53 283.994 1084.5 271.818L1079.81 262.982ZM1004.95 280H899.753V290H1004.95V280ZM904.753 285V4.19999H894.753V285H904.753ZM899.753 9.19999H1004.95V-0.800009H899.753V9.19999ZM1000.55 230.8C1027.34 230.8 1048.88 223.458 1064.46 208.168L1057.45 201.032C1044.23 214.009 1025.5 220.8 1000.55 220.8V230.8ZM1064.46 208.168C1080.06 192.849 1087.55 171.411 1087.55 144.6H1077.55C1077.55 169.522 1070.64 188.085 1057.45 201.032L1064.46 208.168ZM1087.55 144.6C1087.55 117.784 1080.06 96.2384 1064.49 80.6645L1057.42 87.7355C1070.64 100.962 1077.55 119.683 1077.55 144.6H1087.55ZM1064.49 80.6645C1048.91 65.0905 1027.37 57.6 1000.55 57.6V67.6C1025.47 67.6 1044.19 74.5095 1057.42 87.7355L1064.49 80.6645ZM1000.55 57.6H968.153V67.6H1000.55V57.6ZM963.153 62.6V225.8H973.153V62.6H963.153ZM968.153 230.8H1000.55V220.8H968.153V230.8ZM1258.78 4.19999H1263.78V-0.800009H1258.78V4.19999ZM1258.78 285V290H1263.78V285H1258.78ZM1190.38 285H1185.38V290H1190.38V285ZM1190.38 4.19999V-0.800009H1185.38V4.19999H1190.38ZM1253.78 4.19999V285H1263.78V4.19999H1253.78ZM1258.78 280H1190.38V290H1258.78V280ZM1195.38 285V4.19999H1185.38V285H1195.38ZM1190.38 9.19999H1258.78V-0.800009H1190.38V9.19999ZM1451.55 285L1447.17 287.413L1448.59 290H1451.55V285ZM1393.15 179L1397.53 176.587L1396.1 174H1393.15V179ZM1376.75 179V174H1371.75V179H1376.75ZM1376.75 285V290H1381.75V285H1376.75ZM1308.35 285H1303.35V290H1308.35V285ZM1308.35 4.19999V-0.800009H1303.35V4.19999H1308.35ZM1479.55 15.8L1477.31 20.2721L1477.33 20.2797L1477.34 20.2872L1479.55 15.8ZM1514.75 47.8L1510.4 50.2715L1510.41 50.2901L1510.42 50.3086L1514.75 47.8ZM1510.35 142.6L1506.3 139.659L1506.29 139.683L1506.27 139.708L1510.35 142.6ZM1463.95 173.8L1462.52 169.009L1456.43 170.828L1459.63 176.317L1463.95 173.8ZM1528.75 285V290H1537.45L1533.07 282.483L1528.75 285ZM1376.75 130.6H1371.75V135.6H1376.75V130.6ZM1447.15 121.4L1443.69 117.79L1443.65 117.827L1443.61 117.864L1447.15 121.4ZM1447.15 70.2L1443.61 73.7355L1443.65 73.7731L1443.69 73.8099L1447.15 70.2ZM1376.75 61V56H1371.75V61H1376.75ZM1455.93 282.587L1397.53 176.587L1388.77 181.413L1447.17 287.413L1455.93 282.587ZM1393.15 174H1376.75V184H1393.15V174ZM1371.75 179V285H1381.75V179H1371.75ZM1376.75 280H1308.35V290H1376.75V280ZM1313.35 285V4.19999H1303.35V285H1313.35ZM1308.35 9.19999H1423.15V-0.800009H1308.35V9.19999ZM1423.15 9.19999C1444.71 9.19999 1462.71 12.9692 1477.31 20.2721L1481.78 11.3278C1465.46 3.16407 1445.85 -0.800009 1423.15 -0.800009V9.19999ZM1477.34 20.2872C1492.29 27.6338 1503.22 37.6458 1510.4 50.2715L1519.09 45.3285C1510.81 30.7541 1498.27 19.4329 1481.75 11.3127L1477.34 20.2872ZM1510.42 50.3086C1517.68 62.8245 1521.35 76.8815 1521.35 92.6H1531.35C1531.35 75.2518 1527.28 59.4422 1519.07 45.2914L1510.42 50.3086ZM1521.35 92.6C1521.35 110.243 1516.33 125.873 1506.3 139.659L1514.39 145.541C1525.7 129.993 1531.35 112.29 1531.35 92.6H1521.35ZM1506.27 139.708C1496.63 153.298 1482.19 163.132 1462.52 169.009L1465.38 178.591C1486.77 172.201 1503.26 161.235 1514.43 145.492L1506.27 139.708ZM1459.63 176.317L1524.43 287.517L1533.07 282.483L1468.27 171.283L1459.63 176.317ZM1528.75 280H1451.55V290H1528.75V280ZM1376.75 135.6H1419.15V125.6H1376.75V135.6ZM1419.15 135.6C1432.41 135.6 1443.26 132.355 1450.68 124.936L1443.61 117.864C1438.76 122.711 1430.95 125.6 1419.15 125.6V135.6ZM1450.61 125.01C1458.23 117.699 1461.75 107.582 1461.75 95.4H1451.75C1451.75 105.618 1448.86 112.834 1443.69 117.79L1450.61 125.01ZM1461.75 95.4C1461.75 83.6687 1458.19 73.8547 1450.61 66.5901L1443.69 73.8099C1448.91 78.812 1451.75 85.798 1451.75 95.4H1461.75ZM1450.68 66.6645C1443.26 59.2448 1432.41 56 1419.15 56V66C1430.95 66 1438.76 68.8886 1443.61 73.7355L1450.68 66.6645ZM1419.15 56H1376.75V66H1419.15V56ZM1371.75 61V130.6H1381.75V61H1371.75ZM1637.68 59V54H1632.68V59H1637.68ZM1637.68 115.8H1632.68V120.8H1637.68V115.8ZM1729.28 115.8H1734.28V110.8H1729.28V115.8ZM1729.28 168.6V173.6H1734.28V168.6H1729.28ZM1637.68 168.6V163.6H1632.68V168.6H1637.68ZM1637.68 230.2H1632.68V235.2H1637.68V230.2ZM1741.28 230.2H1746.28V225.2H1741.28V230.2ZM1741.28 285V290H1746.28V285H1741.28ZM1569.28 285H1564.28V290H1569.28V285ZM1569.28 4.19999V-0.800009H1564.28V4.19999H1569.28ZM1741.28 4.19999H1746.28V-0.800009H1741.28V4.19999ZM1741.28 59V64H1746.28V59H1741.28ZM1632.68 59V115.8H1642.68V59H1632.68ZM1637.68 120.8H1729.28V110.8H1637.68V120.8ZM1724.28 115.8V168.6H1734.28V115.8H1724.28ZM1729.28 163.6H1637.68V173.6H1729.28V163.6ZM1632.68 168.6V230.2H1642.68V168.6H1632.68ZM1637.68 235.2H1741.28V225.2H1637.68V235.2ZM1736.28 230.2V285H1746.28V230.2H1736.28ZM1741.28 280H1569.28V290H1741.28V280ZM1574.28 285V4.19999H1564.28V285H1574.28ZM1569.28 9.19999H1741.28V-0.800009H1569.28V9.19999ZM1736.28 4.19999V59H1746.28V4.19999H1736.28ZM1741.28 54H1637.68V64H1741.28V54ZM1792.09 70.2L1796.46 72.6282L1796.47 72.6169L1796.47 72.6055L1792.09 70.2ZM1842.09 19.4L1844.54 23.7579L1844.55 23.7528L1844.56 23.7478L1842.09 19.4ZM2000.89 27.4L2003.87 23.3838L2003.87 23.3838L2000.89 27.4ZM2048.49 99.4V104.4H2054.98L2053.33 98.1275L2048.49 99.4ZM1973.29 99.4L1968.78 101.554L1970.14 104.4H1973.29V99.4ZM1949.29 72.6L1946.7 76.8775L1946.73 76.8923L1946.75 76.9068L1949.29 72.6ZM1863.29 85.4L1867.02 88.726L1867.02 88.726L1863.29 85.4ZM1863.29 203L1859.56 206.326L1863.29 203ZM1949.29 215.8L1946.75 211.493L1946.73 211.508L1946.7 211.522L1949.29 215.8ZM1973.29 189V184H1970.14L1968.78 186.846L1973.29 189ZM2048.49 189L2053.33 190.272L2054.98 184H2048.49V189ZM2000.89 261L2003.84 265.038L2003.85 265.027L2003.87 265.016L2000.89 261ZM1842.09 269L1839.6 273.335L1839.63 273.353L1839.66 273.371L1842.09 269ZM1792.09 218.2L1796.46 215.772L1796.46 215.772L1792.09 218.2ZM1779.09 144.2C1779.09 117.211 1784.92 93.3981 1796.46 72.6282L1787.72 67.7718C1775.26 90.2019 1769.09 115.723 1769.09 144.2H1779.09ZM1796.47 72.6055C1808.03 51.5408 1824.04 35.2911 1844.54 23.7579L1839.64 15.0421C1817.48 27.5089 1800.15 45.1259 1787.71 67.7945L1796.47 72.6055ZM1844.56 23.7478C1865.34 11.9484 1888.87 5.99998 1915.29 5.99998V-4.00002C1887.31 -4.00002 1862.04 2.31819 1839.62 15.0522L1844.56 23.7478ZM1915.29 5.99998C1947.7 5.99998 1975.15 14.5357 1997.91 31.4162L2003.87 23.3838C1979.17 5.06424 1949.55 -4.00002 1915.29 -4.00002V5.99998ZM1997.91 31.4162C2020.67 48.2942 2035.92 71.2961 2043.66 100.672L2053.33 98.1275C2045.06 66.7039 2028.58 41.7058 2003.87 23.3838L1997.91 31.4162ZM2048.49 94.4H1973.29V104.4H2048.49V94.4ZM1977.8 97.2463C1971.81 84.6873 1963.15 74.9712 1951.83 68.2932L1946.75 76.9068C1956.23 82.4954 1963.57 90.646 1968.78 101.554L1977.8 97.2463ZM1951.88 68.3225C1940.89 61.6687 1928.37 58.4 1914.49 58.4V68.4C1926.74 68.4 1937.43 71.2646 1946.7 76.8775L1951.88 68.3225ZM1914.49 58.4C1892.11 58.4 1873.65 66.2584 1859.56 82.074L1867.02 88.726C1879.07 75.2083 1894.73 68.4 1914.49 68.4V58.4ZM1859.56 82.074C1845.49 97.8684 1838.69 118.757 1838.69 144.2H1848.69C1848.69 120.576 1854.96 102.265 1867.02 88.726L1859.56 82.074ZM1838.69 144.2C1838.69 169.643 1845.49 190.532 1859.56 206.326L1867.02 199.674C1854.96 186.135 1848.69 167.824 1848.69 144.2H1838.69ZM1859.56 206.326C1873.65 222.142 1892.11 230 1914.49 230V220C1894.73 220 1879.07 213.192 1867.02 199.674L1859.56 206.326ZM1914.49 230C1928.37 230 1940.89 226.731 1951.88 220.077L1946.7 211.522C1937.43 217.135 1926.74 220 1914.49 220V230ZM1951.83 220.107C1963.15 213.429 1971.81 203.713 1977.8 191.154L1968.78 186.846C1963.57 197.754 1956.23 205.905 1946.75 211.493L1951.83 220.107ZM1973.29 194H2048.49V184H1973.29V194ZM2043.66 187.728C2035.92 217.104 2020.67 240.106 1997.91 256.984L2003.87 265.016C2028.58 246.694 2045.06 221.696 2053.33 190.272L2043.66 187.728ZM1997.94 256.962C1975.18 273.588 1947.71 282 1915.29 282V292C1949.54 292 1979.14 283.079 2003.84 265.038L1997.94 256.962ZM1915.29 282C1888.85 282 1865.3 276.176 1844.52 264.629L1839.66 273.371C1862.08 285.824 1887.33 292 1915.29 292V282ZM1844.58 264.665C1824.04 252.854 1808.02 236.581 1796.46 215.772L1787.72 220.628C1800.16 243.019 1817.47 260.613 1839.6 273.335L1844.58 264.665ZM1796.46 215.772C1784.92 195.002 1779.09 171.189 1779.09 144.2H1769.09C1769.09 172.677 1775.26 198.198 1787.72 220.628L1796.46 215.772ZM2292.38 4.19999H2297.38V-0.800009H2292.38V4.19999ZM2292.38 59V64H2297.38V59H2292.38ZM2217.98 59V54H2212.98V59H2217.98ZM2217.98 285V290H2222.98V285H2217.98ZM2149.58 285H2144.58V290H2149.58V285ZM2149.58 59H2154.58V54H2149.58V59ZM2075.18 59H2070.18V64H2075.18V59ZM2075.18 4.19999V-0.800009H2070.18V4.19999H2075.18ZM2287.38 4.19999V59H2297.38V4.19999H2287.38ZM2292.38 54H2217.98V64H2292.38V54ZM2212.98 59V285H2222.98V59H2212.98ZM2217.98 280H2149.58V290H2217.98V280ZM2154.58 285V59H2144.58V285H2154.58ZM2149.58 54H2075.18V64H2149.58V54ZM2080.18 59V4.19999H2070.18V59H2080.18ZM2075.18 9.19999H2292.38V-0.800009H2075.18V9.19999ZM2386.71 269.4L2384.26 273.761L2384.27 273.767L2384.28 273.773L2386.71 269.4ZM2334.31 218.2L2329.98 220.703L2330 220.734L2330.01 220.765L2334.31 218.2ZM2334.31 69.8L2330.01 67.2352L2330 67.2546L2329.99 67.2741L2334.31 69.8ZM2386.71 18.6L2384.28 14.2267L2384.27 14.233L2384.26 14.2393L2386.71 18.6ZM2531.91 18.6L2529.46 22.9607L2529.47 22.967L2529.48 22.9733L2531.91 18.6ZM2583.91 69.8L2579.57 72.2864L2579.58 72.3062L2579.59 72.3259L2583.91 69.8ZM2583.91 218.2L2588.22 220.726L2588.23 220.715L2588.23 220.703L2583.91 218.2ZM2531.91 269.4L2534.35 273.761L2534.35 273.761L2531.91 269.4ZM2513.11 203L2509.41 199.633L2509.39 199.652L2509.38 199.67L2513.11 203ZM2513.11 84.6L2509.38 87.9301L2509.41 87.9652L2509.44 87.9997L2513.11 84.6ZM2405.11 84.2L2401.44 80.8003L2401.42 80.8184L2401.41 80.8366L2405.11 84.2ZM2405.11 203.4L2401.38 206.73L2401.41 206.765L2401.44 206.8L2405.11 203.4ZM2459.51 282.8C2433.92 282.8 2410.49 276.864 2389.13 265.027L2384.28 273.773C2407.19 286.469 2432.3 292.8 2459.51 292.8V282.8ZM2389.15 265.039C2368.06 253.207 2351.22 236.765 2338.6 215.635L2330.01 220.765C2343.52 243.368 2361.62 261.06 2384.26 273.761L2389.15 265.039ZM2338.63 215.697C2326.31 194.381 2320.11 170.455 2320.11 143.8H2310.11C2310.11 172.078 2316.71 197.753 2329.98 220.703L2338.63 215.697ZM2320.11 143.8C2320.11 117.144 2326.31 93.3625 2338.62 72.3259L2329.99 67.2741C2316.71 89.9708 2310.11 115.523 2310.11 143.8H2320.11ZM2338.6 72.3648C2351.22 51.2351 2368.06 34.7931 2389.15 22.9607L2384.26 14.2393C2361.62 26.9403 2343.52 44.6316 2330.01 67.2352L2338.6 72.3648ZM2389.13 22.9733C2410.49 11.1357 2433.92 5.2 2459.51 5.2V-4.8C2432.3 -4.8 2407.19 1.53092 2384.28 14.2267L2389.13 22.9733ZM2459.51 5.2C2485.1 5.2 2508.38 11.1356 2529.46 22.9607L2534.35 14.2393C2511.7 1.53103 2486.72 -4.8 2459.51 -4.8V5.2ZM2529.48 22.9733C2550.82 34.7994 2567.49 51.215 2579.57 72.2864L2588.24 67.3136C2575.26 44.6517 2557.26 26.934 2534.33 14.2267L2529.48 22.9733ZM2579.59 72.3259C2591.91 93.3625 2598.11 117.144 2598.11 143.8H2608.11C2608.11 115.523 2601.51 89.9708 2588.22 67.2741L2579.59 72.3259ZM2598.11 143.8C2598.11 170.455 2591.91 194.381 2579.58 215.697L2588.23 220.703C2601.51 197.753 2608.11 172.078 2608.11 143.8H2598.11ZM2579.59 215.674C2567.24 236.783 2550.54 253.212 2529.46 265.039L2534.35 273.761C2557 261.055 2574.98 243.351 2588.22 220.726L2579.59 215.674ZM2529.46 265.039C2508.38 276.864 2485.1 282.8 2459.51 282.8V292.8C2486.72 292.8 2511.7 286.469 2534.35 273.761L2529.46 265.039ZM2459.51 230.4C2483.14 230.4 2502.44 222.459 2516.84 206.33L2509.38 199.67C2497.11 213.408 2480.67 220.4 2459.51 220.4V230.4ZM2516.8 206.367C2531.41 190.324 2538.51 169.298 2538.51 143.8H2528.51C2528.51 167.369 2522 185.809 2509.41 199.633L2516.8 206.367ZM2538.51 143.8C2538.51 118.056 2531.42 97.0001 2516.77 81.2003L2509.44 87.9997C2521.99 101.533 2528.51 119.944 2528.51 143.8H2538.51ZM2516.84 81.2699C2502.44 65.1411 2483.14 57.2 2459.51 57.2V67.2C2480.67 67.2 2497.11 74.1922 2509.38 87.9301L2516.84 81.2699ZM2459.51 57.2C2435.65 57.2 2416.12 64.9724 2401.44 80.8003L2408.77 87.5997C2421.3 74.0942 2438.03 67.2 2459.51 67.2V57.2ZM2401.41 80.8366C2387.03 96.6484 2380.11 117.831 2380.11 143.8H2390.11C2390.11 119.636 2396.51 101.085 2408.81 87.5634L2401.41 80.8366ZM2380.11 143.8C2380.11 169.523 2387.04 190.676 2401.38 206.73L2408.84 200.07C2396.5 186.258 2390.11 167.677 2390.11 143.8H2380.11ZM2401.44 206.8C2416.12 222.628 2435.65 230.4 2459.51 230.4V220.4C2438.03 220.4 2421.3 213.506 2408.77 200L2401.44 206.8ZM2784.36 285L2779.98 287.413L2781.41 290H2784.36V285ZM2725.96 179L2730.34 176.587L2728.91 174H2725.96V179ZM2709.56 179V174H2704.56V179H2709.56ZM2709.56 285V290H2714.56V285H2709.56ZM2641.16 285H2636.16V290H2641.16V285ZM2641.16 4.19999V-0.800009H2636.16V4.19999H2641.16ZM2812.36 15.8L2810.12 20.2721L2810.14 20.2797L2810.15 20.2872L2812.36 15.8ZM2847.56 47.8L2843.21 50.2715L2843.22 50.2901L2843.23 50.3086L2847.56 47.8ZM2843.16 142.6L2839.12 139.659L2839.1 139.683L2839.08 139.708L2843.16 142.6ZM2796.76 173.8L2795.33 169.009L2789.24 170.828L2792.44 176.317L2796.76 173.8ZM2861.56 285V290H2870.26L2865.88 282.483L2861.56 285ZM2709.56 130.6H2704.56V135.6H2709.56V130.6ZM2779.96 121.4L2776.5 117.79L2776.46 117.827L2776.42 117.864L2779.96 121.4ZM2779.96 70.2L2776.42 73.7355L2776.46 73.7731L2776.5 73.8099L2779.96 70.2ZM2709.56 61V56H2704.56V61H2709.56ZM2788.74 282.587L2730.34 176.587L2721.58 181.413L2779.98 287.413L2788.74 282.587ZM2725.96 174H2709.56V184H2725.96V174ZM2704.56 179V285H2714.56V179H2704.56ZM2709.56 280H2641.16V290H2709.56V280ZM2646.16 285V4.19999H2636.16V285H2646.16ZM2641.16 9.19999H2755.96V-0.800009H2641.16V9.19999ZM2755.96 9.19999C2777.53 9.19999 2795.52 12.9692 2810.12 20.2721L2814.6 11.3278C2798.27 3.16407 2778.66 -0.800009 2755.96 -0.800009V9.19999ZM2810.15 20.2872C2825.1 27.6338 2836.03 37.6458 2843.21 50.2715L2851.91 45.3285C2843.62 30.7541 2831.09 19.4329 2814.56 11.3127L2810.15 20.2872ZM2843.23 50.3086C2850.49 62.8245 2854.16 76.8815 2854.16 92.6H2864.16C2864.16 75.2518 2860.09 59.4422 2851.88 45.2914L2843.23 50.3086ZM2854.16 92.6C2854.16 110.243 2849.14 125.873 2839.12 139.659L2847.2 145.541C2858.51 129.993 2864.16 112.29 2864.16 92.6H2854.16ZM2839.08 139.708C2829.44 153.298 2815 163.132 2795.33 169.009L2798.19 178.591C2819.58 172.201 2836.07 161.235 2847.24 145.492L2839.08 139.708ZM2792.44 176.317L2857.24 287.517L2865.88 282.483L2801.08 171.283L2792.44 176.317ZM2861.56 280H2784.36V290H2861.56V280ZM2709.56 135.6H2751.96V125.6H2709.56V135.6ZM2751.96 135.6C2765.23 135.6 2776.08 132.355 2783.49 124.936L2776.42 117.864C2771.58 122.711 2763.76 125.6 2751.96 125.6V135.6ZM2783.42 125.01C2791.05 117.699 2794.56 107.582 2794.56 95.4H2784.56C2784.56 105.618 2781.67 112.834 2776.5 117.79L2783.42 125.01ZM2794.56 95.4C2794.56 83.6687 2791 73.8547 2783.42 66.5901L2776.5 73.8099C2781.72 78.812 2784.56 85.798 2784.56 95.4H2794.56ZM2783.49 66.6645C2776.08 59.2448 2765.23 56 2751.96 56V66C2763.76 66 2771.58 68.8886 2776.42 73.7355L2783.49 66.6645ZM2751.96 56H2709.56V66H2751.96V56ZM2704.56 61V130.6H2714.56V61H2704.56Z" fill="#B11EFE" fill-opacity="0.84"/>
</g>
<defs>
<filter id="filter0_d_1319_671" x="0.399902" y="0.200195" width="2865.16" height="295.6" filterUnits="userSpaceOnUse" color-interpolation-filters="sRGB">
<feFlood flood-opacity="0" result="BackgroundImageFix"/>
<feColorMatrix in="SourceAlpha" type="matrix" values="0 0 0 0 0 0 0 0 0 0 0 0 0 0 0 0 0 0 127 0" result="hardAlpha"/>
<feOffset dy="4"/>
<feGaussianBlur stdDeviation="2"/>
<feComposite in2="hardAlpha" operator="out"/>
<feColorMatrix type="matrix" values="0 0 0 0 0 0 0 0 0 0 0 0 0 0 0 0 0 0 0.25 0"/>
<feBlend mode="normal" in2="BackgroundImageFix" result="effect1_dropShadow_1319_671"/>
<feBlend mode="normal" in="SourceGraphic" in2="effect1_dropShadow_1319_671" result="shape"/>
</filter>
</defs>
</svg>
