<svg width="1853" height="296" viewBox="0 0 1853 296" fill="none" xmlns="http://www.w3.org/2000/svg">
<g opacity="0.2" filter="url(#filter0_d_690_588)">
<path d="M187.6 4.19999V59H73.2V118.2H158.8V171.4H73.2V285H4.8V4.19999H187.6ZM356.35 287.8C329.95 287.8 305.683 281.667 283.55 269.4C261.683 257.133 244.217 240.067 231.15 218.2C218.35 196.067 211.95 171.267 211.95 143.8C211.95 116.333 218.35 91.6667 231.15 69.8C244.217 47.9333 261.683 30.8667 283.55 18.6C305.683 6.33333 329.95 0.199995 356.35 0.199995C382.75 0.199995 406.883 6.33333 428.75 18.6C450.883 30.8667 468.217 47.9333 480.75 69.8C493.55 91.6667 499.95 116.333 499.95 143.8C499.95 171.267 493.55 196.067 480.75 218.2C467.95 240.067 450.617 257.133 428.75 269.4C406.883 281.667 382.75 287.8 356.35 287.8ZM356.35 225.4C378.75 225.4 396.617 217.933 409.95 203C423.55 188.067 430.35 168.333 430.35 143.8C430.35 119 423.55 99.2667 409.95 84.6C396.617 69.6666 378.75 62.2 356.35 62.2C333.683 62.2 315.55 69.5333 301.95 84.2C288.617 98.8667 281.95 118.733 281.95 143.8C281.95 168.6 288.617 188.467 301.95 203.4C315.55 218.067 333.683 225.4 356.35 225.4ZM605.203 4.19999V172.2C605.203 189 609.336 201.933 617.603 211C625.87 220.067 638.003 224.6 654.003 224.6C670.003 224.6 682.27 220.067 690.803 211C699.336 201.933 703.603 189 703.603 172.2V4.19999H772.003V171.8C772.003 196.867 766.67 218.067 756.003 235.4C745.336 252.733 730.936 265.8 712.803 274.6C694.936 283.4 674.936 287.8 652.803 287.8C630.67 287.8 610.803 283.533 593.203 275C575.87 266.2 562.136 253.133 552.003 235.8C541.87 218.2 536.803 196.867 536.803 171.8V4.19999H605.203ZM1071.23 285H1002.83L888.434 111.8V285H820.034V4.19999H888.434L1002.83 178.2V4.19999H1071.23V285ZM1226.02 4.19999C1255.62 4.19999 1281.48 10.0667 1303.62 21.8C1325.75 33.5333 1342.82 50.0667 1354.82 71.4C1367.08 92.4667 1373.22 116.867 1373.22 144.6C1373.22 172.067 1367.08 196.467 1354.82 217.8C1342.82 239.133 1325.62 255.667 1303.22 267.4C1281.08 279.133 1255.35 285 1226.02 285H1120.82V4.19999H1226.02ZM1221.62 225.8C1247.48 225.8 1267.62 218.733 1282.02 204.6C1296.42 190.467 1303.62 170.467 1303.62 144.6C1303.62 118.733 1296.42 98.6 1282.02 84.2C1267.62 69.8 1247.48 62.6 1221.62 62.6H1189.22V225.8H1221.62ZM1479.84 59V115.8H1571.44V168.6H1479.84V230.2H1583.44V285H1411.44V4.19999H1583.44V59H1479.84ZM1771.05 285L1712.65 179H1696.25V285H1627.85V4.19999H1742.65C1764.78 4.19999 1783.58 8.06666 1799.05 15.8C1814.78 23.5333 1826.51 34.2 1834.25 47.8C1841.98 61.1333 1845.85 76.0667 1845.85 92.6C1845.85 111.267 1840.51 127.933 1829.85 142.6C1819.45 157.267 1803.98 167.667 1783.45 173.8L1848.25 285H1771.05ZM1696.25 130.6H1738.65C1751.18 130.6 1760.51 127.533 1766.65 121.4C1773.05 115.267 1776.25 106.6 1776.25 95.4C1776.25 84.7333 1773.05 76.3333 1766.65 70.2C1760.51 64.0667 1751.18 61 1738.65 61H1696.25V130.6Z" fill="white" shape-rendering="crispEdges"/>
<path d="M187.6 4.19999H192.6V-0.800009H187.6V4.19999ZM187.6 59V64H192.6V59H187.6ZM73.2 59V54H68.2V59H73.2ZM73.2 118.2H68.2V123.2H73.2V118.2ZM158.8 118.2H163.8V113.2H158.8V118.2ZM158.8 171.4V176.4H163.8V171.4H158.8ZM73.2 171.4V166.4H68.2V171.4H73.2ZM73.2 285V290H78.2V285H73.2ZM4.8 285H-0.199999V290H4.8V285ZM4.8 4.19999V-0.800009H-0.199999V4.19999H4.8ZM182.6 4.19999V59H192.6V4.19999H182.6ZM187.6 54H73.2V64H187.6V54ZM68.2 59V118.2H78.2V59H68.2ZM73.2 123.2H158.8V113.2H73.2V123.2ZM153.8 118.2V171.4H163.8V118.2H153.8ZM158.8 166.4H73.2V176.4H158.8V166.4ZM68.2 171.4V285H78.2V171.4H68.2ZM73.2 280H4.8V290H73.2V280ZM9.8 285V4.19999H-0.199999V285H9.8ZM4.8 9.19999H187.6V-0.800009H4.8V9.19999ZM283.55 269.4L281.104 273.761L281.115 273.767L281.126 273.773L283.55 269.4ZM231.15 218.2L226.822 220.703L226.84 220.734L226.858 220.765L231.15 218.2ZM231.15 69.8L226.858 67.2352L226.846 67.2546L226.835 67.2741L231.15 69.8ZM283.55 18.6L281.126 14.2267L281.115 14.233L281.104 14.2393L283.55 18.6ZM428.75 18.6L426.304 22.9607L426.315 22.967L426.326 22.9733L428.75 18.6ZM480.75 69.8L476.412 72.2864L476.423 72.3062L476.435 72.3259L480.75 69.8ZM480.75 218.2L485.065 220.726L485.072 220.715L485.078 220.703L480.75 218.2ZM428.75 269.4L431.196 273.761L431.196 273.761L428.75 269.4ZM409.95 203L406.253 199.633L406.237 199.652L406.22 199.67L409.95 203ZM409.95 84.6L406.22 87.9301L406.252 87.9652L406.284 87.9997L409.95 84.6ZM301.95 84.2L298.284 80.8003L298.267 80.8184L298.25 80.8366L301.95 84.2ZM301.95 203.4L298.22 206.73L298.252 206.765L298.284 206.8L301.95 203.4ZM356.35 282.8C330.76 282.8 307.333 276.864 285.974 265.027L281.126 273.773C304.034 286.469 329.14 292.8 356.35 292.8V282.8ZM285.996 265.039C264.904 253.207 248.068 236.765 235.442 215.635L226.858 220.765C240.365 243.368 258.463 261.06 281.104 273.761L285.996 265.039ZM235.478 215.697C223.151 194.381 216.95 170.455 216.95 143.8H206.95C206.95 172.078 213.549 197.753 226.822 220.703L235.478 215.697ZM216.95 143.8C216.95 117.144 223.151 93.3625 235.465 72.3259L226.835 67.2741C213.549 89.9708 206.95 115.523 206.95 143.8H216.95ZM235.442 72.3648C248.068 51.2351 264.904 34.7931 285.996 22.9607L281.104 14.2393C258.463 26.9403 240.365 44.6316 226.858 67.2352L235.442 72.3648ZM285.974 22.9733C307.333 11.1357 330.76 5.2 356.35 5.2V-4.8C329.14 -4.8 304.034 1.53092 281.126 14.2267L285.974 22.9733ZM356.35 5.2C381.94 5.2 405.224 11.1356 426.304 22.9607L431.196 14.2393C408.542 1.53103 383.56 -4.8 356.35 -4.8V5.2ZM426.326 22.9733C447.665 34.7994 464.335 51.215 476.412 72.2864L485.088 67.3136C472.099 44.6517 454.102 26.934 431.174 14.2267L426.326 22.9733ZM476.435 72.3259C488.749 93.3625 494.95 117.144 494.95 143.8H504.95C504.95 115.523 498.351 89.9708 485.065 67.2741L476.435 72.3259ZM494.95 143.8C494.95 170.455 488.749 194.381 476.422 215.697L485.078 220.703C498.351 197.753 504.95 172.078 504.95 143.8H494.95ZM476.435 215.674C464.079 236.783 447.387 253.212 426.304 265.039L431.196 273.761C453.846 261.055 471.821 243.351 485.065 220.726L476.435 215.674ZM426.304 265.039C405.224 276.864 381.94 282.8 356.35 282.8V292.8C383.56 292.8 408.542 286.469 431.196 273.761L426.304 265.039ZM356.35 230.4C379.986 230.4 399.279 222.459 413.68 206.33L406.22 199.67C393.954 213.408 377.514 220.4 356.35 220.4V230.4ZM413.647 206.367C428.257 190.324 435.35 169.298 435.35 143.8H425.35C425.35 167.369 418.843 185.809 406.253 199.633L413.647 206.367ZM435.35 143.8C435.35 118.056 428.267 97.0001 413.616 81.2003L406.284 87.9997C418.833 101.533 425.35 119.944 425.35 143.8H435.35ZM413.68 81.2699C399.279 65.1411 379.986 57.2 356.35 57.2V67.2C377.514 67.2 393.954 74.1922 406.22 87.9301L413.68 81.2699ZM356.35 57.2C332.496 57.2 312.96 64.9724 298.284 80.8003L305.616 87.5997C318.14 74.0942 334.87 67.2 356.35 67.2V57.2ZM298.25 80.8366C283.876 96.6484 276.95 117.831 276.95 143.8H286.95C286.95 119.636 293.357 101.085 305.65 87.5634L298.25 80.8366ZM276.95 143.8C276.95 169.523 283.886 190.676 298.22 206.73L305.68 200.07C293.347 186.258 286.95 167.677 286.95 143.8H276.95ZM298.284 206.8C312.96 222.628 332.496 230.4 356.35 230.4V220.4C334.87 220.4 318.14 213.506 305.616 200L298.284 206.8ZM605.203 4.19999H610.203V-0.800009H605.203V4.19999ZM617.603 211L613.908 214.369L613.908 214.369L617.603 211ZM690.803 211L694.444 214.427L694.444 214.427L690.803 211ZM703.603 4.19999V-0.800009H698.603V4.19999H703.603ZM772.003 4.19999H777.003V-0.800009H772.003V4.19999ZM756.003 235.4L760.261 238.02L760.261 238.02L756.003 235.4ZM712.803 274.6L710.62 270.102L710.607 270.108L710.594 270.115L712.803 274.6ZM593.203 275L590.94 279.458L590.981 279.479L591.022 279.499L593.203 275ZM552.003 235.8L547.67 238.295L547.678 238.309L547.687 238.323L552.003 235.8ZM536.803 4.19999V-0.800009H531.803V4.19999H536.803ZM600.203 4.19999V172.2H610.203V4.19999H600.203ZM600.203 172.2C600.203 189.782 604.534 204.087 613.908 214.369L621.298 207.631C614.139 199.779 610.203 188.218 610.203 172.2H600.203ZM613.908 214.369C623.389 224.767 637.049 229.6 654.003 229.6V219.6C638.958 219.6 628.35 215.366 621.298 207.631L613.908 214.369ZM654.003 229.6C670.967 229.6 684.715 224.764 694.444 214.427L687.162 207.573C679.825 215.369 669.04 219.6 654.003 219.6V229.6ZM694.444 214.427C704.118 204.148 708.603 189.82 708.603 172.2H698.603C698.603 188.18 694.555 199.719 687.162 207.573L694.444 214.427ZM708.603 172.2V4.19999H698.603V172.2H708.603ZM703.603 9.19999H772.003V-0.800009H703.603V9.19999ZM767.003 4.19999V171.8H777.003V4.19999H767.003ZM767.003 171.8C767.003 196.155 761.825 216.399 751.745 232.78L760.261 238.02C771.514 219.735 777.003 197.578 777.003 171.8H767.003ZM751.745 232.78C741.572 249.311 727.888 261.722 710.62 270.102L714.986 279.098C733.985 269.878 749.101 256.156 760.261 238.02L751.745 232.78ZM710.594 270.115C693.488 278.54 674.257 282.8 652.803 282.8V292.8C675.616 292.8 696.385 288.26 715.012 279.085L710.594 270.115ZM652.803 282.8C631.325 282.8 612.22 278.664 595.384 270.501L591.022 279.499C609.386 288.403 630.014 292.8 652.803 292.8V282.8ZM595.467 270.542C579.018 262.191 565.985 249.81 556.32 233.277L547.687 238.323C558.288 256.457 572.721 270.209 590.94 279.458L595.467 270.542ZM556.336 233.305C546.731 216.623 541.803 196.194 541.803 171.8H531.803C531.803 197.539 537.008 219.777 547.67 238.295L556.336 233.305ZM541.803 171.8V4.19999H531.803V171.8H541.803ZM536.803 9.19999H605.203V-0.800009H536.803V9.19999ZM1071.23 285V290H1076.23V285H1071.23ZM1002.83 285L998.662 287.756L1000.14 290H1002.83V285ZM888.434 111.8L892.606 109.044L883.434 95.1579V111.8H888.434ZM888.434 285V290H893.434V285H888.434ZM820.034 285H815.034V290H820.034V285ZM820.034 4.19999V-0.800009H815.034V4.19999H820.034ZM888.434 4.19999L892.612 1.45314L891.131 -0.800009H888.434V4.19999ZM1002.83 178.2L998.656 180.947L1007.83 194.906V178.2H1002.83ZM1002.83 4.19999V-0.800009H997.834V4.19999H1002.83ZM1071.23 4.19999H1076.23V-0.800009H1071.23V4.19999ZM1071.23 280H1002.83V290H1071.23V280ZM1007.01 282.244L892.606 109.044L884.262 114.556L998.662 287.756L1007.01 282.244ZM883.434 111.8V285H893.434V111.8H883.434ZM888.434 280H820.034V290H888.434V280ZM825.034 285V4.19999H815.034V285H825.034ZM820.034 9.19999H888.434V-0.800009H820.034V9.19999ZM884.256 6.94684L998.656 180.947L1007.01 175.453L892.612 1.45314L884.256 6.94684ZM1007.83 178.2V4.19999H997.834V178.2H1007.83ZM1002.83 9.19999H1071.23V-0.800009H1002.83V9.19999ZM1066.23 4.19999V285H1076.23V4.19999H1066.23ZM1303.62 21.8L1305.96 17.3823L1305.96 17.3823L1303.62 21.8ZM1354.82 71.4L1350.46 73.8513L1350.48 73.8838L1350.49 73.9159L1354.82 71.4ZM1354.82 217.8L1350.48 215.308L1350.47 215.328L1350.46 215.349L1354.82 217.8ZM1303.22 267.4L1300.9 262.971L1300.88 262.977L1300.87 262.982L1303.22 267.4ZM1120.82 285H1115.82V290H1120.82V285ZM1120.82 4.19999V-0.800009H1115.82V4.19999H1120.82ZM1189.22 62.6V57.6H1184.22V62.6H1189.22ZM1189.22 225.8H1184.22V230.8H1189.22V225.8ZM1226.02 9.19999C1254.95 9.19999 1279.98 14.9305 1301.27 26.2176L1305.96 17.3823C1282.98 5.20278 1256.28 -0.800009 1226.02 -0.800009V9.19999ZM1301.27 26.2176C1322.58 37.5133 1338.94 53.3735 1350.46 73.8513L1359.17 68.9487C1346.69 46.7598 1328.92 29.5533 1305.96 17.3823L1301.27 26.2176ZM1350.49 73.9159C1362.26 94.1184 1368.22 117.627 1368.22 144.6H1378.22C1378.22 116.107 1371.91 90.8149 1359.14 68.884L1350.49 73.9159ZM1368.22 144.6C1368.22 171.296 1362.26 194.818 1350.48 215.308L1359.15 220.292C1371.9 198.115 1378.22 172.837 1378.22 144.6H1368.22ZM1350.46 215.349C1338.95 235.811 1322.47 251.67 1300.9 262.971L1305.54 271.829C1328.76 259.663 1346.68 242.456 1359.17 220.251L1350.46 215.349ZM1300.87 262.982C1279.58 274.273 1254.67 280 1226.02 280V290C1256.03 290 1282.59 283.994 1305.56 271.818L1300.87 262.982ZM1226.02 280H1120.82V290H1226.02V280ZM1125.82 285V4.19999H1115.82V285H1125.82ZM1120.82 9.19999H1226.02V-0.800009H1120.82V9.19999ZM1221.62 230.8C1248.41 230.8 1269.94 223.458 1285.52 208.168L1278.51 201.032C1265.29 214.009 1246.56 220.8 1221.62 220.8V230.8ZM1285.52 208.168C1301.13 192.849 1308.62 171.411 1308.62 144.6H1298.62C1298.62 169.522 1291.7 188.085 1278.51 201.032L1285.52 208.168ZM1308.62 144.6C1308.62 117.784 1301.13 96.2384 1285.55 80.6645L1278.48 87.7355C1291.71 100.962 1298.62 119.683 1298.62 144.6H1308.62ZM1285.55 80.6645C1269.98 65.0905 1248.43 57.6 1221.62 57.6V67.6C1246.53 67.6 1265.25 74.5095 1278.48 87.7355L1285.55 80.6645ZM1221.62 57.6H1189.22V67.6H1221.62V57.6ZM1184.22 62.6V225.8H1194.22V62.6H1184.22ZM1189.22 230.8H1221.62V220.8H1189.22V230.8ZM1479.84 59V54H1474.84V59H1479.84ZM1479.84 115.8H1474.84V120.8H1479.84V115.8ZM1571.44 115.8H1576.44V110.8H1571.44V115.8ZM1571.44 168.6V173.6H1576.44V168.6H1571.44ZM1479.84 168.6V163.6H1474.84V168.6H1479.84ZM1479.84 230.2H1474.84V235.2H1479.84V230.2ZM1583.44 230.2H1588.44V225.2H1583.44V230.2ZM1583.44 285V290H1588.44V285H1583.44ZM1411.44 285H1406.44V290H1411.44V285ZM1411.44 4.19999V-0.800009H1406.44V4.19999H1411.44ZM1583.44 4.19999H1588.44V-0.800009H1583.44V4.19999ZM1583.44 59V64H1588.44V59H1583.44ZM1474.84 59V115.8H1484.84V59H1474.84ZM1479.84 120.8H1571.44V110.8H1479.84V120.8ZM1566.44 115.8V168.6H1576.44V115.8H1566.44ZM1571.44 163.6H1479.84V173.6H1571.44V163.6ZM1474.84 168.6V230.2H1484.84V168.6H1474.84ZM1479.84 235.2H1583.44V225.2H1479.84V235.2ZM1578.44 230.2V285H1588.44V230.2H1578.44ZM1583.44 280H1411.44V290H1583.44V280ZM1416.44 285V4.19999H1406.44V285H1416.44ZM1411.44 9.19999H1583.44V-0.800009H1411.44V9.19999ZM1578.44 4.19999V59H1588.44V4.19999H1578.44ZM1583.44 54H1479.84V64H1583.44V54ZM1771.05 285L1766.67 287.413L1768.09 290H1771.05V285ZM1712.65 179L1717.03 176.587L1715.6 174H1712.65V179ZM1696.25 179V174H1691.25V179H1696.25ZM1696.25 285V290H1701.25V285H1696.25ZM1627.85 285H1622.85V290H1627.85V285ZM1627.85 4.19999V-0.800009H1622.85V4.19999H1627.85ZM1799.05 15.8L1796.81 20.2721L1796.83 20.2797L1796.84 20.2872L1799.05 15.8ZM1834.25 47.8L1829.9 50.2715L1829.91 50.2901L1829.92 50.3086L1834.25 47.8ZM1829.85 142.6L1825.8 139.659L1825.79 139.683L1825.77 139.708L1829.85 142.6ZM1783.45 173.8L1782.02 169.009L1775.93 170.828L1779.13 176.317L1783.45 173.8ZM1848.25 285V290H1856.95L1852.57 282.483L1848.25 285ZM1696.25 130.6H1691.25V135.6H1696.25V130.6ZM1766.65 121.4L1763.19 117.79L1763.15 117.827L1763.11 117.864L1766.65 121.4ZM1766.65 70.2L1763.11 73.7355L1763.15 73.7731L1763.19 73.8099L1766.65 70.2ZM1696.25 61V56H1691.25V61H1696.25ZM1775.43 282.587L1717.03 176.587L1708.27 181.413L1766.67 287.413L1775.43 282.587ZM1712.65 174H1696.25V184H1712.65V174ZM1691.25 179V285H1701.25V179H1691.25ZM1696.25 280H1627.85V290H1696.25V280ZM1632.85 285V4.19999H1622.85V285H1632.85ZM1627.85 9.19999H1742.65V-0.800009H1627.85V9.19999ZM1742.65 9.19999C1764.21 9.19999 1782.21 12.9692 1796.81 20.2721L1801.28 11.3278C1784.96 3.16407 1765.35 -0.800009 1742.65 -0.800009V9.19999ZM1796.84 20.2872C1811.79 27.6338 1822.72 37.6458 1829.9 50.2715L1838.59 45.3285C1830.31 30.7541 1817.77 19.4329 1801.25 11.3127L1796.84 20.2872ZM1829.92 50.3086C1837.18 62.8245 1840.85 76.8815 1840.85 92.6H1850.85C1850.85 75.2518 1846.78 59.4422 1838.57 45.2914L1829.92 50.3086ZM1840.85 92.6C1840.85 110.243 1835.83 125.873 1825.8 139.659L1833.89 145.541C1845.2 129.993 1850.85 112.29 1850.85 92.6H1840.85ZM1825.77 139.708C1816.13 153.298 1801.69 163.132 1782.02 169.009L1784.88 178.591C1806.27 172.201 1822.76 161.235 1833.93 145.492L1825.77 139.708ZM1779.13 176.317L1843.93 287.517L1852.57 282.483L1787.77 171.283L1779.13 176.317ZM1848.25 280H1771.05V290H1848.25V280ZM1696.25 135.6H1738.65V125.6H1696.25V135.6ZM1738.65 135.6C1751.91 135.6 1762.76 132.355 1770.18 124.936L1763.11 117.864C1758.26 122.711 1750.45 125.6 1738.65 125.6V135.6ZM1770.11 125.01C1777.73 117.699 1781.25 107.582 1781.25 95.4H1771.25C1771.25 105.618 1768.36 112.834 1763.19 117.79L1770.11 125.01ZM1781.25 95.4C1781.25 83.6687 1777.69 73.8547 1770.11 66.5901L1763.19 73.8099C1768.41 78.812 1771.25 85.798 1771.25 95.4H1781.25ZM1770.18 66.6645C1762.76 59.2448 1751.91 56 1738.65 56V66C1750.45 66 1758.26 68.8886 1763.11 73.7355L1770.18 66.6645ZM1738.65 56H1696.25V66H1738.65V56ZM1691.25 61V130.6H1701.25V61H1691.25Z" fill="#B11EFE" fill-opacity="0.84"/>
</g>
<defs>
<filter id="filter0_d_690_588" x="0.799805" y="0.200195" width="1851.45" height="295.6" filterUnits="userSpaceOnUse" color-interpolation-filters="sRGB">
<feFlood flood-opacity="0" result="BackgroundImageFix"/>
<feColorMatrix in="SourceAlpha" type="matrix" values="0 0 0 0 0 0 0 0 0 0 0 0 0 0 0 0 0 0 127 0" result="hardAlpha"/>
<feOffset dy="4"/>
<feGaussianBlur stdDeviation="2"/>
<feComposite in2="hardAlpha" operator="out"/>
<feColorMatrix type="matrix" values="0 0 0 0 0 0 0 0 0 0 0 0 0 0 0 0 0 0 0.25 0"/>
<feBlend mode="normal" in2="BackgroundImageFix" result="effect1_dropShadow_690_588"/>
<feBlend mode="normal" in="SourceGraphic" in2="effect1_dropShadow_690_588" result="shape"/>
</filter>
</defs>
</svg>
