<svg width="2875" height="294" viewBox="0 0 2875 294" fill="none" xmlns="http://www.w3.org/2000/svg">
<g opacity="0.2" filter="url(#filter0_d_1319_672)">
<path d="M322.8 3.19999V284H254.4V115.6L191.6 284H136.4L73.2 115.2V284H4.8V3.19999H85.6L164.4 197.6L242.4 3.19999H322.8ZM546.788 234.4H441.988L425.188 284H353.588L455.188 3.19999H534.388L635.988 284H563.588L546.788 234.4ZM529.188 181.6L494.388 78.8L459.988 181.6H529.188ZM918.109 284H849.709L735.309 110.8V284H666.909V3.19999H735.309L849.709 177.2V3.19999H918.109V284ZM1142.49 234.4H1037.69L1020.89 284H949.291L1050.89 3.19999H1130.09L1231.69 284H1159.29L1142.49 234.4ZM1124.89 181.6L1090.09 78.8L1055.69 181.6H1124.89ZM1449.01 92C1443.95 82.6667 1436.61 75.6 1427.01 70.8C1417.68 65.7333 1406.61 63.2 1393.81 63.2C1371.68 63.2 1353.95 70.5333 1340.61 85.2C1327.28 99.6 1320.61 118.933 1320.61 143.2C1320.61 169.067 1327.55 189.333 1341.41 204C1355.55 218.4 1374.88 225.6 1399.41 225.6C1416.21 225.6 1430.35 221.333 1441.81 212.8C1453.55 204.267 1462.08 192 1467.41 176H1380.61V125.6H1529.41V189.2C1524.35 206.267 1515.68 222.133 1503.41 236.8C1491.41 251.467 1476.08 263.333 1457.41 272.4C1438.75 281.467 1417.68 286 1394.21 286C1366.48 286 1341.68 280 1319.81 268C1298.21 255.733 1281.28 238.8 1269.01 217.2C1257.01 195.6 1251.01 170.933 1251.01 143.2C1251.01 115.467 1257.01 90.8 1269.01 69.2C1281.28 47.3333 1298.21 30.4 1319.81 18.4C1341.41 6.13332 1366.08 -1.52588e-05 1393.81 -1.52588e-05C1427.41 -1.52588e-05 1455.68 8.13332 1478.61 24.4C1501.81 40.6667 1517.15 63.2 1524.61 92H1449.01ZM1635.7 58V114.8H1727.3V167.6H1635.7V229.2H1739.3V284H1567.3V3.19999H1739.3V58H1635.7ZM2101.71 3.19999V284H2033.31V115.6L1970.51 284H1915.31L1852.11 115.2V284H1783.71V3.19999H1864.51L1943.31 197.6L2021.31 3.19999H2101.71ZM2219.29 58V114.8H2310.89V167.6H2219.29V229.2H2322.89V284H2150.89V3.19999H2322.89V58H2219.29ZM2618.5 284H2550.1L2435.7 110.8V284H2367.3V3.19999H2435.7L2550.1 177.2V3.19999H2618.5V284ZM2870.08 3.19999V58H2795.68V284H2727.28V58H2652.88V3.19999H2870.08Z" fill="white" shape-rendering="crispEdges"/>
<path d="M322.8 3.19999H327.8V-1.80001H322.8V3.19999ZM322.8 284V289H327.8V284H322.8ZM254.4 284H249.4V289H254.4V284ZM254.4 115.6H259.4L249.715 113.853L254.4 115.6ZM191.6 284V289H195.072L196.285 285.747L191.6 284ZM136.4 284L131.717 285.753L132.933 289H136.4V284ZM73.2 115.2L77.8826 113.447L68.2 115.2H73.2ZM73.2 284V289H78.2V284H73.2ZM4.8 284H-0.199999V289H4.8V284ZM4.8 3.19999V-1.80001H-0.199999V3.19999H4.8ZM85.6 3.19999L90.2338 1.32169L88.9684 -1.80001H85.6V3.19999ZM164.4 197.6L159.766 199.478L164.424 210.968L169.04 199.462L164.4 197.6ZM242.4 3.19999V-1.80001H239.019L237.76 1.3381L242.4 3.19999ZM317.8 3.19999V284H327.8V3.19999H317.8ZM322.8 279H254.4V289H322.8V279ZM259.4 284V115.6H249.4V284H259.4ZM249.715 113.853L186.915 282.253L196.285 285.747L259.085 117.347L249.715 113.853ZM191.6 279H136.4V289H191.6V279ZM141.083 282.247L77.8826 113.447L68.5174 116.953L131.717 285.753L141.083 282.247ZM68.2 115.2V284H78.2V115.2H68.2ZM73.2 279H4.8V289H73.2V279ZM9.8 284V3.19999H-0.199999V284H9.8ZM4.8 8.19999H85.6V-1.80001H4.8V8.19999ZM80.9662 5.0783L159.766 199.478L169.034 195.722L90.2338 1.32169L80.9662 5.0783ZM169.04 199.462L247.04 5.06188L237.76 1.3381L159.76 195.738L169.04 199.462ZM242.4 8.19999H322.8V-1.80001H242.4V8.19999ZM546.788 234.4L551.523 232.796L550.373 229.4H546.788V234.4ZM441.988 234.4V229.4H438.402L437.252 232.796L441.988 234.4ZM425.188 284V289H428.773L429.923 285.604L425.188 284ZM353.588 284L348.886 282.299L346.461 289H353.588V284ZM455.188 3.19999V-1.80001H451.679L450.486 1.49881L455.188 3.19999ZM534.388 3.19999L539.089 1.49881L537.896 -1.80001H534.388V3.19999ZM635.988 284V289H643.114L640.689 282.299L635.988 284ZM563.588 284L558.852 285.604L560.002 289H563.588V284ZM529.188 181.6V186.6H536.159L533.923 179.997L529.188 181.6ZM494.388 78.8L499.124 77.1968L494.36 63.1256L489.646 77.2133L494.388 78.8ZM459.988 181.6L455.246 180.013L453.042 186.6H459.988V181.6ZM546.788 229.4H441.988V239.4H546.788V229.4ZM437.252 232.796L420.452 282.396L429.923 285.604L446.723 236.004L437.252 232.796ZM425.188 279H353.588V289H425.188V279ZM358.289 285.701L459.889 4.90118L450.486 1.49881L348.886 282.299L358.289 285.701ZM455.188 8.19999H534.388V-1.80001H455.188V8.19999ZM529.686 4.90118L631.286 285.701L640.689 282.299L539.089 1.49881L529.686 4.90118ZM635.988 279H563.588V289H635.988V279ZM568.323 282.396L551.523 232.796L542.052 236.004L558.852 285.604L568.323 282.396ZM533.923 179.997L499.124 77.1968L489.652 80.4032L524.452 183.203L533.923 179.997ZM489.646 77.2133L455.246 180.013L464.729 183.187L499.129 80.3867L489.646 77.2133ZM459.988 186.6H529.188V176.6H459.988V186.6ZM918.109 284V289H923.109V284H918.109ZM849.709 284L845.537 286.756L847.02 289H849.709V284ZM735.309 110.8L739.481 108.044L730.309 94.1579V110.8H735.309ZM735.309 284V289H740.309V284H735.309ZM666.909 284H661.909V289H666.909V284ZM666.909 3.19999V-1.80001H661.909V3.19999H666.909ZM735.309 3.19999L739.487 0.453143L738.006 -1.80001H735.309V3.19999ZM849.709 177.2L845.531 179.947L854.709 193.906V177.2H849.709ZM849.709 3.19999V-1.80001H844.709V3.19999H849.709ZM918.109 3.19999H923.109V-1.80001H918.109V3.19999ZM918.109 279H849.709V289H918.109V279ZM853.881 281.244L739.481 108.044L731.137 113.556L845.537 286.756L853.881 281.244ZM730.309 110.8V284H740.309V110.8H730.309ZM735.309 279H666.909V289H735.309V279ZM671.909 284V3.19999H661.909V284H671.909ZM666.909 8.19999H735.309V-1.80001H666.909V8.19999ZM731.131 5.94684L845.531 179.947L853.887 174.453L739.487 0.453143L731.131 5.94684ZM854.709 177.2V3.19999H844.709V177.2H854.709ZM849.709 8.19999H918.109V-1.80001H849.709V8.19999ZM913.109 3.19999V284H923.109V3.19999H913.109ZM1142.49 234.4L1147.23 232.796L1146.08 229.4H1142.49V234.4ZM1037.69 234.4V229.4H1034.11L1032.95 232.796L1037.69 234.4ZM1020.89 284V289H1024.48L1025.63 285.604L1020.89 284ZM949.291 284L944.589 282.299L942.164 289H949.291V284ZM1050.89 3.19999V-1.80001H1047.38L1046.19 1.49881L1050.89 3.19999ZM1130.09 3.19999L1134.79 1.49881L1133.6 -1.80001H1130.09V3.19999ZM1231.69 284V289H1238.82L1236.39 282.299L1231.69 284ZM1159.29 284L1154.55 285.604L1155.71 289H1159.29V284ZM1124.89 181.6V186.6H1131.86L1129.63 179.997L1124.89 181.6ZM1090.09 78.8L1094.83 77.1968L1090.06 63.1256L1085.35 77.2133L1090.09 78.8ZM1055.69 181.6L1050.95 180.013L1048.74 186.6H1055.69V181.6ZM1142.49 229.4H1037.69V239.4H1142.49V229.4ZM1032.95 232.796L1016.15 282.396L1025.63 285.604L1042.43 236.004L1032.95 232.796ZM1020.89 279H949.291V289H1020.89V279ZM953.992 285.701L1055.59 4.90118L1046.19 1.49881L944.589 282.299L953.992 285.701ZM1050.89 8.19999H1130.09V-1.80001H1050.89V8.19999ZM1125.39 4.90118L1226.99 285.701L1236.39 282.299L1134.79 1.49881L1125.39 4.90118ZM1231.69 279H1159.29V289H1231.69V279ZM1164.03 282.396L1147.23 232.796L1137.75 236.004L1154.55 285.604L1164.03 282.396ZM1129.63 179.997L1094.83 77.1968L1085.35 80.4032L1120.15 183.203L1129.63 179.997ZM1085.35 77.2133L1050.95 180.013L1060.43 183.187L1094.83 80.3867L1085.35 77.2133ZM1055.69 186.6H1124.89V176.6H1055.69V186.6ZM1449.01 92L1444.62 94.3854L1446.04 97H1449.01V92ZM1427.01 70.8L1424.63 75.1942L1424.7 75.2344L1424.78 75.2721L1427.01 70.8ZM1340.61 85.2L1344.28 88.597L1344.3 88.5803L1344.31 88.5634L1340.61 85.2ZM1341.41 204L1337.78 207.435L1337.81 207.469L1337.84 207.502L1341.41 204ZM1441.81 212.8L1438.87 208.756L1438.85 208.772L1438.83 208.789L1441.81 212.8ZM1467.41 176L1472.16 177.581L1474.35 171H1467.41V176ZM1380.61 176H1375.61V181H1380.61V176ZM1380.61 125.6V120.6H1375.61V125.6H1380.61ZM1529.41 125.6H1534.41V120.6H1529.41V125.6ZM1529.41 189.2L1534.21 190.623L1534.41 189.927V189.2H1529.41ZM1503.41 236.8L1499.58 233.592L1499.56 233.613L1499.54 233.634L1503.41 236.8ZM1457.41 272.4L1455.23 267.902L1455.23 267.902L1457.41 272.4ZM1319.81 268L1317.34 272.348L1317.38 272.366L1317.41 272.383L1319.81 268ZM1269.01 217.2L1264.64 219.628L1264.65 219.649L1264.66 219.669L1269.01 217.2ZM1269.01 69.2L1264.65 66.7537L1264.65 66.7628L1264.64 66.7718L1269.01 69.2ZM1319.81 18.4L1322.24 22.7708L1322.26 22.7594L1322.28 22.7478L1319.81 18.4ZM1478.61 24.4L1475.72 28.4782L1475.73 28.4861L1475.74 28.4939L1478.61 24.4ZM1524.61 92V97H1531.07L1529.45 90.7452L1524.61 92ZM1453.41 89.6145C1447.85 79.3708 1439.75 71.5807 1429.25 66.3278L1424.78 75.2721C1433.47 79.6193 1440.05 85.9625 1444.62 94.3854L1453.41 89.6145ZM1429.4 66.4057C1419.2 60.8676 1407.28 58.2 1393.81 58.2V68.2C1405.95 68.2 1416.16 70.599 1424.63 75.1942L1429.4 66.4057ZM1393.81 58.2C1370.45 58.2 1351.31 65.9998 1336.91 81.8366L1344.31 88.5634C1356.58 75.0669 1372.91 68.2 1393.81 68.2V58.2ZM1336.94 81.803C1322.56 97.3332 1315.61 117.986 1315.61 143.2H1325.61C1325.61 119.881 1331.99 101.867 1344.28 88.597L1336.94 81.803ZM1315.61 143.2C1315.61 169.971 1322.81 191.6 1337.78 207.435L1345.05 200.565C1332.28 187.067 1325.61 168.163 1325.61 143.2H1315.61ZM1337.84 207.502C1353.11 223.061 1373.85 230.6 1399.41 230.6V220.6C1375.91 220.6 1357.98 213.739 1344.98 200.498L1337.84 207.502ZM1399.41 230.6C1417.09 230.6 1432.32 226.094 1444.8 216.811L1438.83 208.789C1428.37 216.573 1415.33 220.6 1399.41 220.6V230.6ZM1444.75 216.844C1457.46 207.602 1466.55 194.404 1472.16 177.581L1462.67 174.419C1457.61 189.596 1449.63 200.931 1438.87 208.756L1444.75 216.844ZM1467.41 171H1380.61V181H1467.41V171ZM1385.61 176V125.6H1375.61V176H1385.61ZM1380.61 130.6H1529.41V120.6H1380.61V130.6ZM1524.41 125.6V189.2H1534.41V125.6H1524.41ZM1524.62 187.777C1519.76 204.142 1511.44 219.41 1499.58 233.592L1507.25 240.008C1519.92 224.857 1528.93 208.391 1534.21 190.623L1524.62 187.777ZM1499.54 233.634C1488.04 247.688 1473.31 259.122 1455.23 267.902L1459.6 276.898C1478.85 267.545 1494.78 255.245 1507.28 239.966L1499.54 233.634ZM1455.23 267.902C1437.33 276.598 1417.02 281 1394.21 281V291C1418.34 291 1440.17 286.336 1459.6 276.898L1455.23 267.902ZM1394.21 281C1367.22 281 1343.27 275.168 1322.22 263.617L1317.41 272.383C1340.09 284.832 1365.73 291 1394.21 291V281ZM1322.28 263.652C1301.47 251.831 1285.18 235.547 1273.36 214.731L1264.66 219.669C1277.38 242.053 1294.96 259.636 1317.34 272.348L1322.28 263.652ZM1273.38 214.772C1261.84 194.002 1256.01 170.189 1256.01 143.2H1246.01C1246.01 171.677 1252.18 197.198 1264.64 219.628L1273.38 214.772ZM1256.01 143.2C1256.01 116.211 1261.84 92.3981 1273.38 71.6282L1264.64 66.7718C1252.18 89.2019 1246.01 114.723 1246.01 143.2H1256.01ZM1273.37 71.6463C1285.19 50.5752 1301.46 34.3138 1322.24 22.7708L1317.38 14.0292C1294.96 26.4862 1277.36 44.0914 1264.65 66.7537L1273.37 71.6463ZM1322.28 22.7478C1343.04 10.9567 1366.84 4.99998 1393.81 4.99998V-5.00002C1365.32 -5.00002 1339.78 1.30992 1317.34 14.0522L1322.28 22.7478ZM1393.81 4.99998C1426.58 4.99998 1453.79 12.9207 1475.72 28.4782L1481.51 20.3217C1457.57 3.34595 1428.24 -5.00002 1393.81 -5.00002V4.99998ZM1475.74 28.4939C1497.92 44.0422 1512.59 65.5426 1519.77 93.2548L1529.45 90.7452C1521.7 60.8574 1505.71 37.2912 1481.48 20.306L1475.74 28.4939ZM1524.61 87H1449.01V97H1524.61V87ZM1635.7 58V53H1630.7V58H1635.7ZM1635.7 114.8H1630.7V119.8H1635.7V114.8ZM1727.3 114.8H1732.3V109.8H1727.3V114.8ZM1727.3 167.6V172.6H1732.3V167.6H1727.3ZM1635.7 167.6V162.6H1630.7V167.6H1635.7ZM1635.7 229.2H1630.7V234.2H1635.7V229.2ZM1739.3 229.2H1744.3V224.2H1739.3V229.2ZM1739.3 284V289H1744.3V284H1739.3ZM1567.3 284H1562.3V289H1567.3V284ZM1567.3 3.19999V-1.80001H1562.3V3.19999H1567.3ZM1739.3 3.19999H1744.3V-1.80001H1739.3V3.19999ZM1739.3 58V63H1744.3V58H1739.3ZM1630.7 58V114.8H1640.7V58H1630.7ZM1635.7 119.8H1727.3V109.8H1635.7V119.8ZM1722.3 114.8V167.6H1732.3V114.8H1722.3ZM1727.3 162.6H1635.7V172.6H1727.3V162.6ZM1630.7 167.6V229.2H1640.7V167.6H1630.7ZM1635.7 234.2H1739.3V224.2H1635.7V234.2ZM1734.3 229.2V284H1744.3V229.2H1734.3ZM1739.3 279H1567.3V289H1739.3V279ZM1572.3 284V3.19999H1562.3V284H1572.3ZM1567.3 8.19999H1739.3V-1.80001H1567.3V8.19999ZM1734.3 3.19999V58H1744.3V3.19999H1734.3ZM1739.3 53H1635.7V63H1739.3V53ZM2101.71 3.19999H2106.71V-1.80001H2101.71V3.19999ZM2101.71 284V289H2106.71V284H2101.71ZM2033.31 284H2028.31V289H2033.31V284ZM2033.31 115.6H2038.31L2028.62 113.853L2033.31 115.6ZM1970.51 284V289H1973.98L1975.19 285.747L1970.51 284ZM1915.31 284L1910.62 285.753L1911.84 289H1915.31V284ZM1852.11 115.2L1856.79 113.447L1847.11 115.2H1852.11ZM1852.11 284V289H1857.11V284H1852.11ZM1783.71 284H1778.71V289H1783.71V284ZM1783.71 3.19999V-1.80001H1778.71V3.19999H1783.71ZM1864.51 3.19999L1869.14 1.32169L1867.87 -1.80001H1864.51V3.19999ZM1943.31 197.6L1938.67 199.478L1943.33 210.968L1947.95 199.462L1943.31 197.6ZM2021.31 3.19999V-1.80001H2017.92L2016.67 1.3381L2021.31 3.19999ZM2096.71 3.19999V284H2106.71V3.19999H2096.71ZM2101.71 279H2033.31V289H2101.71V279ZM2038.31 284V115.6H2028.31V284H2038.31ZM2028.62 113.853L1965.82 282.253L1975.19 285.747L2037.99 117.347L2028.62 113.853ZM1970.51 279H1915.31V289H1970.51V279ZM1919.99 282.247L1856.79 113.447L1847.42 116.953L1910.62 285.753L1919.99 282.247ZM1847.11 115.2V284H1857.11V115.2H1847.11ZM1852.11 279H1783.71V289H1852.11V279ZM1788.71 284V3.19999H1778.71V284H1788.71ZM1783.71 8.19999H1864.51V-1.80001H1783.71V8.19999ZM1859.87 5.0783L1938.67 199.478L1947.94 195.722L1869.14 1.32169L1859.87 5.0783ZM1947.95 199.462L2025.95 5.06188L2016.67 1.3381L1938.67 195.738L1947.95 199.462ZM2021.31 8.19999H2101.71V-1.80001H2021.31V8.19999ZM2219.29 58V53H2214.29V58H2219.29ZM2219.29 114.8H2214.29V119.8H2219.29V114.8ZM2310.89 114.8H2315.89V109.8H2310.89V114.8ZM2310.89 167.6V172.6H2315.89V167.6H2310.89ZM2219.29 167.6V162.6H2214.29V167.6H2219.29ZM2219.29 229.2H2214.29V234.2H2219.29V229.2ZM2322.89 229.2H2327.89V224.2H2322.89V229.2ZM2322.89 284V289H2327.89V284H2322.89ZM2150.89 284H2145.89V289H2150.89V284ZM2150.89 3.19999V-1.80001H2145.89V3.19999H2150.89ZM2322.89 3.19999H2327.89V-1.80001H2322.89V3.19999ZM2322.89 58V63H2327.89V58H2322.89ZM2214.29 58V114.8H2224.29V58H2214.29ZM2219.29 119.8H2310.89V109.8H2219.29V119.8ZM2305.89 114.8V167.6H2315.89V114.8H2305.89ZM2310.89 162.6H2219.29V172.6H2310.89V162.6ZM2214.29 167.6V229.2H2224.29V167.6H2214.29ZM2219.29 234.2H2322.89V224.2H2219.29V234.2ZM2317.89 229.2V284H2327.89V229.2H2317.89ZM2322.89 279H2150.89V289H2322.89V279ZM2155.89 284V3.19999H2145.89V284H2155.89ZM2150.89 8.19999H2322.89V-1.80001H2150.89V8.19999ZM2317.89 3.19999V58H2327.89V3.19999H2317.89ZM2322.89 53H2219.29V63H2322.89V53ZM2618.5 284V289H2623.5V284H2618.5ZM2550.1 284L2545.93 286.756L2547.41 289H2550.1V284ZM2435.7 110.8L2439.87 108.044L2430.7 94.1579V110.8H2435.7ZM2435.7 284V289H2440.7V284H2435.7ZM2367.3 284H2362.3V289H2367.3V284ZM2367.3 3.19999V-1.80001H2362.3V3.19999H2367.3ZM2435.7 3.19999L2439.88 0.453143L2438.4 -1.80001H2435.7V3.19999ZM2550.1 177.2L2545.92 179.947L2555.1 193.906V177.2H2550.1ZM2550.1 3.19999V-1.80001H2545.1V3.19999H2550.1ZM2618.5 3.19999H2623.5V-1.80001H2618.5V3.19999ZM2618.5 279H2550.1V289H2618.5V279ZM2554.27 281.244L2439.87 108.044L2431.53 113.556L2545.93 286.756L2554.27 281.244ZM2430.7 110.8V284H2440.7V110.8H2430.7ZM2435.7 279H2367.3V289H2435.7V279ZM2372.3 284V3.19999H2362.3V284H2372.3ZM2367.3 8.19999H2435.7V-1.80001H2367.3V8.19999ZM2431.52 5.94684L2545.92 179.947L2554.28 174.453L2439.88 0.453143L2431.52 5.94684ZM2555.1 177.2V3.19999H2545.1V177.2H2555.1ZM2550.1 8.19999H2618.5V-1.80001H2550.1V8.19999ZM2613.5 3.19999V284H2623.5V3.19999H2613.5ZM2870.08 3.19999H2875.08V-1.80001H2870.08V3.19999ZM2870.08 58V63H2875.08V58H2870.08ZM2795.68 58V53H2790.68V58H2795.68ZM2795.68 284V289H2800.68V284H2795.68ZM2727.28 284H2722.28V289H2727.28V284ZM2727.28 58H2732.28V53H2727.28V58ZM2652.88 58H2647.88V63H2652.88V58ZM2652.88 3.19999V-1.80001H2647.88V3.19999H2652.88ZM2865.08 3.19999V58H2875.08V3.19999H2865.08ZM2870.08 53H2795.68V63H2870.08V53ZM2790.68 58V284H2800.68V58H2790.68ZM2795.68 279H2727.28V289H2795.68V279ZM2732.28 284V58H2722.28V284H2732.28ZM2727.28 53H2652.88V63H2727.28V53ZM2657.88 58V3.19999H2647.88V58H2657.88ZM2652.88 8.19999H2870.08V-1.80001H2652.88V8.19999Z" fill="#B11EFE" fill-opacity="0.84"/>
</g>
<defs>
<filter id="filter0_d_1319_672" x="0.799805" y="0" width="2873.28" height="294" filterUnits="userSpaceOnUse" color-interpolation-filters="sRGB">
<feFlood flood-opacity="0" result="BackgroundImageFix"/>
<feColorMatrix in="SourceAlpha" type="matrix" values="0 0 0 0 0 0 0 0 0 0 0 0 0 0 0 0 0 0 127 0" result="hardAlpha"/>
<feOffset dy="4"/>
<feGaussianBlur stdDeviation="2"/>
<feComposite in2="hardAlpha" operator="out"/>
<feColorMatrix type="matrix" values="0 0 0 0 0 0 0 0 0 0 0 0 0 0 0 0 0 0 0.25 0"/>
<feBlend mode="normal" in2="BackgroundImageFix" result="effect1_dropShadow_1319_672"/>
<feBlend mode="normal" in="SourceGraphic" in2="effect1_dropShadow_1319_672" result="shape"/>
</filter>
</defs>
</svg>
